<svg width="21" height="23" viewBox="0 0 21 23" fill="none" xmlns="http://www.w3.org/2000/svg">
    <path d="M6 3.14006C6.13161 3.14085 6.26207 3.11449 6.38391 3.06247C6.50574 3.01045 6.61656 2.93381 6.71 2.83693L7.71 1.79167C7.8983 1.59485 8.00409 1.32789 8.00409 1.04954C8.00409 0.771182 7.8983 0.504229 7.71 0.307402C7.5217 0.110576 7.2663 2.0739e-09 7 0C6.7337 -2.0739e-09 6.4783 0.110576 6.29 0.307402L5.29 1.35266C5.19627 1.44983 5.12188 1.56544 5.07111 1.69281C5.02034 1.82019 4.9942 1.95681 4.9942 2.0948C4.9942 2.23278 5.02034 2.36941 5.07111 2.49678C5.12188 2.62415 5.19627 2.73976 5.29 2.83693C5.38344 2.93381 5.49426 3.01045 5.61609 3.06247C5.73793 3.11449 5.86839 3.14085 6 3.14006ZM10 3.14006C10.1316 3.14085 10.2621 3.11449 10.3839 3.06247C10.5057 3.01045 10.6166 2.93381 10.71 2.83693L11.71 1.79167C11.8983 1.59485 12.0041 1.32789 12.0041 1.04954C12.0041 0.771182 11.8983 0.504229 11.71 0.307402C11.5217 0.110576 11.2663 0 11 0C10.7337 0 10.4783 0.110576 10.29 0.307402L9.29 1.35266C9.19627 1.44983 9.12188 1.56544 9.07111 1.69281C9.02034 1.82019 8.9942 1.95681 8.9942 2.0948C8.9942 2.23278 9.02034 2.36941 9.07111 2.49678C9.12188 2.62415 9.19627 2.73976 9.29 2.83693C9.38344 2.93381 9.49426 3.01045 9.61609 3.06247C9.73793 3.11449 9.86839 3.14085 10 3.14006ZM14 3.14006C14.1316 3.14085 14.2621 3.11449 14.3839 3.06247C14.5057 3.01045 14.6166 2.93381 14.71 2.83693L15.71 1.79167C15.8032 1.69421 15.8772 1.57851 15.9277 1.45118C15.9781 1.32384 16.0041 1.18736 16.0041 1.04954C16.0041 0.91171 15.9781 0.775232 15.9277 0.647897C15.8772 0.520561 15.8032 0.404861 15.71 0.307402C15.6168 0.209944 15.5061 0.132635 15.3842 0.0798912C15.2624 0.027147 15.1319 0 15 0C14.8681 0 14.7376 0.027147 14.6158 0.0798912C14.4939 0.132635 14.3832 0.209944 14.29 0.307402L13.29 1.35266C13.1963 1.44983 13.1219 1.56544 13.0711 1.69281C13.0203 1.82019 12.9942 1.95681 12.9942 2.0948C12.9942 2.23278 13.0203 2.36941 13.0711 2.49678C13.1219 2.62415 13.1963 2.73976 13.29 2.83693C13.3834 2.93381 13.4943 3.01045 13.6161 3.06247C13.7379 3.11449 13.8684 3.14085 14 3.14006ZM16.42 15.286C16.3981 15.2194 16.3678 15.1561 16.33 15.0978L16.21 14.941L16.06 14.8156C16.0043 14.7761 15.9437 14.7444 15.88 14.7215C15.8205 14.6897 15.7562 14.6685 15.69 14.6588C15.5293 14.6252 15.3632 14.6334 15.2063 14.6826C15.0494 14.7318 14.9064 14.8205 14.79 14.941C14.747 14.9907 14.7069 15.0431 14.67 15.0978C14.6322 15.1561 14.6019 15.2194 14.58 15.286C14.5512 15.3452 14.5309 15.4086 14.52 15.4741C14.5151 15.5437 14.5151 15.6136 14.52 15.6832C14.5211 15.9574 14.6253 16.2202 14.81 16.4149C14.9025 16.5159 15.0152 16.5945 15.14 16.6448C15.254 16.6958 15.3761 16.7241 15.5 16.7284C15.7652 16.7284 16.0196 16.6183 16.2071 16.4223C16.3946 16.2263 16.5 15.9604 16.5 15.6832C16.5049 15.6136 16.5049 15.5437 16.5 15.4741C16.4828 15.4075 16.4558 15.344 16.42 15.286ZM18.26 10.5719L16.9 6.3281C16.6926 5.71477 16.3077 5.18407 15.7989 4.80951C15.2901 4.43495 14.6824 4.23507 14.06 4.23758H6.94C6.31764 4.23507 5.70995 4.43495 5.2011 4.80951C4.69225 5.18407 4.30745 5.71477 4.1 6.3281L2.74 10.5719C2.10033 10.7469 1.53392 11.138 1.12883 11.6843C0.723743 12.2306 0.502677 12.9015 0.5 13.5927V17.7737C0.50174 18.4207 0.694879 19.0512 1.05294 19.5789C1.411 20.1066 1.91645 20.5057 2.5 20.7213V21.9547C2.5 22.232 2.60536 22.4978 2.79289 22.6939C2.98043 22.8899 3.23478 23 3.5 23C3.76522 23 4.01957 22.8899 4.20711 22.6939C4.39464 22.4978 4.5 22.232 4.5 21.9547V20.9095H16.5V21.9547C16.5 22.232 16.6054 22.4978 16.7929 22.6939C16.9804 22.8899 17.2348 23 17.5 23C17.7652 23 18.0196 22.8899 18.2071 22.6939C18.3946 22.4978 18.5 22.232 18.5 21.9547V20.7213C19.0835 20.5057 19.589 20.1066 19.9471 19.5789C20.3051 19.0512 20.4983 18.4207 20.5 17.7737V13.5927C20.4973 12.9015 20.2763 12.2306 19.8712 11.6843C19.4661 11.138 18.8997 10.7469 18.26 10.5719ZM5.99 6.98661C6.05709 6.779 6.1849 6.59868 6.35537 6.47114C6.52584 6.34359 6.73036 6.27527 6.94 6.27584H14.06C14.2781 6.26394 14.4939 6.32698 14.6744 6.45532C14.855 6.58367 14.9904 6.77027 15.06 6.98661L16.11 10.4569H4.89L5.99 6.98661ZM18.5 17.7737C18.5 18.0509 18.3946 18.3168 18.2071 18.5128C18.0196 18.7088 17.7652 18.819 17.5 18.819H3.5C3.23478 18.819 2.98043 18.7088 2.79289 18.5128C2.60536 18.3168 2.5 18.0509 2.5 17.7737V13.5927C2.5 13.3154 2.60536 13.0496 2.79289 12.8535C2.98043 12.6575 3.23478 12.5474 3.5 12.5474H17.5C17.7652 12.5474 18.0196 12.6575 18.2071 12.8535C18.3946 13.0496 18.5 13.3154 18.5 13.5927V17.7737ZM11.5 14.6379H9.5C9.23478 14.6379 8.98043 14.748 8.79289 14.9441C8.60536 15.1401 8.5 15.406 8.5 15.6832C8.5 15.9604 8.60536 16.2263 8.79289 16.4223C8.98043 16.6183 9.23478 16.7284 9.5 16.7284H11.5C11.7652 16.7284 12.0196 16.6183 12.2071 16.4223C12.3946 16.2263 12.5 15.9604 12.5 15.6832C12.5 15.406 12.3946 15.1401 12.2071 14.9441C12.0196 14.748 11.7652 14.6379 11.5 14.6379ZM6.42 15.286C6.39811 15.2194 6.36785 15.1561 6.33 15.0978L6.21 14.941C6.06938 14.796 5.8908 14.6978 5.69681 14.6587C5.50282 14.6196 5.30211 14.6415 5.12 14.7215C4.99725 14.7713 4.8851 14.8459 4.79 14.941C4.74699 14.9907 4.70692 15.0431 4.67 15.0978C4.63215 15.1561 4.60189 15.2194 4.58 15.286C4.5442 15.344 4.51722 15.4075 4.5 15.4741C4.49509 15.5437 4.49509 15.6136 4.5 15.6832C4.50083 15.8899 4.56028 16.0917 4.67085 16.2631C4.78141 16.4345 4.93812 16.5678 5.12115 16.6461C5.30418 16.7245 5.50532 16.7443 5.69913 16.7031C5.89295 16.662 6.07073 16.5616 6.21 16.4149C6.39474 16.2202 6.4989 15.9574 6.5 15.6832C6.50491 15.6136 6.50491 15.5437 6.5 15.4741C6.48278 15.4075 6.4558 15.344 6.42 15.286Z" fill="#626262"/>
</svg>
