<svg width="21" height="15" viewBox="0 0 21 15" fill="none" xmlns="http://www.w3.org/2000/svg">
    <path d="M17.5 5.00001H17.18L15.93 1.88001C15.7068 1.32527 15.3228 0.849897 14.8275 0.514916C14.3321 0.179935 13.748 0.000628704 13.15 1.22977e-05H7.15C6.45529 -0.00197604 5.78142 0.237203 5.24342 0.676725C4.70541 1.11625 4.33662 1.72886 4.2 2.41001L3.68 5.00001H3.5C2.70435 5.00001 1.94129 5.31608 1.37868 5.87869C0.816071 6.4413 0.5 7.20436 0.5 8.00001V11C0.5 11.2652 0.605357 11.5196 0.792893 11.7071C0.98043 11.8946 1.23478 12 1.5 12H2.5C2.5 12.7957 2.81607 13.5587 3.37868 14.1213C3.94129 14.6839 4.70435 15 5.5 15C6.29565 15 7.05871 14.6839 7.62132 14.1213C8.18393 13.5587 8.5 12.7957 8.5 12H12.5C12.5 12.7957 12.8161 13.5587 13.3787 14.1213C13.9413 14.6839 14.7044 15 15.5 15C16.2956 15 17.0587 14.6839 17.6213 14.1213C18.1839 13.5587 18.5 12.7957 18.5 12H19.5C19.7652 12 20.0196 11.8946 20.2071 11.7071C20.3946 11.5196 20.5 11.2652 20.5 11V8.00001C20.5 7.20436 20.1839 6.4413 19.6213 5.87869C19.0587 5.31608 18.2956 5.00001 17.5 5.00001ZM11.5 2.00001H13.15C13.3486 2.00181 13.5421 2.06268 13.706 2.17488C13.8698 2.28708 13.9965 2.44552 14.07 2.63001L15.02 5.00001H11.5V2.00001ZM6.16 2.80001C6.20675 2.57073 6.33242 2.36511 6.51514 2.21894C6.69786 2.07276 6.92605 1.99529 7.16 2.00001H9.5V5.00001H5.72L6.16 2.80001ZM5.5 13C5.30222 13 5.10888 12.9414 4.94443 12.8315C4.77998 12.7216 4.65181 12.5654 4.57612 12.3827C4.50043 12.2 4.48063 11.9989 4.51921 11.8049C4.5578 11.6109 4.65304 11.4327 4.79289 11.2929C4.93275 11.153 5.11093 11.0578 5.30491 11.0192C5.49889 10.9806 5.69996 11.0004 5.88268 11.0761C6.06541 11.1518 6.22159 11.28 6.33147 11.4444C6.44135 11.6089 6.5 11.8022 6.5 12C6.5 12.2652 6.39464 12.5196 6.20711 12.7071C6.01957 12.8946 5.76522 13 5.5 13ZM15.5 13C15.3022 13 15.1089 12.9414 14.9444 12.8315C14.78 12.7216 14.6518 12.5654 14.5761 12.3827C14.5004 12.2 14.4806 11.9989 14.5192 11.8049C14.5578 11.6109 14.653 11.4327 14.7929 11.2929C14.9327 11.153 15.1109 11.0578 15.3049 11.0192C15.4989 10.9806 15.7 11.0004 15.8827 11.0761C16.0654 11.1518 16.2216 11.28 16.3315 11.4444C16.4414 11.6089 16.5 11.8022 16.5 12C16.5 12.2652 16.3946 12.5196 16.2071 12.7071C16.0196 12.8946 15.7652 13 15.5 13ZM18.5 10H17.72C17.4388 9.69065 17.0961 9.44348 16.7138 9.27434C16.3315 9.1052 15.918 9.01783 15.5 9.01783C15.082 9.01783 14.6685 9.1052 14.2862 9.27434C13.9039 9.44348 13.5612 9.69065 13.28 10H7.72C7.43882 9.69065 7.09609 9.44348 6.71378 9.27434C6.33148 9.1052 5.91805 9.01783 5.5 9.01783C5.08195 9.01783 4.66852 9.1052 4.28622 9.27434C3.90391 9.44348 3.56118 9.69065 3.28 10H2.5V8.00001C2.5 7.73479 2.60536 7.48044 2.79289 7.2929C2.98043 7.10536 3.23478 7.00001 3.5 7.00001H17.5C17.7652 7.00001 18.0196 7.10536 18.2071 7.2929C18.3946 7.48044 18.5 7.73479 18.5 8.00001V10Z"
          fill="#626262"/>
</svg>
