<svg width="20" height="21" viewBox="0 0 20 21" fill="none" xmlns="http://www.w3.org/2000/svg">
    <path d="M16.6667 0H3.33333C2.44928 0 1.60143 0.331874 0.976311 0.922614C0.35119 1.51335 0 2.31457 0 3.15V15.75C0.00193279 16.3999 0.216532 17.0333 0.614376 17.5634C1.01222 18.0935 1.57383 18.4944 2.22222 18.711V19.95C2.22222 20.2285 2.33929 20.4955 2.54766 20.6925C2.75603 20.8894 3.03865 21 3.33333 21C3.62802 21 3.91063 20.8894 4.11901 20.6925C4.32738 20.4955 4.44444 20.2285 4.44444 19.95V18.9H15.5556V19.95C15.5556 20.2285 15.6726 20.4955 15.881 20.6925C16.0894 20.8894 16.372 21 16.6667 21C16.9614 21 17.244 20.8894 17.4523 20.6925C17.6607 20.4955 17.7778 20.2285 17.7778 19.95V18.711C18.4262 18.4944 18.9878 18.0935 19.3856 17.5634C19.7835 17.0333 19.9981 16.3999 20 15.75V3.15C20 2.31457 19.6488 1.51335 19.0237 0.922614C18.3986 0.331874 17.5507 0 16.6667 0ZM2.22222 6.3H8.88889V10.5H2.22222V6.3ZM17.7778 15.75C17.7778 16.0285 17.6607 16.2955 17.4523 16.4925C17.244 16.6894 16.9614 16.8 16.6667 16.8H3.33333C3.03865 16.8 2.75603 16.6894 2.54766 16.4925C2.33929 16.2955 2.22222 16.0285 2.22222 15.75V12.6H17.7778V15.75ZM17.7778 10.5H11.1111V6.3H17.7778V10.5ZM17.7778 4.2H2.22222V3.15C2.22222 2.87152 2.33929 2.60445 2.54766 2.40754C2.75603 2.21062 3.03865 2.1 3.33333 2.1H16.6667C16.9614 2.1 17.244 2.21062 17.4523 2.40754C17.6607 2.60445 17.7778 2.87152 17.7778 3.15V4.2ZM14.0222 15.666C14.1558 15.7198 14.2992 15.7483 14.4444 15.75C14.7391 15.75 15.0217 15.6394 15.2301 15.4425C15.4385 15.2455 15.5556 14.9785 15.5556 14.7C15.561 14.6301 15.561 14.5599 15.5556 14.49C15.5434 14.4242 15.5209 14.3605 15.4889 14.301C15.4646 14.2341 15.4309 14.1705 15.3889 14.112C15.3479 14.057 15.3033 14.0044 15.2556 13.9545L15.0889 13.8285C15.027 13.7888 14.9597 13.757 14.8889 13.734C14.8204 13.6943 14.7452 13.6659 14.6667 13.65C14.4865 13.6144 14.2997 13.6217 14.1232 13.6712C13.9468 13.7206 13.786 13.8108 13.6556 13.9335C13.6078 13.9834 13.5632 14.036 13.5222 14.091C13.4802 14.1495 13.4465 14.2131 13.4222 14.28C13.3902 14.3395 13.3677 14.4032 13.3556 14.469C13.3501 14.5389 13.3501 14.6091 13.3556 14.679C13.3568 14.9545 13.4725 15.2184 13.6778 15.414C13.7739 15.5187 13.8909 15.6043 14.0222 15.666ZM5.13333 15.666C5.26691 15.7198 5.41036 15.7483 5.55556 15.75C5.85024 15.75 6.13286 15.6394 6.34123 15.4425C6.5496 15.2455 6.66667 14.9785 6.66667 14.7C6.67212 14.6301 6.67212 14.5599 6.66667 14.49C6.65451 14.4242 6.63204 14.3605 6.6 14.301C6.57568 14.2341 6.54205 14.1705 6.5 14.112C6.45898 14.057 6.41445 14.0044 6.36667 13.9545L6.2 13.8285L6 13.734L5.77778 13.65C5.59758 13.6144 5.41085 13.6217 5.23436 13.6712C5.05787 13.7206 4.89716 13.8108 4.76667 13.9335C4.71888 13.9834 4.67436 14.036 4.63333 14.091C4.59128 14.1495 4.55765 14.2131 4.53333 14.28C4.5013 14.3395 4.47883 14.4032 4.46667 14.469C4.46121 14.5389 4.46121 14.6091 4.46667 14.679C4.46789 14.9545 4.58362 15.2184 4.78889 15.414C4.88498 15.5187 5.00205 15.6043 5.13333 15.666Z"
          fill="#626262"/>
</svg>
