<svg width="100" height="101" viewBox="0 0 100 101" fill="none" xmlns="http://www.w3.org/2000/svg">
<circle cx="49.8667" cy="50.4" r="47.3" fill="white" stroke="url(#paint0_linear_0_1)" stroke-width="5.13333"/>
<path d="M49.5 42.375C48.4954 42.375 47.5006 42.5738 46.5725 42.9602C45.6443 43.3465 44.801 43.9128 44.0906 44.6266C43.3803 45.3405 42.8168 46.1879 42.4323 47.1206C42.0479 48.0533 41.85 49.053 41.85 50.0625C41.85 51.072 42.0479 52.0717 42.4323 53.0044C42.8168 53.9371 43.3803 54.7845 44.0906 55.4984C44.801 56.2122 45.6443 56.7785 46.5725 57.1648C47.5006 57.5512 48.4954 57.75 49.5 57.75C51.5289 57.75 53.4747 56.9401 54.9094 55.4984C56.344 54.0567 57.15 52.1014 57.15 50.0625C57.15 48.0236 56.344 46.0683 54.9094 44.6266C53.4747 43.1849 51.5289 42.375 49.5 42.375ZM69.9 34.6875H63.78C63.3395 34.6673 62.9145 34.5183 62.5571 34.2589C62.1997 33.9994 61.9255 33.6407 61.768 33.2269L60.1845 28.4581C60.0259 28.0447 59.751 27.6866 59.3932 27.4277C59.0355 27.1688 58.6104 27.0201 58.17 27H40.83C39.9885 27 39.0807 27.656 38.818 28.4555L37.232 33.2269C37.0742 33.6406 36.7999 33.9991 36.4426 34.2585C36.0852 34.5179 35.6604 34.667 35.22 34.6875H29.1C26.295 34.6875 24 36.9937 24 39.8125V62.875C24 65.6937 26.295 68 29.1 68H69.9C72.705 68 75 65.6937 75 62.875V39.8125C75 36.9937 72.705 34.6875 69.9 34.6875ZM49.5 62.875C46.1185 62.875 42.8755 61.5251 40.4844 59.1223C38.0933 56.7195 36.75 53.4606 36.75 50.0625C36.75 46.6644 38.0933 43.4055 40.4844 41.0027C42.8755 38.5999 46.1185 37.25 49.5 37.25C52.8815 37.25 56.1245 38.5999 58.5156 41.0027C60.9067 43.4055 62.25 46.6644 62.25 50.0625C62.25 53.4606 60.9067 56.7195 58.5156 59.1223C56.1245 61.5251 52.8815 62.875 49.5 62.875ZM68.625 42.8875C68.1516 42.8875 67.6976 42.6985 67.3628 42.3621C67.0281 42.0257 66.84 41.5695 66.84 41.0938C66.84 40.618 67.0281 40.1618 67.3628 39.8254C67.6976 39.489 68.1516 39.3 68.625 39.3C69.0984 39.3 69.5524 39.489 69.8872 39.8254C70.2219 40.1618 70.41 40.618 70.41 41.0938C70.41 41.5695 70.2219 42.0257 69.8872 42.3621C69.5524 42.6985 69.0984 42.8875 68.625 42.8875Z" fill="url(#paint1_linear_0_1)"/>
<defs>
<linearGradient id="paint0_linear_0_1" x1="49.8667" y1="0.533325" x2="49.8667" y2="100.267" gradientUnits="userSpaceOnUse">
<stop stop-color="#FD5200"/>
<stop offset="1" stop-color="#F3991F"/>
</linearGradient>
<linearGradient id="paint1_linear_0_1" x1="24" y1="27" x2="66.3021" y2="81.1805" gradientUnits="userSpaceOnUse">
<stop stop-color="#FD5200"/>
<stop offset="1" stop-color="#F3991F"/>
</linearGradient>
</defs>
</svg>
