<svg width="100" height="101" viewBox="0 0 100 101" fill="none" xmlns="http://www.w3.org/2000/svg">
<circle cx="49.8667" cy="50.4" r="47.3" fill="white" stroke="url(#paint0_linear_0_1)" stroke-width="5.13333"/>
<path d="M38.6538 31.8462C38.6538 29.701 39.29 27.604 40.4818 25.8204C41.6735 24.0367 43.3675 22.6465 45.3494 21.8256C47.3312 21.0047 49.512 20.7899 51.616 21.2084C53.7199 21.6269 55.6525 22.6599 57.1694 24.1768C58.6863 25.6936 59.7192 27.6262 60.1377 29.7302C60.5562 31.8341 60.3415 34.0149 59.5205 35.9968C58.6996 37.9787 57.3094 39.6726 55.5258 40.8644C53.7422 42.0562 51.6452 42.6923 49.5 42.6923C46.6234 42.6923 43.8647 41.5496 41.8306 39.5155C39.7966 37.4815 38.6538 34.7227 38.6538 31.8462ZM67.5769 68H31.4231C29.9848 68 28.6054 67.4286 27.5884 66.4116C26.5714 65.3946 26 64.0152 26 62.5769C26 58.2621 27.7141 54.1239 30.7651 51.0728C33.8162 48.0218 37.9544 46.3077 42.2692 46.3077H56.7308C61.0456 46.3077 65.1838 48.0218 68.2349 51.0728C71.2859 54.1239 73 58.2621 73 62.5769C73 64.0152 72.4286 65.3946 71.4116 66.4116C70.3946 67.4286 69.0152 68 67.5769 68Z" fill="url(#paint1_linear_0_1)"/>
<defs>
<linearGradient id="paint0_linear_0_1" x1="49.8667" y1="0.533325" x2="49.8667" y2="100.267" gradientUnits="userSpaceOnUse">
<stop stop-color="#FD5200"/>
<stop offset="1" stop-color="#F3991F"/>
</linearGradient>
<linearGradient id="paint1_linear_0_1" x1="26" y1="21" x2="75.964" y2="72.4459" gradientUnits="userSpaceOnUse">
<stop stop-color="#FD5200"/>
<stop offset="1" stop-color="#F3991F"/>
</linearGradient>
</defs>
</svg>
