<svg width="100" height="101" viewBox="0 0 100 101" fill="none" xmlns="http://www.w3.org/2000/svg">
<circle cx="49.8667" cy="50.4" r="47.3" fill="white" stroke="url(#paint0_linear_0_1)" stroke-width="5.13333"/>
<path d="M58.6881 53.535C56.7059 53.535 54.562 55.324 55.9386 58.3155C56.0208 58.4968 56.1326 58.6645 56.2699 58.8122C56.5704 59.1262 56.9343 59.3787 57.3396 59.5546C57.745 59.7305 58.1835 59.8262 58.6286 59.8358C59.0737 59.8455 59.5162 59.7689 59.9295 59.6107C60.3428 59.4526 60.7183 59.2161 61.0334 58.9155C61.648 58.319 61.9925 57.5154 61.9925 56.6783C61.9925 55.8412 61.648 55.0377 61.0334 54.4411C60.4038 53.8604 59.5631 53.5356 58.6881 53.535ZM43.6347 42.2883C44.101 41.8487 44.4194 41.2861 44.549 40.6724C44.6786 40.0588 44.6135 39.4222 44.362 38.8442C44.1105 38.2661 43.6841 37.773 43.1375 37.428C42.5909 37.0831 41.9489 36.9019 41.2938 36.9079C40.8639 36.9057 40.4378 36.9847 40.04 37.1403C39.6421 37.2959 39.2803 37.5251 38.9753 37.8146C38.3604 38.4111 38.0157 39.2148 38.0157 40.0521C38.0157 40.8894 38.3604 41.6931 38.9753 42.2896C39.5937 42.8792 40.4317 43.2102 41.3053 43.21C42.1788 43.2097 43.0166 42.8783 43.6347 42.2883Z" fill="url(#paint1_linear_0_1)"/>
<path d="M46.2843 21.2412C41.5357 21.8369 37.0273 23.5899 33.1926 26.3317C29.3579 29.0735 26.3258 32.7119 24.3878 36.8971C22.4498 41.0823 21.6711 45.6735 22.1265 50.2294C22.582 54.7853 24.2563 59.1526 26.9885 62.9114C27.6948 63.9337 28.0094 65.1578 27.8792 66.3764L27.0262 74.5534C27.0036 74.7706 27.0378 74.9898 27.1258 75.1912C27.2139 75.3926 27.3529 75.5699 27.5305 75.7071C27.7081 75.8444 27.9186 75.9373 28.1431 75.9775C28.3676 76.0177 28.599 76.0039 28.8165 75.9374L37.9165 73.142C39.0018 72.8067 40.1674 72.7894 41.2631 73.0925C44.9799 74.3078 48.9315 74.725 52.8363 74.3145C56.5303 73.959 60.1133 72.9041 63.3762 71.2114C66.6391 69.5187 69.5167 67.2222 71.8411 64.4557C74.1654 61.6892 75.8901 58.5081 76.9145 55.098C77.9388 51.6879 78.2424 48.117 77.8074 44.5936C77.3724 41.0703 76.2077 37.6649 74.381 34.5762C72.5544 31.4875 70.1024 28.7772 67.1682 26.6035C64.2339 24.4298 60.8761 22.8361 57.2906 21.9155C53.705 20.9948 49.9635 20.7656 46.2843 21.2412ZM36.2457 35.1995C37.6146 33.9669 39.4244 33.2804 41.3053 33.2804C43.1862 33.2804 44.996 33.9669 46.3649 35.1995C47.7062 36.4888 48.4591 38.2329 48.4591 40.0508C48.4591 41.8688 47.7062 43.6129 46.3649 44.9022C45.0156 46.1712 43.1956 46.8785 41.3025 46.8698C39.4093 46.8611 37.5966 46.1369 36.2602 44.8555C34.9237 43.5741 34.1721 41.8395 34.1694 40.0304C34.1667 38.2212 34.9131 36.4846 36.2457 35.1995ZM38.7816 61.6613C38.4191 62.007 37.9279 62.2011 37.4158 62.2011C36.9037 62.2011 36.4126 62.007 36.0501 61.6613C35.8704 61.4899 35.7278 61.2863 35.6305 61.0621C35.5332 60.838 35.4831 60.5977 35.4831 60.355C35.4831 60.1123 35.5332 59.8721 35.6305 59.6479C35.7278 59.4238 35.8704 59.2201 36.0501 59.0487L61.2073 35.0077C61.5682 34.6627 62.0574 34.4682 62.5678 34.4668C63.0783 34.4653 63.5687 34.6569 63.9318 34.9997L63.9452 35.0119C64.1266 35.1831 64.2707 35.3869 64.3692 35.6115C64.4678 35.8361 64.5189 36.0771 64.5196 36.3207C64.5204 36.5643 64.4707 36.8056 64.3734 37.0307C64.2761 37.2558 64.1332 37.4604 63.9529 37.6325L38.7816 61.6613ZM63.7649 61.5214C62.7621 62.477 61.4853 63.1272 60.096 63.3898C58.7066 63.6525 57.267 63.5157 55.9589 62.997C54.6508 62.4782 53.533 61.6006 52.7466 60.475C51.9601 59.3495 51.5404 58.0265 51.5404 56.6731C51.5404 55.3198 51.9601 53.9968 52.7466 52.8712C53.533 51.7457 54.6508 50.8681 55.9589 50.3493C57.267 49.8305 58.7066 49.6938 60.096 49.9564C61.4853 50.219 62.7621 50.8692 63.7649 51.8248C64.4329 52.4606 64.9629 53.2162 65.3245 54.0482C65.6861 54.8802 65.8723 55.7722 65.8723 56.6731C65.8723 57.574 65.6861 58.4661 65.3245 59.2981C64.9629 60.1301 64.4329 60.8856 63.7649 61.5214Z" fill="url(#paint2_linear_0_1)"/>
<defs>
<linearGradient id="paint0_linear_0_1" x1="49.8667" y1="0.533325" x2="49.8667" y2="100.267" gradientUnits="userSpaceOnUse">
<stop stop-color="#FD5200"/>
<stop offset="1" stop-color="#F3991F"/>
</linearGradient>
<linearGradient id="paint1_linear_0_1" x1="22" y1="21" x2="80.4282" y2="82.2551" gradientUnits="userSpaceOnUse">
<stop stop-color="#FD5200"/>
<stop offset="1" stop-color="#F3991F"/>
</linearGradient>
<linearGradient id="paint2_linear_0_1" x1="22" y1="21" x2="80.4282" y2="82.2551" gradientUnits="userSpaceOnUse">
<stop stop-color="#FD5200"/>
<stop offset="1" stop-color="#F3991F"/>
</linearGradient>
</defs>
</svg>
