<svg width="100" height="101" viewBox="0 0 100 101" fill="none" xmlns="http://www.w3.org/2000/svg">
<circle cx="49.8667" cy="50.4" r="47.3" fill="white" stroke="url(#paint0_linear_0_1)" stroke-width="5.13333"/>
<path d="M47.0038 69.4938C47.0038 71.1965 47.6897 72.1073 48.2409 72.8391C48.7329 73.492 49.1215 74.0079 49.1215 75.1164C49.1215 75.3508 49.2139 75.5755 49.3786 75.7412C49.5432 75.9069 49.7665 76 49.9993 76C50.2322 76 50.4555 75.9069 50.6201 75.7412C50.7847 75.5755 50.8772 75.3508 50.8772 75.1164C50.8772 73.4137 50.1913 72.5032 49.64 71.7715C49.1481 71.1185 48.7595 70.6027 48.7595 69.4943C48.7595 68.386 49.1481 67.8701 49.6401 67.217C50.1915 66.4855 50.8775 65.5748 50.8775 63.8723C50.8775 62.1697 50.1914 61.2593 49.6402 60.5277C49.1482 59.8748 48.7598 59.3591 48.7598 58.2509C48.7598 57.1426 49.1482 56.6086 49.6402 55.9556C50.1914 55.224 50.8775 54.3598 50.8775 52.5926H49.1217C49.1217 53.6971 48.7331 54.2349 48.2411 54.8878C47.6899 55.6194 47.004 56.5392 47.004 58.2417C47.004 59.9442 47.6899 60.8593 48.2411 61.5908C48.7331 62.2438 49.1217 62.7616 49.1217 63.87C49.1217 64.9783 48.7331 65.4953 48.2411 66.1483C47.6899 66.88 47.0038 67.7911 47.0038 69.4938ZM61.648 67.1844C61.648 68.7316 62.2691 69.5562 62.7681 70.2187C63.2113 70.8069 63.5315 71.2321 63.5315 72.1847C63.5315 72.419 63.624 72.6437 63.7886 72.8094C63.9533 72.9752 64.1766 73.0682 64.4094 73.0682C64.6422 73.0682 64.8655 72.9752 65.0302 72.8094C65.1948 72.6437 65.2873 72.419 65.2873 72.1847C65.2873 70.6374 64.6662 69.8131 64.1671 69.1506C63.724 68.5624 63.4038 68.1373 63.4038 67.1846C63.4038 66.232 63.724 65.8067 64.1671 65.2186C64.6662 64.556 65.2873 63.7318 65.2873 62.1846C65.2873 60.6374 64.6662 59.8133 64.1671 59.1509C63.724 58.5628 63.4038 58.1378 63.4038 57.1849C63.4038 56.2321 63.724 55.7901 64.1671 55.2018C64.6662 54.5391 65.2873 53.6971 65.2873 52.1508H63.5315C63.5315 53.1448 63.2113 53.5457 62.7681 54.134C62.2691 54.7967 61.648 55.6294 61.648 57.1764C61.648 58.7235 62.2691 59.5521 62.7681 60.2144C63.2113 60.8026 63.5315 61.2297 63.5315 62.1825C63.5315 63.1354 63.2113 63.5616 62.7681 64.1498C62.2691 64.8123 61.648 65.6371 61.648 67.1844ZM41.493 44.0438C39.5726 41.0396 38.4766 37.3451 38.4766 33.8308C38.4766 31.4001 39.0284 29.1266 40.062 27.1969C38.7211 26.3551 37.1701 25.9141 35.5897 25.9255C30.6125 25.9255 27 29.9356 27 35.4606C27 38.3514 27.9796 41.5243 29.6206 43.9484C31.3192 46.4576 33.4394 47.8394 35.5903 47.8394C37.6951 47.8393 39.8258 46.4627 41.493 44.0438ZM33.98 49.4271L33.4991 51.2672H37.6801L37.1981 49.4256C36.6712 49.5518 36.1312 49.6143 35.5895 49.6119C35.0477 49.6137 34.5075 49.5517 33.98 49.4271ZM51.8824 49.4037C50.6453 49.708 49.3534 49.707 48.1167 49.401L47.5085 51.709H52.4906L51.8824 49.4037Z" fill="url(#paint1_linear_0_1)"/>
<path d="M49.9996 47.8588C52.4549 47.8588 54.8704 46.288 56.8012 43.4359C58.6582 40.6929 59.7668 37.1022 59.7668 33.8307C59.7668 27.5549 55.659 23 49.9996 23C44.3401 23 40.2324 27.5549 40.2324 33.8307C40.2324 37.1022 41.3407 40.6929 43.1979 43.4359C45.1287 46.288 47.5442 47.8588 49.9996 47.8588Z" fill="url(#paint2_linear_0_1)"/>
<path d="M64.4094 25.9253C62.829 25.914 61.2779 26.355 59.937 27.1968C60.9707 29.1265 61.5226 31.4001 61.5226 33.8307C61.5226 37.3451 60.4268 41.0401 58.5059 44.0442C60.1731 46.4635 62.3018 47.8393 64.4097 47.8393C66.5606 47.8393 68.6802 46.4575 70.3794 43.9483C72.0204 41.5243 73 38.3513 73 35.4605C72.9991 29.9355 69.3866 25.9253 64.4094 25.9253ZM64.4094 49.6119C63.8676 49.6135 63.3276 49.5502 62.8007 49.4232L62.3188 51.2672H66.4998L66.0189 49.4299C65.4913 49.5535 64.9511 49.6146 64.4094 49.6119ZM35.5897 73.0687C35.705 73.0687 35.8192 73.0458 35.9257 73.0014C36.0322 72.957 36.129 72.8919 36.2105 72.8099C36.292 72.7278 36.3567 72.6304 36.4008 72.5232C36.4449 72.416 36.4676 72.3011 36.4676 72.1851C36.4676 70.6378 35.8466 69.8135 35.3475 69.1511C34.9043 68.5628 34.5841 68.1377 34.5841 67.1851C34.5841 66.2325 34.9043 65.8071 35.3475 65.2191C35.8466 64.5564 36.4676 63.7322 36.4676 62.1851C36.4676 60.6379 35.8465 59.8137 35.3475 59.1514C34.9043 58.5632 34.5841 58.1382 34.5841 57.1854C34.5841 56.2325 34.9043 55.7905 35.3475 55.2023C35.8465 54.5396 36.4676 53.6975 36.4676 52.1512H34.7118C34.7118 53.1453 34.3916 53.5462 33.9485 54.1344C33.4494 54.7971 32.8283 55.6297 32.8283 57.1769C32.8283 58.724 33.4494 59.5525 33.9485 60.2149C34.3916 60.803 34.7118 61.2301 34.7118 62.183C34.7118 63.1358 34.3916 63.562 33.9485 64.1503C33.4494 64.813 32.8283 65.6376 32.8283 67.1849C32.8283 68.7321 33.4494 69.5566 33.9485 70.2191C34.3916 70.8074 34.7118 71.2326 34.7118 72.1851C34.7118 72.4194 34.8043 72.6442 34.969 72.8099C35.1336 72.9756 35.3569 73.0687 35.5897 73.0687Z" fill="url(#paint3_linear_0_1)"/>
<defs>
<linearGradient id="paint0_linear_0_1" x1="49.8667" y1="0.533325" x2="49.8667" y2="100.267" gradientUnits="userSpaceOnUse">
<stop stop-color="#FD5200"/>
<stop offset="1" stop-color="#F3991F"/>
</linearGradient>
<linearGradient id="paint1_linear_0_1" x1="27" y1="23" x2="83.0121" y2="73.0562" gradientUnits="userSpaceOnUse">
<stop stop-color="#FD5200"/>
<stop offset="1" stop-color="#F3991F"/>
</linearGradient>
<linearGradient id="paint2_linear_0_1" x1="27" y1="23" x2="83.0121" y2="73.0562" gradientUnits="userSpaceOnUse">
<stop stop-color="#FD5200"/>
<stop offset="1" stop-color="#F3991F"/>
</linearGradient>
<linearGradient id="paint3_linear_0_1" x1="27" y1="23" x2="83.0121" y2="73.0562" gradientUnits="userSpaceOnUse">
<stop stop-color="#FD5200"/>
<stop offset="1" stop-color="#F3991F"/>
</linearGradient>
</defs>
</svg>
