<svg width="100" height="101" viewBox="0 0 100 101" fill="none" xmlns="http://www.w3.org/2000/svg">
<circle cx="49.8667" cy="50.4" r="47.3" fill="white" stroke="url(#paint0_linear_0_1)" stroke-width="5.13333"/>
<path fill-rule="evenodd" clip-rule="evenodd" d="M39.1747 36.6029L33.5243 33.7275C33.1611 33.5445 32.846 33.276 32.6053 32.9443C32.3645 32.6126 32.205 32.2272 32.14 31.8202C32.0751 31.4132 32.1065 30.9962 32.2317 30.6041C32.3569 30.2119 32.5722 29.8557 32.8599 29.5652L40.5266 21.7658C40.8127 21.4743 41.1628 21.2562 41.5481 21.1295C41.9334 21.0028 42.3428 20.9712 42.7425 21.0372C43.1423 21.1032 43.5208 21.265 43.8469 21.5093C44.173 21.7535 44.4373 22.0731 44.618 22.4418L50 33.3895L55.382 22.4418C55.5619 22.0723 55.8258 21.7517 56.1519 21.5068C56.478 21.2619 56.8568 21.0996 57.2569 21.0335C57.657 20.9674 58.0668 20.9994 58.4523 21.1267C58.8378 21.2541 59.1879 21.4732 59.4734 21.7658L67.1401 29.5652C67.4267 29.8563 67.6411 30.2125 67.7656 30.6045C67.8902 30.9965 67.9213 31.413 67.8564 31.8196C67.7915 32.2262 67.6324 32.6113 67.3923 32.943C67.1522 33.2748 66.838 33.5437 66.4757 33.7275L60.8253 36.6029H70.4444C71.1222 36.6029 71.7722 36.8768 72.2515 37.3643C72.7308 37.8519 73 38.5132 73 39.2027V49.6018C73 50.2914 72.7308 50.9526 72.2515 51.4402C71.7722 51.9277 71.1222 52.2016 70.4444 52.2016V70.4002C70.4444 71.0897 70.1752 71.751 69.6959 72.2385C69.2167 72.7261 68.5667 73 67.8889 73H32.1111C31.4333 73 30.7833 72.7261 30.3041 72.2385C29.8248 71.751 29.5556 71.0897 29.5556 70.4002V52.2016C28.8778 52.2016 28.2278 51.9277 27.7485 51.4402C27.2692 50.9526 27 50.2914 27 49.6018V39.2027C27 38.5132 27.2692 37.8519 27.7485 37.3643C28.2278 36.8768 28.8778 36.6029 29.5556 36.6029H39.1747ZM47.4444 52.2016H34.6667V67.8004H47.4444V52.2016ZM52.5556 52.2016V67.8004H65.3333V52.2016H52.5556ZM47.4444 41.8025H32.1111V47.0021H47.4444V41.8025ZM52.5556 41.8025V47.0021H67.8889V41.8025H52.5556ZM38.9804 30.6909L44.2858 33.3895L41.6331 27.9924L38.9804 30.6909ZM55.7142 33.3895L61.0196 30.6909L58.3669 27.9924L55.7142 33.3895Z" fill="url(#paint1_linear_0_1)"/>
<defs>
<linearGradient id="paint0_linear_0_1" x1="49.8667" y1="0.533325" x2="49.8667" y2="100.267" gradientUnits="userSpaceOnUse">
<stop stop-color="#FD5200"/>
<stop offset="1" stop-color="#F3991F"/>
</linearGradient>
<linearGradient id="paint1_linear_0_1" x1="27" y1="21" x2="82.0627" y2="71.1541" gradientUnits="userSpaceOnUse">
<stop stop-color="#FD5200"/>
<stop offset="1" stop-color="#F3991F"/>
</linearGradient>
</defs>
</svg>
