<svg width="172" height="40" viewBox="0 0 172 40" fill="none" xmlns="http://www.w3.org/2000/svg">
<path d="M90.4719 7.11202C89.9864 7.04361 89.8761 7.28633 89.8629 7.72983C89.8474 8.28807 90.1519 8.36751 90.5226 8.34324C91.061 8.3653 91.5994 8.23071 91.5928 7.74969C91.5839 7.1407 90.9396 7.17821 90.4719 7.11202Z" fill="white"/>
<path d="M90.1809 6.45461C90.6266 6.26044 91.4585 6.69732 91.5048 5.8743C91.5335 5.35136 90.9752 5.2962 90.5339 5.26972C90.1147 5.24545 89.8168 5.35357 89.8941 5.91843C89.958 6.08612 89.8212 6.61127 90.1809 6.45461Z" fill="white"/>
<path d="M97.3304 6.9886C96.9597 7.03493 96.353 6.78781 96.4854 7.57111C96.417 8.01903 96.5427 8.35 97.0657 8.30587C97.5158 8.26836 98.0674 8.27719 98.1226 7.65496C98.1711 7.13422 97.8137 6.92681 97.3304 6.9886Z" fill="white"/>
<path d="M65.1047 5.3934C64.392 5.41326 63.9728 5.75085 63.9772 6.50547L63.964 6.5496L64.0059 6.56505C63.8426 6.86072 63.8691 7.14756 64.039 7.42999L64.0279 7.47633L64.0677 7.50501C64.0743 7.95293 64.3766 8.1118 64.7495 8.19564C65.7269 8.41188 66.369 7.64402 66.1815 6.49223C66.0822 5.87221 65.8483 5.37134 65.1047 5.3912V5.3934Z" fill="white"/>
<path d="M84.4352 5.66015C83.8505 5.42847 83.2724 5.28725 82.9105 5.99774C82.553 6.70161 82.7516 7.85781 83.2966 8.09611C83.8218 8.3278 84.3822 8.38516 84.786 7.84016C85.2339 7.23779 85.1368 6.27135 84.6051 5.78813C84.5499 5.744 84.4925 5.70207 84.4374 5.65794L84.4352 5.66015Z" fill="white"/>
<path d="M124.088 5.67122C123.429 6.29565 123.36 7.52467 123.991 7.96817C124.503 8.32783 125.057 8.41168 125.536 7.89757C126.004 7.39449 125.973 6.18533 125.481 5.70211C125.039 5.26743 124.563 5.25198 124.09 5.67122H124.088Z" fill="white"/>
<path d="M42.6709 1.95996V10.6491H69.7975C69.7313 8.81994 69.8438 6.44134 69.7688 4.86811C69.7997 4.76 69.8306 4.65188 69.8615 4.54376C70.2255 4.61878 70.6668 4.2856 70.9537 4.82398C71.0993 5.09759 71.342 4.79971 71.5185 4.7269C72.571 4.2856 73.5264 4.38931 74.0383 5.01595C74.665 5.78381 74.7157 7.4806 74.1376 8.38305C73.6279 9.17739 72.8292 9.44437 71.737 9.0472C71.1633 8.83759 71.1236 9.07368 71.1346 9.49953C71.139 9.67605 71.1478 10.1747 71.1567 10.6535H172V1.95996H42.6709ZM60.4089 5.62935C59.716 5.53006 59.5836 5.89634 59.6234 6.48988C59.6631 7.08563 59.6476 7.68801 59.6278 8.28817C59.6189 8.5684 59.78 8.99425 59.4292 9.08251C59.0541 9.17739 58.5532 9.36935 58.2664 8.83759C58.284 8.1293 58.3083 7.41881 58.3149 6.71053C58.3237 5.55433 58.3171 5.55433 57.1146 5.67789C56.6711 5.35575 56.713 4.96961 56.9623 4.55479C58.0766 4.54155 59.1931 4.55038 60.3074 4.50846C60.8303 4.4886 61.0686 4.69601 61.0885 5.19688C60.987 5.54109 60.7487 5.6779 60.4045 5.62935H60.4089ZM67.5623 6.82527C67.5491 8.33451 66.5981 9.24137 65.0425 9.22814C63.381 9.2149 62.5447 8.44483 62.5381 6.94883C62.5315 5.28514 63.3192 4.57244 65.1925 4.43564C66.7305 4.32311 67.6616 5.67569 67.5601 6.82527H67.5623ZM104.863 2.42112C105.194 2.37037 105.463 2.40126 105.671 2.77416C105.94 3.25958 106.734 3.33681 106.99 2.89331C107.429 2.12986 107.888 2.32624 108.415 2.72341C108.415 2.78077 108.415 2.83594 108.418 2.89331C108.433 3.02349 108.115 3.06982 108.332 3.24855C108.332 3.28165 108.34 3.30813 108.365 3.33019C108.307 3.39859 108.25 3.4692 108.193 3.5376V3.53098C107.255 4.07157 106.273 4.16866 105.243 3.82003C104.892 3.70088 104.618 3.51995 104.539 3.13381C104.556 2.8558 104.415 2.49172 104.863 2.42332V2.42112ZM79.7774 5.53889C79.5038 5.56316 79.2258 5.63597 78.961 5.60067C78.1865 5.49917 77.9438 5.81028 78.149 6.53401C78.0828 7.29966 78.0762 8.06752 78.1468 8.83317C77.8754 9.30978 77.4143 9.16415 77.0436 9.09575C76.6354 9.02073 76.7832 8.6037 76.7788 8.33009C76.7634 7.29084 76.7965 6.24938 76.7744 5.20791C76.7656 4.71366 76.9575 4.49963 77.4452 4.51507C78.213 4.53935 78.9809 4.55479 79.7487 4.57465C79.7642 4.67394 79.7774 4.77103 79.7929 4.87032C79.8348 4.98285 79.8767 5.09538 79.9164 5.20791C79.8701 5.31824 79.8238 5.42635 79.7752 5.53668L79.7774 5.53889ZM83.8727 9.23696C82.07 9.25682 81.3992 8.62576 81.3948 6.89588C81.472 5.15716 82.0104 4.44005 83.9896 4.44226C85.5981 4.44226 86.4432 5.24101 86.4432 6.77231C86.4432 8.27493 85.4591 9.22152 83.8749 9.23917L83.8727 9.23696ZM92.9436 8.02781C92.7273 8.75595 92.1338 9.04941 91.4431 9.12443C90.8694 9.18621 90.2869 9.13326 89.711 9.17518C88.899 9.23255 88.5769 8.90378 88.599 8.07635C88.6277 7.01061 88.7027 5.93605 88.5284 4.87253C88.5416 4.78868 88.5548 4.70263 88.5703 4.61878C89.9361 4.4908 91.3152 4.21279 92.6126 4.94313L92.6523 4.899L92.617 4.94534H92.6126C92.9281 5.62715 92.7383 6.1898 92.0698 6.64654C92.703 6.9731 93.1488 7.33717 92.9436 8.02781ZM98.5789 8.92805C97.4933 9.37597 96.3658 9.23696 95.2449 9.09133L95.2361 9.08692C95.064 7.74758 95.2052 6.40383 95.1633 5.06228C95.1456 4.52831 95.4965 4.52831 95.876 4.51728C96.282 4.50625 96.5379 4.65408 96.4739 5.08435C96.3548 5.88089 96.7365 6.0861 97.4514 6.00666C97.7184 5.97577 98.0074 6.01107 98.27 6.07948C98.932 6.24717 99.4218 6.61565 99.4968 7.34821C99.5718 8.08518 99.2718 8.64783 98.5811 8.93247L98.5789 8.92805ZM101.505 9.10678C101.258 9.11781 101.01 9.12884 100.763 9.13988C100.355 9.15532 100.176 8.98984 100.181 8.55295C100.198 7.23788 100.181 5.92282 100.179 4.60775C101.505 4.38269 101.531 4.41137 101.54 5.72202C101.547 6.75907 101.578 7.79833 101.597 8.83538C101.567 8.92585 101.533 9.01631 101.503 9.10457L101.505 9.10678ZM108.532 9.07809C108.14 9.19063 107.654 9.3186 107.341 8.83759C107.339 8.77801 107.334 8.71844 107.332 8.65886C107.414 8.27935 107.405 7.89983 107.334 7.52031C107.423 7.23126 107.389 6.94883 107.303 6.48106L106.491 7.55341L106.476 7.58209C106.421 7.66373 106.366 7.74317 106.31 7.82481C106.114 7.93513 105.997 8.10945 105.902 8.30582C105.847 8.37423 105.792 8.44263 105.737 8.51103L105.699 8.54633C105.49 8.75153 105.28 8.95453 105.073 9.15973H105L104.934 9.18401C104.245 9.23034 103.98 8.95674 104.027 8.2286C104.104 7.00399 104.073 5.77498 104.089 4.54597L104.1 4.53714C104.937 4.49448 105.359 4.90121 105.366 5.75733C105.368 6.1545 105.366 6.55387 105.366 7.05695C105.834 6.68847 106.187 6.34425 106.377 5.85441C106.412 5.81249 106.436 5.76395 106.452 5.7132C106.652 5.53668 106.913 5.39546 107.043 5.17923C107.447 4.50625 108.027 4.40916 108.718 4.57244C108.729 5.80808 108.751 7.04151 108.744 8.27714C108.744 8.55516 108.896 8.97439 108.532 9.07809ZM120.364 9.05382C119.964 9.19945 119.375 9.38921 119.064 8.77139C118.868 8.38084 118.7 7.97485 118.477 7.59975C118.318 7.33056 118.073 7.15845 117.72 7.27319C117.38 7.38572 117.504 7.67256 117.484 7.89762C117.462 8.14254 117.462 8.39188 117.475 8.6368C117.5 9.12443 117.182 9.14429 116.824 9.14208C116.474 9.14208 116.145 9.13767 116.147 8.65445C116.151 8.02339 116.147 7.39454 116.147 6.76349H116.154C116.154 6.18759 116.147 5.61391 116.156 5.03801C116.162 4.70925 116.253 4.64085 116.668 4.56362C117.665 4.37827 117.449 4.99388 117.475 5.49696C117.493 5.84559 117.372 6.34205 117.742 6.45017C118.153 6.56711 118.336 6.05741 118.554 5.76836C118.731 5.53227 118.83 5.23439 118.943 4.95637C119.205 4.30325 119.797 4.42461 120.2 4.58348C120.642 4.75779 120.238 5.15054 120.125 5.39988C119.525 6.7326 119.512 6.72598 120.136 7.9903C120.185 8.08959 120.249 8.18447 120.271 8.28817C120.326 8.55074 120.736 8.91261 120.361 9.04941L120.364 9.05382ZM125.723 9.1465L125.661 9.13767L125.608 9.17077C125.253 9.18621 124.896 9.21931 124.54 9.2171C123.636 9.21269 122.806 8.9766 122.429 8.08076C122.041 7.16066 122.034 6.19421 122.641 5.3403C123.243 4.49301 124.108 4.38048 125.063 4.60775C125.939 4.81516 126.912 4.7953 127.177 6.00445C127.466 7.32394 127.038 8.36319 125.721 9.1487L125.723 9.1465ZM135.992 9.15091C135.138 9.2855 134.75 8.96115 134.752 8.06311C134.752 7.42985 134.591 6.79438 134.467 5.93164C133.951 6.86278 133.77 7.65491 133.499 8.40953C133.342 8.84641 133.166 9.16856 132.59 9.16194C132.018 9.15532 131.928 8.78904 131.793 8.39629C131.614 7.87776 131.423 7.36365 131.235 6.84954C131.18 6.69729 131.133 6.51415 130.924 6.52298C130.692 6.53181 130.71 6.73701 130.686 6.88926C130.595 7.48501 130.496 8.08076 130.434 8.67872C130.379 9.22152 129.999 9.13546 129.644 9.13546C129.236 9.13546 129.22 8.87068 129.247 8.57722C129.368 7.2423 129.448 5.90296 129.77 4.59451C131.436 4.37386 131.557 4.44888 132.091 6.01108C132.188 6.29571 132.292 6.57814 132.387 6.86499C132.431 6.99296 132.44 7.15404 132.603 7.18051C132.821 7.21361 132.863 7.03047 132.921 6.87823C133.139 6.28909 133.36 5.69996 133.576 5.10862C133.85 4.36283 134.492 4.53714 135.046 4.53935C135.619 4.53935 135.641 4.97623 135.688 5.4065C135.816 6.54946 135.966 7.68801 136.107 8.82876C136.067 8.93688 136.027 9.0472 135.988 9.15532L135.992 9.15091ZM142.126 9.14429C141.705 9.1487 141.438 9.05603 141.451 8.55736C141.471 7.81598 141.4 7.06798 141.464 6.33322C141.533 5.55212 141.098 5.52785 140.515 5.50138C139.847 5.47048 139.631 5.73968 139.675 6.37073C139.712 6.88926 139.681 7.4144 139.681 7.93734C139.681 8.77581 139.252 9.16562 138.393 9.10678C138.258 7.76744 138.351 6.42369 138.344 5.07994C138.344 4.90342 138.452 4.7269 138.512 4.55038C139.924 4.52831 141.336 4.44226 142.746 4.60775C142.762 5.92502 142.766 7.2445 142.801 8.56178C142.815 9.07368 142.537 9.13988 142.126 9.14429ZM149.679 8.39629C149.672 8.95012 149.35 9.14429 148.836 9.16856C148.265 9.19283 148.324 8.78904 148.318 8.44263C148.304 7.70125 148.313 6.95987 148.304 6.22069C148.3 5.89854 148.36 5.53889 147.85 5.51241C147.382 5.48814 147.334 5.76395 147.285 6.12802C147.192 6.80541 147.04 7.47618 146.742 8.10062C146.466 8.67651 146.058 9.10016 145.376 9.1487C145.171 9.16415 144.902 9.27006 144.8 8.99204C144.706 8.73609 144.637 8.35437 144.884 8.2286C145.941 7.69683 145.86 6.6642 146.069 5.75512C146.113 5.56757 146.14 5.37781 146.168 5.18805C146.235 4.73793 146.299 4.41137 146.939 4.64967C147.623 4.90342 148.36 4.51508 149.101 4.6585C149.591 4.75338 149.679 4.96299 149.679 5.35354C149.679 5.87427 149.679 6.39721 149.679 6.91794H149.681C149.681 7.4122 149.686 7.90645 149.681 8.4007L149.679 8.39629ZM155.773 7.15845C155.111 7.143 154.449 7.13638 153.79 7.16286C153.554 7.17169 153.128 7.01061 153.137 7.40337C153.141 7.66374 153.26 8.03663 153.662 8.14475C154.092 8.26169 154.511 8.37643 154.959 8.28155C155.389 8.19109 155.82 8.094 156.265 8.14034L156.257 8.18226L156.298 8.19329C156.259 8.51103 156.327 8.89937 155.899 9.00528C154.816 9.27668 153.723 9.44437 152.711 8.78684C151.731 8.14916 151.806 7.14962 151.93 6.18759C152.075 5.04684 153.112 4.36283 154.434 4.44667C155.742 4.53052 156.418 5.15275 156.504 6.32881C156.543 6.87381 156.36 7.16948 155.771 7.15404L155.773 7.15845ZM163.101 9.13988C162.73 9.15091 162.36 9.15973 161.991 9.17077C161.797 9.10457 161.616 9.02514 161.521 8.82655C161.649 8.43601 161.362 8.15799 161.237 7.84467C161.084 7.46515 160.747 7.17169 160.35 7.27981C159.886 7.40337 160.074 7.84246 160.122 8.18005C160.12 8.28597 160.116 8.39188 160.113 8.49779C160.061 8.71402 160.005 8.93247 159.952 9.1487C159.13 9.14576 158.72 8.73094 158.721 7.90424C158.721 6.80541 158.721 5.70879 158.721 4.60995C159.14 4.46653 159.573 4.53273 160.001 4.54817L160.014 4.5592C160.034 4.96961 160.072 5.38002 160.067 5.79043C160.061 6.36632 160.38 6.34867 160.767 6.18759C161.036 6.07506 161.226 5.82573 161.279 5.56978C161.482 4.59451 162.099 4.36724 162.98 4.54376L162.991 4.55479C162.905 5.28293 162.554 5.8831 162.097 6.43693C162 6.55387 161.665 6.65978 161.934 6.86278C162.556 7.33056 162.704 8.09621 163.147 8.66989C163.134 8.82655 163.119 8.98322 163.105 9.13767L163.101 9.13988ZM168.05 9.1465C167.94 9.15091 167.83 9.14429 167.721 9.16194C166.781 9.32301 165.848 9.29654 165.25 8.45807C164.613 7.56444 164.663 6.55387 165.089 5.55874C165.175 5.35795 165.255 5.15496 165.336 4.95417C166.27 4.51507 167.229 4.29443 168.253 4.58568C168.251 4.58568 168.249 4.58127 168.244 4.57906L168.255 4.58568H168.253C168.58 4.84164 168.761 5.15054 168.582 5.57198C168.425 5.94047 168.138 5.69996 167.944 5.65362C166.49 5.305 166.011 5.81028 166.25 7.34159C166.356 8.02339 166.709 8.16461 167.302 8.1955C167.805 8.22198 168.136 7.77406 168.622 7.80936L168.642 7.82922C168.728 8.39408 168.628 8.8773 168.048 9.14429L168.05 9.1465Z" fill="white"/>
<path d="M154.147 5.25879C153.558 5.25879 153.132 5.68244 153.15 6.14359C153.172 6.70183 153.805 6.39954 154.176 6.51428C154.498 6.35983 155.12 6.78347 155.145 6.1127C155.167 5.53901 154.714 5.261 154.147 5.25879Z" fill="white"/>
<path d="M71.1963 7.16733C71.1897 7.8359 71.5559 8.30367 72.1826 8.29264C72.7695 8.28161 73.0983 7.82486 72.9857 7.17836L72.8313 6.52083C73.2858 6.19427 72.999 5.9008 72.7563 5.65809C72.5025 5.40655 72.1715 5.3889 71.8516 5.56101C71.4611 5.76842 71.0705 5.98465 71.1963 6.53848C71.1124 6.7481 71.1235 6.95771 71.1985 7.16733H71.1963Z" fill="white"/>
<path d="M171.993 19.8386C171.993 19.2848 171.81 19.0443 171.227 19.0509C169.465 19.0774 167.699 19.073 165.936 19.0619C165.431 19.0575 165.113 19.2164 165.193 19.768C165.358 20.9022 164.857 21.7825 164.204 22.6409C163.688 23.3183 163.24 24.0486 162.755 24.7503C162.263 25.4564 161.762 26.1536 161.263 26.8553C161.184 26.8332 161.102 26.8089 161.022 26.7869C160.983 26.4537 160.91 26.1205 160.908 25.7873C160.895 23.8037 160.886 21.8179 160.906 19.8342C160.912 19.2694 160.72 19.0465 160.142 19.0531C158.461 19.0774 156.779 19.0774 155.098 19.0531C154.518 19.0443 154.324 19.2848 154.324 19.8386C154.328 26.0411 154.326 32.2435 154.304 38.4437C154.302 39.1079 154.564 39.2955 155.186 39.2844C156.839 39.2579 158.494 39.2469 160.147 39.291C160.868 39.3109 161.177 39.0836 161.084 38.3489C160.958 37.3449 161.223 36.4888 161.881 35.6768C162.816 34.525 163.635 33.2762 164.511 32.0758C164.729 31.7757 164.985 31.5021 165.338 31.0785C165.4 31.4668 165.46 31.6698 165.462 31.8728C165.484 34.0484 165.51 36.2262 165.504 38.4018C165.502 39.0174 165.667 39.2955 166.347 39.2778C167.973 39.2381 169.599 39.2557 171.225 39.2822C171.79 39.291 171.998 39.1013 171.998 38.521C171.982 32.2921 171.984 26.0631 171.993 19.832V19.8386Z" fill="white"/>
<path d="M74.634 29.0974H74.6274C74.6274 26.037 74.6119 22.9766 74.6406 19.9184C74.6472 19.2741 74.4553 19.0336 73.8021 19.0447C72.2311 19.0733 70.6579 19.0976 69.0891 19.0336C68.2374 19.0005 67.9836 19.3116 68.0057 20.1236C68.052 21.8314 68.0079 23.5415 68.041 25.2515C68.0542 25.9642 67.8005 26.2643 67.0723 26.1937C66.609 26.1473 66.1324 26.154 65.669 26.2003C64.9607 26.2687 64.6739 26.0172 64.6893 25.278C64.7246 23.4863 64.6695 21.6946 64.7092 19.903C64.7246 19.2366 64.4841 19.0336 63.8531 19.0447C62.1717 19.0711 60.4904 19.0689 58.809 19.0491C58.2023 19.0424 58.0037 19.2697 58.0059 19.8809C58.0257 26.0569 58.0279 32.2306 58.0103 38.4066C58.0103 39.0046 58.1802 39.2649 58.798 39.2561C60.4794 39.2362 62.1607 39.2318 63.842 39.2561C64.5415 39.2671 64.7202 38.967 64.707 38.3073C64.6673 36.3788 64.6871 34.4482 64.6893 32.5175C64.6915 31.1561 64.6982 31.1539 66.0176 31.1406C66.3486 31.1362 66.6818 31.1693 67.0084 31.134C67.8203 31.0435 68.0542 31.4142 68.0388 32.1865C67.9991 34.254 68.0277 36.3215 68.0123 38.3889C68.0079 38.9913 68.1888 39.2804 68.8684 39.2605C70.5211 39.212 72.1759 39.2142 73.8308 39.2407C74.4332 39.2495 74.6494 39.0707 74.645 38.4419C74.6185 35.3263 74.6318 32.213 74.6318 29.0974H74.634Z" fill="white"/>
<path d="M126.612 33.7947C126.61 29.1368 126.601 24.4812 126.617 19.8233C126.617 19.2474 126.409 19.0422 125.849 19.0488C124.168 19.0686 122.486 19.073 120.807 19.0488C120.229 19.0399 120.026 19.2716 120.033 19.8277C120.048 21.178 120.033 22.5284 120.028 23.8788C120.022 26.211 120.022 26.1735 117.714 26.2088C116.853 26.2221 116.617 25.9065 116.637 25.1012C116.679 23.3934 116.608 21.6833 116.666 19.9777C116.692 19.2121 116.388 19.0333 115.708 19.0466C114.192 19.0753 112.676 19.051 111.16 19.062C110.064 19.0708 110.059 19.0841 110.057 20.1719C110.053 24.4701 110.046 28.7684 110.042 33.0688C110.042 34.8318 110.02 36.597 110.064 38.36C110.07 38.6556 110.357 39.194 110.529 39.2006C112.533 39.2602 114.536 39.2381 116.657 39.2381C116.657 37.1817 116.657 35.2841 116.657 33.3843C116.657 31.8751 117.42 31.1249 118.947 31.1337C119.964 31.1381 120.017 31.1845 120.019 32.2149C120.028 34.3089 120.035 36.4028 120.019 38.4968C120.015 39.0528 120.209 39.2757 120.792 39.2646C122.444 39.2337 124.099 39.2271 125.752 39.2668C126.46 39.2845 126.652 38.991 126.637 38.3423C126.604 36.8265 126.615 35.3128 126.612 33.7969V33.7947Z" fill="white"/>
<path d="M54.5665 30.803C53.8318 27.7514 53.086 24.702 52.3667 21.6483C52.082 20.4391 51.4223 19.5984 50.2926 19.0446C48.8583 18.3407 47.3557 18.2812 45.8531 18.5305C44.0725 18.824 42.956 19.7948 42.561 21.7189C41.61 26.3547 40.4957 30.9596 39.4455 35.5756C39.1917 36.6899 38.9358 37.8042 38.6533 39.042C40.7848 39.042 42.764 39.0597 44.7388 39.0155C44.9264 39.0111 45.2242 38.6515 45.2684 38.4176C45.809 35.6352 46.3054 32.8462 46.8217 30.0594C46.9983 29.1084 47.1968 28.1618 47.3866 27.213L47.658 27.2241C47.7948 27.9368 47.9426 28.645 48.0662 29.3599C48.5825 32.3696 49.0812 35.3814 49.624 38.3867C49.6681 38.6316 49.9903 39.0067 50.1888 39.0133C52.221 39.0597 54.2554 39.042 56.4553 39.042C56.3847 38.5809 56.3604 38.2587 56.2854 37.9476C55.7183 35.5646 55.1402 33.1838 54.5643 30.803H54.5665Z" fill="white"/>
<path d="M108.02 29.0754H108.014C108.014 26.0701 107.987 23.0627 108.031 20.0596C108.045 19.2432 107.771 19.0093 106.99 19.0402C105.697 19.091 104.397 19.0402 103.102 19.0513C101.257 19.0711 101.496 18.835 101.485 20.6929C101.471 22.6236 101.476 24.5543 101.469 26.4827C101.469 27.0277 101.284 27.5154 100.706 27.5992C100.373 27.6478 99.8739 27.5573 99.6886 27.3322C99.4569 27.052 99.3951 26.571 99.3907 26.1738C99.3642 24.0777 99.3554 21.9815 99.3907 19.8875C99.3995 19.2852 99.2341 19.0314 98.614 19.0402C96.904 19.0645 95.194 19.0645 93.4862 19.0513C92.9345 19.0469 92.7867 19.2918 92.7911 19.8081C92.8176 22.4537 92.811 25.1015 92.8264 27.7493C92.8397 29.9579 94.6732 32.1556 96.8555 32.4358C98.0756 32.5925 99.3311 32.6079 100.558 32.5263C101.346 32.4733 101.516 32.7227 101.502 33.4243C101.471 35.0505 101.511 36.6789 101.482 38.3051C101.471 38.9119 101.674 39.1303 102.292 39.1171C103.89 39.0818 105.492 39.0774 107.089 39.1193C107.808 39.1391 108.045 38.9075 108.036 38.1749C108 35.1432 108.02 32.1093 108.02 29.0754Z" fill="white"/>
<path d="M136.316 25.2074C135.8 25.2228 135.758 25.5383 135.76 25.9267C135.767 27.1667 135.796 28.4068 135.765 29.6468C135.749 30.2889 135.815 30.6883 136.605 30.8361C137.488 31.0016 138.046 31.9945 137.912 32.7867C137.781 33.5391 137.17 33.9693 136.257 33.9495C135.275 33.9296 134.75 33.5391 134.719 32.4976C134.65 30.2426 134.697 27.9831 134.697 25.7259C134.65 25.7259 134.604 25.7259 134.558 25.7259C134.558 23.7422 134.545 21.7564 134.564 19.7728C134.571 19.1726 134.372 18.952 133.744 18.9674C132.23 19.0093 130.712 19.0204 129.198 18.963C128.377 18.9321 128.174 19.2476 128.179 20.0177C128.207 24.2056 128.185 28.3957 128.192 32.5837C128.196 35.9088 130.368 38.8324 133.585 39.651C134.6 39.9092 135.721 39.9335 136.773 39.8364C141.431 39.4017 145.228 36.0192 143.81 30.3176C142.889 26.6173 139.452 25.1147 136.316 25.2029V25.2074Z" fill="white"/>
<path d="M89.5501 26.5289C87.8974 26.5664 86.2426 26.5531 84.5877 26.5355C83.811 26.5266 83.5859 26.1802 84.0625 25.5779C84.4531 25.0858 85.0202 24.6798 85.5894 24.3908C86.8515 23.7487 88.2394 23.6869 89.6273 23.7685C90.2694 23.806 90.5121 23.5722 90.49 22.9168C90.4503 21.7606 90.4592 20.6022 90.4923 19.4438C90.5077 18.8767 90.3224 18.6429 89.7354 18.6605C88.7712 18.6914 87.8047 18.6407 86.8427 18.6671C81.4456 18.815 77.41 22.4204 76.7348 27.727C76.0861 32.846 78.9038 37.4995 83.8066 38.5167C85.7991 38.9293 87.9085 38.8036 89.9649 38.8609C90.1304 38.8653 90.4459 38.3887 90.4569 38.1262C90.5099 36.9435 90.4459 35.7564 90.4923 34.5715C90.5187 33.8853 90.2826 33.6426 89.5964 33.6646C88.6057 33.6955 87.6062 33.7022 86.6243 33.6029C85.1923 33.4572 83.9964 32.3716 83.9147 31.1845C84.2324 31.1603 84.5502 31.1184 84.8679 31.1161C86.4389 31.1051 88.01 31.0764 89.581 31.1161C90.2584 31.1316 90.5276 30.9242 90.4923 30.2291C90.4459 29.3223 90.4503 28.4088 90.4923 27.5019C90.5254 26.7914 90.276 26.5134 89.5457 26.5311L89.5501 26.5289Z" fill="white"/>
<path d="M12.985 19.038C12.0229 19.0954 11.0543 19.038 10.09 19.0645C4.36861 19.2278 0.169662 23.4157 0.0041754 29.115C-0.114975 33.2059 2.3254 36.9304 6.11394 38.475C8.49254 39.4458 10.9881 39.2252 13.4593 39.2119C13.6072 39.2119 13.8742 38.8611 13.8786 38.6669C13.9095 37.2349 13.8786 35.8007 13.8896 34.3665C13.894 33.87 13.616 33.7707 13.2056 33.7663C12.4333 33.7575 11.6611 33.7597 10.891 33.7156C8.7529 33.5898 6.94358 31.754 6.83546 29.6247C6.70528 27.0961 8.0358 25.2824 10.3703 24.9227C11.2617 24.7859 12.1796 24.8036 13.0864 24.7925C13.6601 24.7837 13.9536 24.6072 13.9073 23.9695C13.8609 23.312 13.8962 22.6478 13.8962 21.9859C13.8962 21.3239 13.8631 20.6598 13.9051 20.0022C13.9514 19.3072 13.7374 18.9917 12.9805 19.0358L12.985 19.038Z" fill="white"/>
<path d="M152.073 19.7947C152.078 19.1835 151.883 18.9673 151.268 18.9805C149.67 19.0114 148.071 19.0004 146.473 18.9805C145.906 18.9717 145.703 19.1813 145.705 19.7572C145.721 26.2046 145.721 32.6542 145.703 39.1015C145.703 39.7193 145.908 39.9245 146.513 39.9135C148 39.8848 149.489 39.9047 150.977 39.9003C152.084 39.8959 152.091 39.8914 152.091 38.8103C152.093 35.6969 152.091 32.5836 152.091 29.468H152.06C152.06 26.2443 152.047 23.0206 152.071 19.797L152.073 19.7947Z" fill="white"/>
<path d="M160.533 17.1999C161.279 17.0189 162.044 16.9108 162.799 16.763C164.41 16.4475 166.021 16.1253 167.746 15.7833C167.49 14.8588 167.267 14.0975 167.071 13.3275C166.945 12.8398 166.711 12.7141 166.237 12.9325C164.187 13.8703 162.137 14.8058 160.07 15.7039C159.553 15.9289 159.628 16.2334 159.745 16.6262C159.864 17.0278 159.995 17.33 160.535 17.1977L160.533 17.1999Z" fill="white"/>
<path d="M34.611 21.4828C32.5104 19.6337 29.9597 19.0865 27.2502 19.0755C26.8089 19.0755 26.3654 19.0424 25.9285 19.0799C21.6678 19.4484 18.4992 21.507 16.8069 25.4412C14.7923 30.1278 16.5531 36.6281 23.0247 39.1148C30.7254 42.0737 37.8965 36.6789 37.9208 29.7108C37.9318 26.5092 37.0867 23.6628 34.611 21.4828ZM27.0141 25.439C29.6089 25.4236 31.2439 26.9505 31.2836 29.4261C31.3211 31.8047 29.653 33.4552 27.1641 33.5015C24.6686 33.5457 22.9343 31.9482 22.8968 29.5718C22.8593 27.2417 24.6399 25.4545 27.0141 25.4412V25.439ZM35.7518 29.3776C35.829 34.2517 32.3317 37.7203 27.2458 37.8108C27.1774 37.8108 27.1112 37.8108 27.0428 37.8108C24.5693 37.8108 22.365 36.9922 20.816 35.4962C19.2936 34.0245 18.4683 32.0099 18.4308 29.6711C18.4264 29.4283 18.6206 29.2276 18.8655 29.2231C19.106 29.2276 19.309 29.4151 19.3134 29.6578C19.3465 31.7562 20.0791 33.5567 21.4295 34.8629C22.8703 36.2552 24.8782 36.9701 27.2303 36.9282C31.8706 36.8444 34.9398 33.817 34.8692 29.3908C34.8648 29.1481 35.0589 28.9473 35.3039 28.9429C35.5532 28.9429 35.7474 29.1327 35.7518 29.3776Z" fill="white"/>
<path d="M32.6511 15.1437C32.5937 15.1481 32.5276 15.1614 32.4525 15.1812C32.2716 15.0003 32.0907 14.8194 31.9119 14.6384C31.8987 14.6119 31.8877 14.5833 31.8744 14.5568C31.7443 14.2721 31.6163 13.9875 31.5015 13.6985C31.3736 13.3807 31.2588 13.0586 31.1595 12.7276C31.0227 12.262 30.9036 11.8185 31.2301 11.3927C31.2897 11.3154 31.3427 11.236 31.389 11.1544C31.4795 10.9933 31.5413 10.8278 31.581 10.6601C31.6185 10.4968 31.6361 10.3291 31.6383 10.1592C31.6383 10.1548 31.6383 10.1504 31.6383 10.146C31.6383 9.88344 31.6052 9.61645 31.5545 9.34726C31.5413 9.259 31.4927 9.16191 31.4662 9.06924C31.453 9.0229 31.4442 8.97877 31.4442 8.93685C31.4442 8.89493 31.4596 8.85521 31.4905 8.82211C31.5324 8.77798 31.603 8.74047 31.7222 8.7162C32.0024 8.66104 32.126 8.45363 32.2253 8.22415C32.7195 7.09002 33.4278 6.07945 34.0721 5.03136C34.3744 4.54152 34.6723 4.04065 34.7495 3.46034C34.8091 3.02567 34.6789 2.56892 34.2376 2.45198C33.8978 2.36151 33.4432 2.41226 33.2998 2.90872C33.0659 3.42283 32.821 3.93253 32.5827 4.44223C32.1833 5.29394 31.7994 6.15226 31.4883 7.04368C31.4486 7.25109 31.2765 7.41658 31.1948 7.61075C31.1463 7.72769 31.1286 7.85346 31.1904 8.00351C31.175 8.52865 30.9676 8.74047 30.4402 8.48673C30.3343 8.43598 30.2152 8.41612 30.0982 8.39405C30.0585 8.38743 30.0188 8.37861 29.9813 8.36978C29.9526 8.33448 29.9173 8.32124 29.8731 8.33007C29.5444 8.12486 29.2046 8.0013 28.8582 7.93731C28.3705 7.84905 27.8675 7.88436 27.3533 8.02116C27.3291 7.99468 27.3048 7.9682 27.2805 7.94393C27.2474 7.90863 27.2143 7.87332 27.1812 7.83802C27.2099 7.79389 27.2342 7.74755 27.2518 7.69901C27.2717 7.65267 27.2871 7.60413 27.3004 7.55559C27.3092 7.52249 27.3158 7.48939 27.3224 7.4585C27.3467 7.32611 27.3533 7.19152 27.3578 7.05471C27.4195 7.015 27.4769 6.97307 27.5321 6.92895C27.5872 6.88482 27.638 6.84069 27.6865 6.79214C27.9778 6.50971 28.1388 6.15888 28.0947 5.69331C28.0947 5.60064 28.0947 5.51017 28.0947 5.4175C28.0947 5.23877 28.0947 5.06226 28.0947 4.88353C28.2359 4.09802 28.3948 3.31251 28.5228 2.52479C28.5647 2.26222 28.6044 1.99965 28.6397 1.73487C28.6993 1.28475 28.6397 0.711059 28.0418 0.644864C27.4813 0.583082 27.3909 1.08175 27.2761 1.52746C26.9981 2.5954 26.8194 3.67217 26.7267 4.75555C26.6804 5.29835 26.6539 5.84115 26.6495 6.38615C26.6451 6.93115 26.6583 7.47836 26.6914 8.02778C26.6142 8.23739 26.5259 8.44701 26.4928 8.66545C26.4729 8.79564 26.4729 8.93023 26.5083 9.07145C26.089 9.27886 25.7073 9.16412 25.3278 9.02952C25.0078 8.91479 24.6901 8.78681 24.3547 8.82432C24.3018 8.66766 24.2488 8.51321 24.1936 8.35654C24.1892 7.99027 24.0899 7.65488 23.8583 7.36583C23.7943 6.97969 23.7325 6.59135 23.6685 6.20522C23.6729 6.04194 23.6773 5.87866 23.6817 5.71538C23.7126 5.65139 23.7391 5.58519 23.7634 5.5212C23.7678 5.51017 23.77 5.49914 23.7744 5.48811C23.8362 5.30276 23.8671 5.11521 23.8759 4.92545C23.8781 4.85926 23.8803 4.79086 23.8759 4.72466C23.8759 4.65847 23.8693 4.59007 23.8627 4.52387C23.8494 4.38928 23.8296 4.25468 23.8053 4.12008C23.6972 3.51992 23.2537 3.42725 22.7484 3.53316C22.2431 3.63686 22.0026 3.97004 22.0975 4.48636C22.2541 5.34469 22.488 6.17653 22.9845 6.91129H22.9933C23.0043 7.10767 23.075 7.27978 23.1698 7.44306C23.225 7.54014 23.289 7.63502 23.3508 7.7299C23.3728 7.87774 23.4037 8.02116 23.439 8.16458C23.5339 8.54189 23.6685 8.90596 23.8252 9.26341C23.7656 9.61204 23.7126 9.96287 23.642 10.3093C23.5383 10.8168 23.3177 11.3883 23.6773 11.8053C23.8516 12.0083 23.9531 12.2113 24.0061 12.4165C24.0944 12.7607 24.0458 13.1137 23.9774 13.4866C23.8252 13.9125 23.6707 14.3405 23.5185 14.7664C23.7391 15.3776 23.492 15.8432 23.0507 16.2447C23.3155 16.2337 23.3441 16.4257 23.3861 16.6198C23.578 17.4738 24.1694 17.8577 24.9792 18.0563C25.6279 18.2151 26.3384 18.0276 26.9231 18.2924C28.3087 18.919 29.5311 18.4799 30.7734 17.9151C31.1308 17.7518 31.4287 17.5444 31.656 17.2796C31.8281 17.081 31.9605 16.8493 32.0487 16.5823C32.0796 16.4941 32.1039 16.3992 32.1238 16.3021C32.1348 16.2889 32.1414 16.2734 32.1458 16.258C32.1547 16.2337 32.1613 16.2094 32.1613 16.1808C32.479 16.0616 32.7151 15.8741 32.8166 15.5232C32.9005 15.2253 32.8166 15.1415 32.6467 15.1503L32.6511 15.1437ZM28.6375 11.1102C28.8802 10.9117 29.1472 10.7969 29.4694 10.8388C29.6393 10.9845 29.8246 11.1235 29.9769 11.2801C30.2284 11.5405 30.3851 11.8472 30.2129 12.3216C30.1203 12.4231 30.0364 12.5312 29.9371 12.6261C29.4032 13.1358 28.8471 13.1579 28.4411 12.6901C28.0043 12.1848 28.0815 11.5648 28.6375 11.1102ZM25.0431 10.8874C25.7978 10.7837 26.5656 10.6513 26.9782 11.5471C26.9628 11.5846 26.965 11.6221 26.9871 11.6575C26.9253 11.834 26.8944 12.0326 26.7951 12.1848C26.2016 13.1137 25.683 13.266 25.0895 12.5974C24.8997 12.0326 24.935 11.4589 25.0409 10.8852L25.0431 10.8874ZM30.6101 14.9253C29.7143 15.2187 28.9552 15.8211 27.9822 15.98C27.3533 16.0837 26.7399 16.1918 26.1111 16.1079C25.3675 16.0064 24.6967 14.9606 24.8755 14.2501C24.913 14.0978 24.9637 14.0052 25.1314 13.9941C25.3454 13.9809 25.4977 14.0647 25.6124 14.2435C25.8088 14.5568 25.9699 14.7929 26.1199 14.965C26.2192 15.0775 26.3141 15.1592 26.4134 15.2187C26.4399 15.2342 26.4685 15.2496 26.4972 15.2629C26.5678 15.2937 26.6429 15.3136 26.7245 15.3224C27.0312 15.3533 27.4239 15.2253 28.0528 14.9826C28.995 14.7708 29.7893 14.1243 30.7822 14.0603C31.1 14.4244 30.8793 14.6803 30.6079 14.9253H30.6101Z" fill="white"/>
<path d="M29.2775 7.36573C29.7607 7.48268 30.0167 7.14288 30.1976 6.73688C30.3013 6.503 30.3212 6.2669 30.3057 6.01978C30.4734 5.36665 30.6411 4.71133 30.8088 4.05821C30.9059 3.87286 30.9986 3.68752 31.0846 3.50217C31.1707 3.31462 31.2501 3.12707 31.3185 2.93731C31.5524 2.30184 31.6848 1.63989 31.634 0.927199C31.601 0.459423 31.345 0.117417 30.9214 0.0181252C30.447 -0.0921993 30.2793 0.322621 30.127 0.680072C29.988 1.00663 29.8887 1.33981 29.8115 1.67961C29.7607 1.90467 29.7188 2.13415 29.6835 2.36362C29.6659 2.47836 29.6504 2.5931 29.635 2.70783C29.6063 2.93731 29.5798 3.16899 29.5555 3.40067L29.507 4.06041C29.4165 4.21266 29.3547 4.37373 29.3525 4.54363C29.3525 4.601 29.357 4.65837 29.3702 4.72015C29.3371 4.86578 29.3018 5.01141 29.2665 5.15704C29.1584 5.59392 29.0503 6.03081 28.9885 6.47431C28.9465 6.78322 28.7855 7.24658 29.2775 7.36573Z" fill="white"/>
<path d="M35.376 13.3298C35.5856 12.904 35.6099 12.4627 35.2392 12.1538C34.8574 11.836 34.4382 11.9309 34.1006 12.306C33.9197 12.3391 33.8005 12.4406 33.752 12.6193C33.2864 12.9724 33.0216 13.438 33.2555 14.0006C33.485 14.5522 33.9903 14.411 34.4426 14.3117C34.4912 14.283 34.5331 14.2433 34.5728 14.2014C34.6743 14.0955 34.7648 13.9741 34.9192 13.9631C34.9501 13.9609 34.9832 13.9631 35.0207 13.9697C35.0649 13.8969 35.0847 13.7822 35.1686 13.7778C35.1818 13.7778 35.1995 13.7778 35.2171 13.7844C35.2281 13.7888 35.2414 13.7954 35.2546 13.802C35.2436 13.7844 35.2303 13.7667 35.2237 13.7513C35.2127 13.727 35.2083 13.7049 35.2061 13.6829C35.2039 13.6608 35.2061 13.6387 35.2105 13.6189C35.2348 13.5152 35.3274 13.4269 35.3738 13.332L35.376 13.3298Z" fill="white"/>
<path d="M25.8268 12.5708C26.2085 12.5907 26.2791 12.1759 26.3277 11.8669C26.3762 11.558 26.2262 11.3374 25.893 11.3109C25.4936 11.28 25.4804 11.5625 25.4826 11.8669C25.5201 12.1339 25.4561 12.551 25.8268 12.5708Z" fill="white"/>
<path d="M29.2291 12.4386C29.4763 12.3282 29.6947 12.1495 29.7477 11.8759C29.8028 11.5913 29.5645 11.6199 29.3726 11.6177C29.0173 11.6133 28.907 11.8384 28.9246 12.1319C28.9335 12.2753 28.9908 12.4606 29.2291 12.4386Z" fill="white"/>
<path d="M35.2575 13.8024C35.2465 13.7847 35.2332 13.767 35.2266 13.7515C35.2332 13.767 35.2465 13.7847 35.2575 13.8024Z" fill="white"/>
<path d="M43.7786 16.2557C43.6373 15.8276 43.1762 15.9225 42.843 16.024C42.6908 16.0703 42.5407 16.1189 42.3907 16.1718C41.9406 16.3285 41.4971 16.505 41.0469 16.6683C41.0072 16.6771 40.9653 16.6837 40.9234 16.6903C40.8395 16.7014 40.7557 16.7124 40.6829 16.7367C40.6453 16.7499 40.6122 16.7654 40.5836 16.7874C39.6414 17.4957 39.5377 16.7918 39.4141 16.11C39.4097 16.0858 39.4185 16.0571 39.4252 15.9887C39.5487 15.9578 39.6877 15.9622 39.8245 15.9556C39.8488 15.9556 39.8753 15.9534 39.8996 15.9512C39.9613 15.9467 40.0209 15.9379 40.0783 15.9203C40.2107 15.8828 40.3276 15.8055 40.4093 15.6378C40.6034 15.5628 40.7976 15.4922 40.994 15.4194C41.1595 15.3576 41.3227 15.2958 41.486 15.2318C41.6052 15.1855 41.7221 15.137 41.8391 15.0862C42.1789 14.9384 42.5848 14.9362 42.8452 14.6096C43.1607 14.2169 43.2093 13.941 42.5849 13.9057C42.4282 13.6696 42.2473 13.7138 42.0575 13.8572C41.1683 14.2323 40.3276 14.689 39.5708 15.2936C39.4362 15.4547 39.2972 15.501 39.1582 15.4856C39.0876 15.479 39.017 15.4569 38.9486 15.426C38.8802 15.3951 38.8073 15.3576 38.7367 15.3157L38.7147 15.3091C38.6904 15.2605 38.6507 15.2341 38.5955 15.2318C38.5668 15.1965 38.5381 15.159 38.5095 15.1237C38.472 15.0774 38.4367 15.0311 38.3991 14.9847C38.6176 14.603 38.7941 14.186 39.0743 13.8638C39.1361 13.7932 39.2023 13.7248 39.2773 13.6652C39.4605 13.513 39.6855 13.4005 39.9724 13.3497C40.1224 13.3299 40.2614 13.2879 40.3872 13.2261C40.471 13.1842 40.5505 13.1357 40.6255 13.0783C40.7005 13.0209 40.7689 12.9592 40.8329 12.8908C40.866 12.8577 40.8947 12.8224 40.9256 12.7848C41.1175 12.5488 41.6228 12.3038 41.2433 11.9353C40.9123 11.6132 40.4225 11.6309 40.0672 11.9861C39.7628 12.2884 39.5156 12.6503 39.2442 12.9856C38.9618 13.3012 38.6816 13.6189 38.3991 13.9344C38.3418 13.9719 38.2998 14.0117 38.2734 14.0536C38.2314 14.1132 38.2226 14.1771 38.2403 14.2411C38.2579 14.3051 38.2998 14.3713 38.3638 14.4397C38.1895 14.4485 38.013 14.4596 37.8387 14.4684L37.821 14.4485C37.7416 14.4044 37.6622 14.3625 37.5827 14.3184H37.5761C37.4437 14.2169 37.3069 14.133 37.1701 14.0602C37.0377 13.9896 36.9053 13.93 36.7685 13.8859C36.4861 13.7954 36.1949 13.7579 35.8926 13.7645C35.7933 13.7645 35.6918 13.7734 35.5925 13.7844C35.491 13.7954 35.3895 13.8109 35.2858 13.8307C35.2725 13.9984 35.1402 13.9697 35.0276 13.9764C35.0718 13.9035 35.0916 13.7888 35.1755 13.7844C35.0894 13.7888 35.0718 13.9057 35.0276 13.9764C34.9901 13.9697 34.957 13.9675 34.9261 13.9697C34.8092 13.9786 34.7298 14.0492 34.6525 14.1286C34.6283 14.1551 34.6018 14.1816 34.5775 14.208C34.5378 14.25 34.4959 14.2897 34.4473 14.3184C34.22 14.6383 33.9928 14.9604 33.7633 15.2804C33.728 15.2892 33.6971 15.3047 33.6706 15.3223C33.5934 15.3797 33.5625 15.4724 33.5471 15.5738C33.1874 15.982 32.927 16.4564 32.7351 16.9551C32.6755 17.1096 32.6336 17.2508 32.6093 17.381C32.5939 17.467 32.585 17.5509 32.5872 17.6281C32.5917 18.0606 32.8476 18.3739 33.3816 18.6872L33.4191 18.6519L33.3882 18.6938C33.995 19.2344 34.6018 19.7772 35.2086 20.3178C35.2571 20.4414 35.3277 20.5385 35.4358 20.6002C35.4711 20.6201 35.5108 20.6377 35.555 20.6488C35.6565 20.8672 35.8396 20.9489 36.0669 20.9599C36.6295 21.1629 37.1944 21.3637 37.7571 21.5667C37.8188 21.6086 37.8828 21.6527 37.9446 21.6969C38.0262 21.7542 38.1101 21.8116 38.1917 21.869C38.3815 22.0014 38.569 22.1337 38.7632 22.2595C38.8757 22.3323 38.9905 22.4051 39.1074 22.4735C39.3413 22.6103 39.6855 22.8729 39.8973 22.5243C40.0672 22.2463 39.9393 21.869 39.7098 21.6285C39.3656 21.2688 38.8934 21.1033 38.4411 20.9158C38.3793 20.8275 38.3043 20.7569 38.2182 20.7017C38.1344 20.6466 38.0395 20.6069 37.9402 20.576C37.6445 19.7 38.1013 18.9741 38.4102 18.2194C38.8382 18.1907 39.2266 17.9679 39.6282 17.809C39.8025 17.7406 39.979 17.6833 40.1643 17.6612C40.3673 17.6369 40.5792 17.6546 40.8042 17.7428C40.8086 17.7428 40.8152 17.7428 40.8241 17.734C40.8483 17.7141 40.8836 17.6634 40.9101 17.6347C41.0513 17.5795 41.2014 17.5531 41.3514 17.5288C41.5522 17.4957 41.7552 17.467 41.9406 17.3788C41.9869 17.3567 42.0332 17.3302 42.0752 17.2993C42.1259 17.3015 42.1744 17.3037 42.223 17.2993C42.3686 17.2927 42.5098 17.264 42.6466 17.2221C42.8298 17.1669 43.0063 17.0897 43.1828 17.0169C43.516 16.8779 43.9198 16.6793 43.783 16.2645L43.7786 16.2557ZM34.9283 15.618C34.9283 15.618 34.9394 15.5959 34.9438 15.5849C34.957 15.5562 34.9614 15.5253 34.9548 15.49C35.2681 14.9582 35.7403 15.0796 36.2059 15.1811C36.2081 15.3267 36.2853 15.4304 36.3979 15.5143C36.3912 15.5363 36.3912 15.5562 36.3956 15.5738C36.4001 15.5937 36.4089 15.6114 36.4221 15.6268C36.431 15.682 36.4376 15.7371 36.4464 15.7923C36.464 16.3417 36.2324 16.7323 35.6521 16.6947C35.0144 16.6528 34.9129 16.152 34.9283 15.618ZM37.0179 18.8659C35.6631 19.6294 34.8224 19.3911 34.0259 18.0142C34.0347 17.9789 34.0259 17.9547 33.9928 17.937C33.984 17.7164 33.9773 17.4957 33.9685 17.2751C34.0193 17.1713 34.07 17.0676 34.1186 16.9661C34.2642 16.8955 34.3944 16.8514 34.5003 16.8514C34.5179 16.8514 34.5356 16.8514 34.551 16.8558C34.5841 16.8602 34.615 16.8713 34.6437 16.8889C34.7408 16.9485 34.807 17.0809 34.8335 17.3236C34.9482 18.3761 35.3696 18.6607 36.3405 18.3342C36.912 18.14 37.1194 18.2746 37.0179 18.8681V18.8659ZM38.066 17.7274C37.9093 17.9657 37.7394 18.0451 37.5585 17.9392C37.5276 17.9216 37.4989 17.8973 37.468 17.8708C37.4371 17.8421 37.4062 17.809 37.3753 17.7693C37.2672 17.8178 37.0532 17.4317 36.9318 17.2993C36.5744 16.9904 36.8127 16.7874 37.0664 16.6065C37.4812 16.3108 37.7615 16.5734 38.0439 16.8536C38.3329 17.1449 38.2623 17.4317 38.066 17.7274Z" fill="white"/>
<path d="M36.2083 12.8821C36.312 12.9571 36.4047 12.9593 36.4908 12.9196C36.5415 12.8953 36.5879 12.8556 36.632 12.8049C36.6607 12.7718 36.6894 12.7343 36.7158 12.6945C36.7467 12.6482 36.7754 12.5997 36.8019 12.5489C36.8217 12.5114 36.8416 12.4739 36.8593 12.4386C36.8813 12.3945 36.9012 12.3525 36.921 12.315C36.9784 12.2113 37.0424 12.1098 37.102 12.0083C37.1615 11.9046 37.2167 11.8009 37.2608 11.6928C37.3425 11.4832 37.5124 11.2162 37.2057 11.0573C37.038 10.9713 36.8747 10.9536 36.7467 11.0375C36.6717 11.0882 36.6077 11.1743 36.5658 11.3022C36.4908 11.3949 36.4135 11.4854 36.3385 11.5781C36.1444 12.0083 35.681 12.5048 36.2061 12.8821H36.2083Z" fill="white"/>
<path d="M35.6875 16.3111C35.8849 16.3111 36.045 16.1511 36.045 15.9536C36.045 15.7562 35.8849 15.5962 35.6875 15.5962C35.4901 15.5962 35.3301 15.7562 35.3301 15.9536C35.3301 16.1511 35.4901 16.3111 35.6875 16.3111Z" fill="white"/>
<path d="M37.5605 16.9575C37.4104 16.9575 37.2891 17.0789 37.2891 17.2289C37.2891 17.379 37.4104 17.5003 37.5605 17.5003C37.7105 17.5003 37.8319 17.379 37.8319 17.2289C37.8319 17.0789 37.7105 16.9575 37.5605 16.9575Z" fill="white"/>
<path d="M13.8822 13.0077C14.2684 13.63 14.6523 14.2566 15.0473 14.8722C15.151 15.0333 15.312 15.2032 15.5084 15.009C15.6629 14.8546 15.6474 14.6052 15.4555 14.5148C14.9259 14.2632 14.9656 13.7977 14.895 13.3365C14.8487 13.0254 14.8972 12.6701 14.6523 12.4032C14.4206 12.1494 14.3655 11.547 13.8293 11.8582C13.2887 12.1693 13.5667 12.5885 13.816 12.9614C13.8293 12.9813 13.8602 12.9923 13.8822 13.0077Z" fill="white"/>
<path d="M18.675 13.3498C18.9045 13.2571 19.081 13.0431 18.9839 12.7518C18.8317 12.2951 18.8802 11.8273 18.8868 11.2625C18.9243 10.8079 18.8758 10.2629 18.739 9.72453C18.6794 9.48844 18.5448 9.3053 18.3043 9.28765C18.0241 9.26558 17.9469 9.48844 17.9094 9.72012C17.7284 10.8278 18.1388 11.8935 18.1366 12.9901C18.1366 13.2064 18.3793 13.4667 18.675 13.3476V13.3498Z" fill="white"/>
<path d="M16.7884 13.7711C16.9892 13.6586 17.1503 13.4489 17.051 13.2217C16.6759 12.37 16.6472 11.4675 16.5788 10.5628C16.5545 10.2451 16.3736 9.934 16.014 9.83691C15.8308 9.83912 15.6168 10.0311 15.5991 10.2981C15.5197 11.4477 16.1066 12.4538 16.3471 13.535C16.3824 13.6894 16.5545 13.9035 16.7906 13.7711H16.7884Z" fill="white"/>
<path d="M12.9383 14.8853C12.8258 15 12.5169 15.1015 12.6603 15.3531C12.9494 15.854 13.3421 16.282 13.9335 16.4387C14.0548 16.4696 14.2115 16.4607 14.26 16.2776C14.3461 15.9665 13.3333 14.8456 12.9361 14.8853H12.9383Z" fill="white"/>
<path d="M23.5207 14.7575C23.4214 14.8281 23.2913 14.8479 23.1633 14.8722C23.0155 14.9009 22.872 14.9318 22.7794 15.0509C22.7727 15.0575 22.7683 15.0664 22.7617 15.0752C22.7441 15.0995 22.7308 15.1282 22.7176 15.1612C22.7065 15.1921 22.6955 15.2252 22.6889 15.265C22.5499 15.3488 22.4351 15.4547 22.3314 15.5739C22.2961 15.6136 22.263 15.6533 22.2299 15.6952C22.177 15.7614 22.1262 15.8298 22.0755 15.8982C21.9983 16.0019 21.9232 16.1034 21.8394 16.2005C21.6739 16.3925 21.4819 16.558 21.2172 16.644C20.9568 16.655 20.7295 16.5844 20.5133 16.4829C20.2971 16.3814 20.0941 16.2446 19.8844 16.1277C19.7432 15.7724 19.2115 15.5628 19.4255 15.0818C19.6726 14.528 19.324 14.3471 18.9312 14.1683C18.3973 13.9234 17.881 13.9477 17.3823 14.2654L17.4154 14.2941L17.4043 14.2853L17.3801 14.2676C16.8792 14.4728 16.3541 14.6471 15.9944 15.0156C15.9437 15.0686 15.8951 15.1259 15.851 15.1855C15.734 15.3488 15.6436 15.5452 15.5928 15.7879C15.4494 15.8872 15.3236 15.9909 15.2155 16.1012C15.1648 16.1542 15.1184 16.2093 15.0765 16.2645C15.0412 16.3108 15.0081 16.3594 14.9794 16.4079C14.964 16.4344 14.9485 16.4609 14.9331 16.4873C14.7146 16.8978 14.6882 17.3876 14.8404 17.9944C15.0831 18.963 15.584 19.7375 16.2614 20.3708C16.5681 20.6598 16.9123 20.918 17.283 21.1563C17.7728 21.4696 18.2318 21.4056 18.6598 20.9312C19.0526 20.4987 19.3858 19.9979 19.9528 19.7287C20.8752 19.2918 21.5283 18.5901 21.9718 17.6546C22.0865 17.4119 22.241 17.1868 22.4065 16.9684C22.5719 16.7499 22.7485 16.5337 22.9051 16.313C22.9537 16.2866 23.0022 16.2623 23.0508 16.238C23.4921 15.8364 23.7392 15.3709 23.5185 14.7597L23.5207 14.7575ZM18.4105 15.3819C18.8319 15.3929 19.1519 15.7217 19.068 16.2535C19.1386 16.911 18.6378 17.189 18.1634 17.1714C17.6912 17.1537 17.5191 16.5646 17.5103 16.1652C17.4992 15.6709 17.9758 15.3709 18.4105 15.3819ZM16.4004 18.4622C16.3585 18.4599 16.321 18.4533 16.2857 18.4467C16.2526 18.4401 16.2217 18.4335 16.193 18.4224C16.1356 18.4026 16.0893 18.3761 16.0496 18.343C16.0098 18.3099 15.9768 18.2658 15.9503 18.2128C15.8819 18.0826 15.8466 17.8929 15.8113 17.6281C15.9039 17.4516 15.9966 17.2729 16.0893 17.0963C16.204 17.1184 16.3232 17.1118 16.4445 17.1096C16.4842 17.1096 16.524 17.1074 16.5659 17.1074C16.6078 17.1074 16.6475 17.1074 16.6872 17.1118C16.7689 17.1184 16.8505 17.1338 16.93 17.1647C16.9697 17.1802 17.0116 17.2 17.0513 17.2243C17.2455 17.4251 17.3029 18.0076 17.2345 18.4202C16.8638 18.4577 16.5968 18.4776 16.4026 18.4622H16.4004ZM19.5138 18.9321C19.4608 19.155 19.377 19.3734 19.2534 19.5853C18.8386 20.2957 17.9692 20.5848 17.3933 20.1965C17.2124 20.0751 17.005 19.9515 17.1065 19.6823C17.208 19.4132 17.3999 19.4418 17.6404 19.5169C17.6846 19.5301 17.7287 19.5433 17.7728 19.5522C17.8192 19.5632 17.8633 19.5698 17.9074 19.5742C17.9913 19.5831 18.0751 19.5808 18.1546 19.5654C18.1943 19.5566 18.234 19.5455 18.2737 19.5301C18.3884 19.4838 18.4966 19.3977 18.587 19.2653C18.7569 19.2102 18.726 19.0623 18.7415 18.9366C18.993 18.7291 18.8959 18.4467 18.8805 18.1974C18.8408 17.6016 19.132 17.595 19.5579 17.7781C19.602 18.1731 19.602 18.5592 19.5138 18.9299V18.9321Z" fill="white"/>
<path d="M16.5349 18.12C16.7213 18.12 16.8725 17.9689 16.8725 17.7824C16.8725 17.596 16.7213 17.4448 16.5349 17.4448C16.3484 17.4448 16.1973 17.596 16.1973 17.7824C16.1973 17.9689 16.3484 18.12 16.5349 18.12Z" fill="white"/>
<path d="M18.2956 16.6156C18.4832 16.6156 18.6332 16.4634 18.6332 16.278C18.6332 16.0927 18.4809 15.9404 18.2956 15.9404C18.1103 15.9404 17.958 16.0927 17.958 16.278C17.958 16.4634 18.1103 16.6156 18.2956 16.6156Z" fill="white"/>
</svg>
