<svg width="172" height="40" viewBox="0 0 172 40" fill="none" xmlns="http://www.w3.org/2000/svg">
<path d="M90.4719 7.11195C89.9864 7.04355 89.8761 7.28627 89.8629 7.72977C89.8474 8.28801 90.1519 8.36745 90.5226 8.34318C91.061 8.36524 91.5994 8.23064 91.5928 7.74963C91.5839 7.14064 90.9396 7.17815 90.4719 7.11195Z" fill="#009746"/>
<path d="M90.1809 6.45443C90.6266 6.26025 91.4585 6.69714 91.5048 5.87412C91.5335 5.35118 90.9752 5.29602 90.5339 5.26954C90.1147 5.24527 89.8168 5.35339 89.8941 5.91825C89.958 6.08594 89.8212 6.61109 90.1809 6.45443Z" fill="#009746"/>
<path d="M97.3304 6.98841C96.9597 7.03475 96.353 6.78762 96.4854 7.57093C96.417 8.01884 96.5427 8.34982 97.0657 8.30569C97.5158 8.26818 98.0674 8.277 98.1226 7.65477C98.1711 7.13404 97.8137 6.92663 97.3304 6.98841Z" fill="#009746"/>
<path d="M65.1047 5.39307C64.392 5.41293 63.9728 5.75052 63.9772 6.50514L63.964 6.54927L64.0059 6.56471C63.8426 6.86038 63.8691 7.14723 64.039 7.42966L64.0279 7.47599L64.0677 7.50468C64.0743 7.95259 64.3766 8.11146 64.7495 8.19531C65.7269 8.41154 66.369 7.64369 66.1815 6.4919C66.0822 5.87187 65.8483 5.371 65.1047 5.39086V5.39307Z" fill="#009746"/>
<path d="M84.4352 5.66006C83.8505 5.42838 83.2724 5.28716 82.9105 5.99765C82.553 6.70152 82.7516 7.85772 83.2966 8.09602C83.8218 8.3277 84.3822 8.38507 84.786 7.84007C85.2339 7.2377 85.1368 6.27126 84.6051 5.78803C84.5499 5.7439 84.4925 5.70198 84.4374 5.65785L84.4352 5.66006Z" fill="#009746"/>
<path d="M124.088 5.67113C123.429 6.29556 123.36 7.52458 123.991 7.96808C124.503 8.32774 125.057 8.41159 125.536 7.89747C126.004 7.39439 125.973 6.18524 125.481 5.70202C125.039 5.26734 124.563 5.25189 124.09 5.67113H124.088Z" fill="#009746"/>
<path d="M42.6709 1.95981V10.649H69.7975C69.7313 8.81978 69.8438 6.44119 69.7688 4.86796C69.7997 4.75984 69.8306 4.65173 69.8615 4.54361C70.2255 4.61863 70.6668 4.28545 70.9537 4.82383C71.0993 5.09744 71.342 4.79956 71.5185 4.72675C72.571 4.28545 73.5264 4.38915 74.0383 5.0158C74.665 5.78365 74.7157 7.48044 74.1376 8.3829C73.6279 9.17723 72.8292 9.44422 71.737 9.04705C71.1633 8.83743 71.1236 9.07353 71.1346 9.49938C71.139 9.6759 71.1478 10.1746 71.1567 10.6534H172V1.95981H42.6709ZM60.4089 5.6292C59.716 5.52991 59.5836 5.89618 59.6234 6.48973C59.6631 7.08548 59.6476 7.68785 59.6278 8.28802C59.6189 8.56824 59.78 8.99409 59.4292 9.08235C59.0541 9.17723 58.5532 9.3692 58.2664 8.83743C58.284 8.12915 58.3083 7.41866 58.3149 6.71038C58.3237 5.55418 58.3171 5.55418 57.1146 5.67774C56.6711 5.35559 56.713 4.96946 56.9623 4.55464C58.0766 4.5414 59.1931 4.55023 60.3074 4.5083C60.8303 4.48844 61.0686 4.69585 61.0885 5.19673C60.987 5.54094 60.7487 5.67774 60.4045 5.6292H60.4089ZM67.5623 6.82512C67.5491 8.33435 66.5981 9.24122 65.0425 9.22798C63.381 9.21474 62.5447 8.44468 62.5381 6.94868C62.5315 5.28499 63.3192 4.57229 65.1925 4.43549C66.7305 4.32296 67.6616 5.67554 67.5601 6.82512H67.5623ZM104.863 2.42096C105.194 2.37022 105.463 2.40111 105.671 2.774C105.94 3.25943 106.734 3.33666 106.99 2.89315C107.429 2.12971 107.888 2.32609 108.415 2.72325C108.415 2.78062 108.415 2.83578 108.418 2.89315C108.433 3.02334 108.115 3.06967 108.332 3.2484C108.332 3.2815 108.34 3.30797 108.365 3.33004C108.307 3.39844 108.25 3.46905 108.193 3.53745V3.53083C107.255 4.07142 106.273 4.1685 105.243 3.81988C104.892 3.70073 104.618 3.5198 104.539 3.13366C104.556 2.85564 104.415 2.49157 104.863 2.42317V2.42096ZM79.7774 5.53873C79.5038 5.56301 79.2258 5.63582 78.961 5.60052C78.1865 5.49902 77.9438 5.81013 78.149 6.53386C78.0828 7.29951 78.0762 8.06737 78.1468 8.83302C77.8754 9.30962 77.4143 9.16399 77.0436 9.09559C76.6354 9.02057 76.7832 8.60355 76.7788 8.32994C76.7634 7.29069 76.7965 6.24922 76.7744 5.20776C76.7656 4.71351 76.9575 4.49948 77.4452 4.51492C78.213 4.53919 78.9809 4.55464 79.7487 4.5745C79.7642 4.67379 79.7774 4.77088 79.7929 4.87017C79.8348 4.9827 79.8767 5.09523 79.9164 5.20776C79.8701 5.31808 79.8238 5.4262 79.7752 5.53653L79.7774 5.53873ZM83.8727 9.23681C82.07 9.25667 81.3992 8.62561 81.3948 6.89572C81.472 5.15701 82.0104 4.4399 83.9896 4.44211C85.5981 4.44211 86.4432 5.24086 86.4432 6.77216C86.4432 8.27478 85.4591 9.22136 83.8749 9.23902L83.8727 9.23681ZM92.9436 8.02765C92.7273 8.75579 92.1338 9.04926 91.4431 9.12428C90.8694 9.18606 90.2869 9.1331 89.711 9.17503C88.899 9.2324 88.5769 8.90363 88.599 8.0762C88.6277 7.01046 88.7027 5.9359 88.5284 4.87237C88.5416 4.78853 88.5548 4.70247 88.5703 4.61863C89.9361 4.49065 91.3152 4.21263 92.6126 4.94298L92.6523 4.89885L92.617 4.94519H92.6126C92.9281 5.62699 92.7383 6.18965 92.0698 6.64639C92.703 6.97295 93.1488 7.33702 92.9436 8.02765ZM98.5789 8.9279C97.4933 9.37582 96.3658 9.23681 95.2449 9.09118L95.2361 9.08677C95.064 7.74743 95.2052 6.40368 95.1633 5.06213C95.1456 4.52816 95.4965 4.52816 95.876 4.51713C96.282 4.5061 96.5379 4.65393 96.4739 5.0842C96.3548 5.88074 96.7365 6.08594 97.4514 6.00651C97.7184 5.97562 98.0074 6.01092 98.27 6.07932C98.932 6.24702 99.4218 6.6155 99.4968 7.34805C99.5718 8.08502 99.2718 8.64768 98.5811 8.93231L98.5789 8.9279ZM101.505 9.10663C101.258 9.11766 101.01 9.12869 100.763 9.13972C100.355 9.15517 100.176 8.98968 100.181 8.5528C100.198 7.23773 100.181 5.92266 100.179 4.60759C101.505 4.38253 101.531 4.41122 101.54 5.72187C101.547 6.75892 101.578 7.79818 101.597 8.83523C101.567 8.92569 101.533 9.01616 101.503 9.10442L101.505 9.10663ZM108.532 9.07794C108.14 9.19047 107.654 9.31845 107.341 8.83743C107.339 8.77786 107.334 8.71828 107.332 8.65871C107.414 8.27919 107.405 7.89968 107.334 7.52016C107.423 7.23111 107.389 6.94868 107.303 6.4809L106.491 7.55326L106.476 7.58194C106.421 7.66358 106.366 7.74302 106.31 7.82466C106.114 7.93498 105.997 8.10929 105.902 8.30567C105.847 8.37407 105.792 8.44247 105.737 8.51087L105.699 8.54618C105.49 8.75138 105.28 8.95438 105.073 9.15958H105L104.934 9.18385C104.245 9.23019 103.98 8.95658 104.027 8.22844C104.104 7.00384 104.073 5.77483 104.089 4.54581L104.1 4.53699C104.937 4.49433 105.359 4.90106 105.366 5.75718C105.368 6.15434 105.366 6.55372 105.366 7.0568C105.834 6.68831 106.187 6.3441 106.377 5.85426C106.412 5.81234 106.436 5.76379 106.452 5.71305C106.652 5.53653 106.913 5.39531 107.043 5.17908C107.447 4.5061 108.027 4.40901 108.718 4.57229C108.729 5.80792 108.751 7.04135 108.744 8.27699C108.744 8.555 108.896 8.97424 108.532 9.07794ZM120.364 9.05367C119.964 9.1993 119.375 9.38906 119.064 8.77124C118.868 8.38069 118.7 7.9747 118.477 7.59959C118.318 7.3304 118.073 7.1583 117.72 7.27303C117.38 7.38557 117.504 7.67241 117.484 7.89747C117.462 8.14239 117.462 8.39172 117.475 8.63664C117.5 9.12428 117.182 9.14414 116.824 9.14193C116.474 9.14193 116.145 9.13752 116.147 8.6543C116.151 8.02324 116.147 7.39439 116.147 6.76334H116.154C116.154 6.18744 116.147 5.61375 116.156 5.03786C116.162 4.70909 116.253 4.64069 116.668 4.56347C117.665 4.37812 117.449 4.99373 117.475 5.49681C117.493 5.84544 117.372 6.3419 117.742 6.45001C118.153 6.56696 118.336 6.05726 118.554 5.76821C118.731 5.53211 118.83 5.23424 118.943 4.95622C119.205 4.3031 119.797 4.42446 120.2 4.58332C120.642 4.75764 120.238 5.15039 120.125 5.39972C119.525 6.73244 119.512 6.72582 120.136 7.99014C120.185 8.08944 120.249 8.18431 120.271 8.28802C120.326 8.55059 120.736 8.91246 120.361 9.04926L120.364 9.05367ZM125.723 9.14634L125.661 9.13752L125.608 9.17061C125.253 9.18606 124.896 9.21916 124.54 9.21695C123.636 9.21254 122.806 8.97644 122.429 8.08061C122.041 7.1605 122.034 6.19406 122.641 5.34015C123.243 4.49286 124.108 4.38033 125.063 4.60759C125.939 4.815 126.912 4.79515 127.177 6.0043C127.466 7.32378 127.038 8.36304 125.721 9.14855L125.723 9.14634ZM135.992 9.15076C135.138 9.28535 134.75 8.961 134.752 8.06296C134.752 7.42969 134.591 6.79423 134.467 5.93149C133.951 6.86263 133.77 7.65476 133.499 8.40938C133.342 8.84626 133.166 9.16841 132.59 9.16179C132.018 9.15517 131.928 8.78889 131.793 8.39614C131.614 7.87761 131.423 7.3635 131.235 6.84939C131.18 6.69714 131.133 6.514 130.924 6.52283C130.692 6.53165 130.71 6.73686 130.686 6.8891C130.595 7.48486 130.496 8.08061 130.434 8.67857C130.379 9.22136 129.999 9.13531 129.644 9.13531C129.236 9.13531 129.22 8.87053 129.247 8.57707C129.368 7.24214 129.448 5.9028 129.77 4.59436C131.436 4.37371 131.557 4.44873 132.091 6.01092C132.188 6.29556 132.292 6.57799 132.387 6.86483C132.431 6.99281 132.44 7.15388 132.603 7.18036C132.821 7.21346 132.863 7.03032 132.921 6.87807C133.139 6.28894 133.36 5.69981 133.576 5.10847C133.85 4.36267 134.492 4.53699 135.046 4.53919C135.619 4.53919 135.641 4.97608 135.688 5.40634C135.816 6.54931 135.966 7.68785 136.107 8.82861C136.067 8.93673 136.027 9.04705 135.988 9.15517L135.992 9.15076ZM142.126 9.14414C141.705 9.14855 141.438 9.05588 141.451 8.55721C141.471 7.81583 141.4 7.06783 141.464 6.33307C141.533 5.55197 141.098 5.5277 140.515 5.50122C139.847 5.47033 139.631 5.73952 139.675 6.37058C139.712 6.8891 139.681 7.41425 139.681 7.93719C139.681 8.77565 139.252 9.16547 138.393 9.10663C138.258 7.76729 138.351 6.42354 138.344 5.07978C138.344 4.90326 138.452 4.72675 138.512 4.55023C139.924 4.52816 141.336 4.44211 142.746 4.60759C142.762 5.92487 142.766 7.24435 142.801 8.56162C142.815 9.07353 142.537 9.13972 142.126 9.14414ZM149.679 8.39614C149.672 8.94997 149.35 9.14414 148.836 9.16841C148.265 9.19268 148.324 8.78889 148.318 8.44247C148.304 7.70109 148.313 6.95971 148.304 6.22054C148.3 5.89839 148.36 5.53873 147.85 5.51226C147.382 5.48798 147.334 5.7638 147.285 6.12787C147.192 6.80526 147.04 7.47603 146.742 8.10047C146.466 8.67636 146.058 9.10001 145.376 9.14855C145.171 9.164 144.902 9.26991 144.8 8.99189C144.706 8.73594 144.637 8.35421 144.884 8.22844C145.941 7.69668 145.86 6.66404 146.069 5.75497C146.113 5.56742 146.14 5.37766 146.168 5.1879C146.235 4.73778 146.299 4.41122 146.939 4.64952C147.623 4.90326 148.36 4.51492 149.101 4.65834C149.591 4.75322 149.679 4.96284 149.679 5.35339C149.679 5.87412 149.679 6.39706 149.679 6.91779H149.681C149.681 7.41204 149.686 7.9063 149.681 8.40055L149.679 8.39614ZM155.773 7.1583C155.111 7.14285 154.449 7.13623 153.79 7.16271C153.554 7.17154 153.128 7.01046 153.137 7.40322C153.141 7.66358 153.26 8.03648 153.662 8.1446C154.092 8.26154 154.511 8.37628 154.959 8.2814C155.389 8.19093 155.82 8.09385 156.265 8.14018L156.257 8.18211L156.298 8.19314C156.259 8.51087 156.327 8.89922 155.899 9.00513C154.816 9.27653 153.723 9.44422 152.711 8.78669C151.731 8.14901 151.806 7.14947 151.93 6.18744C152.075 5.04669 153.112 4.36267 154.434 4.44652C155.742 4.53037 156.418 5.1526 156.504 6.32866C156.543 6.87366 156.36 7.16933 155.771 7.15388L155.773 7.1583ZM163.101 9.13972C162.73 9.15076 162.36 9.15958 161.991 9.17061C161.797 9.10442 161.616 9.02499 161.521 8.8264C161.649 8.43585 161.362 8.15784 161.237 7.84451C161.084 7.465 160.747 7.17154 160.35 7.27965C159.886 7.40322 160.074 7.84231 160.122 8.1799C160.12 8.28581 160.116 8.39172 160.113 8.49764C160.061 8.71387 160.005 8.93231 159.952 9.14855C159.13 9.14561 158.72 8.73079 158.721 7.90409C158.721 6.80526 158.721 5.70863 158.721 4.6098C159.14 4.46638 159.573 4.53257 160.001 4.54802L160.014 4.55905C160.034 4.96946 160.072 5.37987 160.067 5.79027C160.061 6.36617 160.38 6.34852 160.767 6.18744C161.036 6.07491 161.226 5.82558 161.279 5.56962C161.482 4.59436 162.099 4.36709 162.98 4.54361L162.991 4.55464C162.905 5.28278 162.554 5.88295 162.097 6.43677C162 6.55372 161.665 6.65963 161.934 6.86263C162.556 7.3304 162.704 8.09605 163.147 8.66974C163.134 8.8264 163.119 8.98306 163.105 9.13752L163.101 9.13972ZM168.05 9.14634C167.94 9.15076 167.83 9.14414 167.721 9.16179C166.781 9.32286 165.848 9.29638 165.25 8.45792C164.613 7.56429 164.663 6.55372 165.089 5.55859C165.175 5.3578 165.255 5.1548 165.336 4.95401C166.27 4.51492 167.229 4.29427 168.253 4.58553C168.251 4.58553 168.249 4.58112 168.244 4.57891L168.255 4.58553H168.253C168.58 4.84148 168.761 5.15039 168.582 5.57183C168.425 5.94031 168.138 5.69981 167.944 5.65347C166.49 5.30485 166.011 5.81013 166.25 7.34143C166.356 8.02324 166.709 8.16446 167.302 8.19535C167.805 8.22182 168.136 7.77391 168.622 7.80921L168.642 7.82907C168.728 8.39393 168.628 8.87715 168.048 9.14414L168.05 9.14634Z" fill="#009746"/>
<path d="M154.147 5.25851C153.558 5.25851 153.132 5.68216 153.15 6.14332C153.172 6.70156 153.805 6.39927 154.176 6.51401C154.498 6.35955 155.12 6.7832 155.145 6.11243C155.167 5.53874 154.714 5.26072 154.147 5.25851Z" fill="#009746"/>
<path d="M71.1963 7.16712C71.1897 7.83568 71.5559 8.30346 72.1826 8.29243C72.7695 8.28139 73.0983 7.82465 72.9857 7.17815L72.8313 6.52061C73.2858 6.19405 72.999 5.90059 72.7563 5.65788C72.5025 5.40634 72.1715 5.38869 71.8516 5.56079C71.4611 5.7682 71.0705 5.98444 71.1963 6.53827C71.1124 6.74788 71.1235 6.9575 71.1985 7.16712H71.1963Z" fill="#009746"/>
<path d="M171.993 19.839C171.993 19.2852 171.81 19.0447 171.227 19.0513C169.465 19.0778 167.699 19.0734 165.936 19.0623C165.431 19.0579 165.113 19.2168 165.193 19.7684C165.358 20.9026 164.857 21.7829 164.204 22.6413C163.688 23.3187 163.24 24.049 162.755 24.7507C162.263 25.4567 161.762 26.154 161.263 26.8557C161.184 26.8336 161.102 26.8093 161.022 26.7873C160.983 26.4541 160.91 26.1209 160.908 25.7877C160.895 23.8041 160.886 21.8182 160.906 19.8346C160.912 19.2698 160.72 19.0469 160.142 19.0535C158.461 19.0778 156.779 19.0778 155.098 19.0535C154.518 19.0447 154.324 19.2852 154.324 19.839C154.328 26.0415 154.326 32.2439 154.304 38.4441C154.302 39.1083 154.564 39.2958 155.186 39.2848C156.839 39.2583 158.494 39.2473 160.147 39.2914C160.868 39.3113 161.177 39.084 161.084 38.3493C160.958 37.3453 161.223 36.4892 161.881 35.6772C162.816 34.5254 163.635 33.2765 164.511 32.0762C164.729 31.7761 164.985 31.5025 165.338 31.0789C165.4 31.4672 165.46 31.6702 165.462 31.8732C165.484 34.0488 165.51 36.2266 165.504 38.4022C165.502 39.0178 165.667 39.2958 166.347 39.2782C167.973 39.2385 169.599 39.2561 171.225 39.2826C171.79 39.2914 171.998 39.1017 171.998 38.5214C171.982 32.2925 171.984 26.0635 171.993 19.8324V19.839Z" fill="#FD5200"/>
<path d="M74.634 29.0974H74.6274C74.6274 26.037 74.6119 22.9766 74.6406 19.9185C74.6472 19.2742 74.4553 19.0337 73.8021 19.0447C72.2311 19.0734 70.6579 19.0976 69.0891 19.0337C68.2374 19.0006 67.9836 19.3117 68.0057 20.1237C68.052 21.8315 68.0079 23.5415 68.041 25.2515C68.0542 25.9642 67.8005 26.2643 67.0723 26.1937C66.609 26.1474 66.1324 26.154 65.669 26.2003C64.9607 26.2687 64.6739 26.0172 64.6893 25.278C64.7246 23.4863 64.6695 21.6947 64.7092 19.903C64.7246 19.2366 64.4841 19.0337 63.8531 19.0447C62.1717 19.0712 60.4904 19.069 58.809 19.0491C58.2023 19.0425 58.0037 19.2697 58.0059 19.8809C58.0257 26.0569 58.0279 32.2307 58.0103 38.4066C58.0103 39.0046 58.1802 39.2649 58.798 39.2561C60.4794 39.2363 62.1607 39.2319 63.842 39.2561C64.5415 39.2672 64.7202 38.9671 64.707 38.3073C64.6673 36.3789 64.6871 34.4482 64.6893 32.5175C64.6915 31.1561 64.6982 31.1539 66.0176 31.1407C66.3486 31.1362 66.6818 31.1693 67.0084 31.134C67.8203 31.0436 68.0542 31.4143 68.0388 32.1865C67.9991 34.254 68.0277 36.3215 68.0123 38.389C68.0079 38.9913 68.1888 39.2804 68.8684 39.2605C70.5211 39.212 72.1759 39.2142 73.8308 39.2407C74.4332 39.2495 74.6494 39.0708 74.645 38.4419C74.6185 35.3264 74.6318 32.213 74.6318 29.0974H74.634Z" fill="#FD5200"/>
<path d="M126.612 33.7951C126.61 29.1372 126.601 24.4815 126.617 19.8236C126.617 19.2477 126.409 19.0425 125.849 19.0491C124.168 19.069 122.486 19.0734 120.807 19.0491C120.229 19.0403 120.026 19.272 120.033 19.828C120.048 21.1784 120.033 22.5287 120.028 23.8791C120.022 26.2114 120.022 26.1739 117.714 26.2092C116.853 26.2224 116.617 25.9069 116.637 25.1015C116.679 23.3937 116.608 21.6837 116.666 19.978C116.692 19.2124 116.388 19.0337 115.708 19.0469C114.192 19.0756 112.676 19.0513 111.16 19.0623C110.064 19.0712 110.059 19.0844 110.057 20.1722C110.053 24.4705 110.046 28.7687 110.042 33.0691C110.042 34.8321 110.02 36.5973 110.064 38.3603C110.07 38.656 110.357 39.1944 110.529 39.201C112.533 39.2605 114.536 39.2385 116.657 39.2385C116.657 37.182 116.657 35.2845 116.657 33.3847C116.657 31.8754 117.42 31.1252 118.947 31.1341C119.964 31.1385 120.017 31.1848 120.019 32.2152C120.028 34.3092 120.035 36.4031 120.019 38.4971C120.015 39.0531 120.209 39.276 120.792 39.265C122.444 39.2341 124.099 39.2275 125.752 39.2672C126.46 39.2848 126.652 38.9914 126.637 38.3427C126.604 36.8268 126.615 35.3131 126.612 33.7973V33.7951Z" fill="#FD5200"/>
<path d="M54.5665 30.8031C53.8318 27.7515 53.086 24.7021 52.3667 21.6484C52.082 20.4392 51.4223 19.5985 50.2926 19.0447C48.8583 18.3408 47.3557 18.2813 45.8531 18.5306C44.0725 18.824 42.956 19.7949 42.561 21.719C41.61 26.3548 40.4957 30.9597 39.4455 35.5757C39.1917 36.69 38.9358 37.8043 38.6533 39.0421C40.7848 39.0421 42.764 39.0598 44.7388 39.0156C44.9264 39.0112 45.2242 38.6516 45.2684 38.4177C45.809 35.6353 46.3054 32.8463 46.8217 30.0595C46.9983 29.1085 47.1968 28.1619 47.3866 27.2131L47.658 27.2242C47.7948 27.9368 47.9426 28.6451 48.0662 29.36C48.5825 32.3697 49.0812 35.3815 49.624 38.3868C49.6681 38.6317 49.9903 39.0068 50.1888 39.0134C52.221 39.0598 54.2554 39.0421 56.4553 39.0421C56.3847 38.5809 56.3604 38.2588 56.2854 37.9477C55.7183 35.5647 55.1402 33.1839 54.5643 30.8031H54.5665Z" fill="#FD5200"/>
<path d="M108.02 29.0754H108.014C108.014 26.0702 107.987 23.0627 108.031 20.0597C108.045 19.2433 107.771 19.0094 106.99 19.0403C105.697 19.0911 104.397 19.0403 103.102 19.0513C101.257 19.0712 101.496 18.8351 101.485 20.693C101.471 22.6236 101.476 24.5543 101.469 26.4828C101.469 27.0278 101.284 27.5154 100.706 27.5993C100.373 27.6478 99.8739 27.5573 99.6886 27.3323C99.4569 27.0521 99.3951 26.571 99.3907 26.1739C99.3642 24.0777 99.3554 21.9816 99.3907 19.8876C99.3995 19.2852 99.2341 19.0315 98.614 19.0403C96.904 19.0646 95.194 19.0646 93.4862 19.0513C92.9345 19.0469 92.7867 19.2918 92.7911 19.8082C92.8176 22.4537 92.811 25.1015 92.8264 27.7493C92.8397 29.958 94.6732 32.1557 96.8555 32.4359C98.0756 32.5926 99.3311 32.608 100.558 32.5264C101.346 32.4734 101.516 32.7227 101.502 33.4244C101.471 35.0506 101.511 36.679 101.482 38.3052C101.471 38.9119 101.674 39.1304 102.292 39.1171C103.89 39.0818 105.492 39.0774 107.089 39.1194C107.808 39.1392 108.045 38.9075 108.036 38.175C108 35.1433 108.02 32.1093 108.02 29.0754Z" fill="#FD5200"/>
<path d="M136.316 25.2075C135.8 25.2229 135.758 25.5384 135.76 25.9268C135.767 27.1668 135.796 28.4069 135.765 29.6469C135.749 30.289 135.815 30.6884 136.605 30.8362C137.488 31.0017 138.046 31.9946 137.912 32.7867C137.781 33.5392 137.17 33.9694 136.257 33.9496C135.275 33.9297 134.75 33.5392 134.719 32.4977C134.65 30.2427 134.697 27.9832 134.697 25.726C134.65 25.726 134.604 25.726 134.558 25.726C134.558 23.7423 134.545 21.7565 134.564 19.7729C134.571 19.1727 134.372 18.9521 133.744 18.9675C132.23 19.0094 130.712 19.0205 129.198 18.9631C128.377 18.9322 128.174 19.2477 128.179 20.0178C128.207 24.2057 128.185 28.3958 128.192 32.5837C128.196 35.9089 130.368 38.8325 133.585 39.6511C134.6 39.9093 135.721 39.9336 136.773 39.8365C141.431 39.4018 145.228 36.0192 143.81 30.3177C142.889 26.6174 139.452 25.1148 136.316 25.203V25.2075Z" fill="#FD5200"/>
<path d="M89.5501 26.5291C87.8974 26.5666 86.2426 26.5534 84.5877 26.5357C83.811 26.5269 83.5859 26.1805 84.0625 25.5781C84.4531 25.0861 85.0202 24.6801 85.5894 24.391C86.8515 23.7489 88.2394 23.6871 89.6273 23.7688C90.2694 23.8063 90.5121 23.5724 90.49 22.9171C90.4503 21.7609 90.4592 20.6025 90.4923 19.4441C90.5077 18.877 90.3224 18.6431 89.7354 18.6608C88.7712 18.6916 87.8047 18.6409 86.8427 18.6674C81.4456 18.8152 77.41 22.4206 76.7348 27.7272C76.0861 32.8463 78.9038 37.4998 83.8066 38.517C85.7991 38.9296 87.9085 38.8038 89.9649 38.8612C90.1304 38.8656 90.4459 38.389 90.4569 38.1264C90.5099 36.9437 90.4459 35.7566 90.4923 34.5718C90.5187 33.8855 90.2826 33.6428 89.5964 33.6649C88.6057 33.6958 87.6062 33.7024 86.6243 33.6031C85.1923 33.4575 83.9964 32.3719 83.9147 31.1848C84.2324 31.1605 84.5502 31.1186 84.8679 31.1164C86.4389 31.1054 88.01 31.0767 89.581 31.1164C90.2584 31.1318 90.5276 30.9244 90.4923 30.2294C90.4459 29.3225 90.4503 28.409 90.4923 27.5022C90.5254 26.7917 90.276 26.5137 89.5457 26.5313L89.5501 26.5291Z" fill="#FD5200"/>
<path d="M12.985 19.0381C12.0229 19.0954 11.0543 19.0381 10.09 19.0645C4.36861 19.2278 0.169662 23.4157 0.0041754 29.1151C-0.114975 33.2059 2.3254 36.9305 6.11394 38.475C8.49254 39.4459 10.9881 39.2252 13.4593 39.212C13.6072 39.212 13.8742 38.8612 13.8786 38.667C13.9095 37.235 13.8786 35.8008 13.8896 34.3665C13.894 33.8701 13.616 33.7708 13.2056 33.7664C12.4333 33.7575 11.6611 33.7598 10.891 33.7156C8.7529 33.5899 6.94358 31.7541 6.83546 29.6248C6.70528 27.0962 8.0358 25.2824 10.3703 24.9228C11.2617 24.786 12.1796 24.8036 13.0864 24.7926C13.6601 24.7838 13.9536 24.6072 13.9073 23.9696C13.8609 23.312 13.8962 22.6479 13.8962 21.9859C13.8962 21.324 13.8631 20.6598 13.9051 20.0023C13.9514 19.3073 13.7374 18.9917 12.9805 19.0359L12.985 19.0381Z" fill="#FD5200"/>
<path d="M152.073 19.7949C152.078 19.1837 151.883 18.9675 151.268 18.9807C149.67 19.0116 148.071 19.0006 146.473 18.9807C145.906 18.9719 145.703 19.1815 145.705 19.7574C145.721 26.2048 145.721 32.6543 145.703 39.1017C145.703 39.7195 145.908 39.9247 146.513 39.9137C148 39.885 149.489 39.9049 150.977 39.9005C152.084 39.896 152.091 39.8916 152.091 38.8104C152.093 35.6971 152.091 32.5837 152.091 29.4682H152.06C152.06 26.2445 152.047 23.0208 152.071 19.7971L152.073 19.7949Z" fill="#FD5200"/>
<path d="M160.533 17.2001C161.279 17.0191 162.044 16.911 162.799 16.7632C164.41 16.4477 166.021 16.1255 167.746 15.7835C167.49 14.859 167.267 14.0978 167.071 13.3277C166.945 12.8401 166.711 12.7143 166.237 12.9327C164.187 13.8705 162.137 14.806 160.07 15.7041C159.553 15.9291 159.628 16.2336 159.745 16.6264C159.864 17.028 159.995 17.3303 160.535 17.1979L160.533 17.2001Z" fill="#FD5200"/>
<path d="M34.611 21.4829C32.5104 19.6338 29.9597 19.0866 27.2502 19.0756C26.8089 19.0756 26.3654 19.0425 25.9285 19.08C21.6678 19.4485 18.4992 21.5071 16.8069 25.4413C14.7923 30.1279 16.5531 36.6282 23.0247 39.1149C30.7254 42.0738 37.8965 36.679 37.9208 29.7109C37.9318 26.5092 37.0867 23.6629 34.611 21.4829ZM27.0141 25.4391C29.6089 25.4237 31.2439 26.9505 31.2836 29.4262C31.3211 31.8048 29.653 33.4553 27.1641 33.5016C24.6686 33.5457 22.9343 31.9482 22.8968 29.5719C22.8593 27.2418 24.6399 25.4545 27.0141 25.4413V25.4391ZM35.7518 29.3777C35.829 34.2518 32.3317 37.7204 27.2458 37.8109C27.1774 37.8109 27.1112 37.8109 27.0428 37.8109C24.5693 37.8109 22.365 36.9923 20.816 35.4963C19.2936 34.0246 18.4683 32.01 18.4308 29.6711C18.4264 29.4284 18.6206 29.2276 18.8655 29.2232C19.106 29.2276 19.309 29.4152 19.3134 29.6579C19.3465 31.7563 20.0791 33.5568 21.4295 34.863C22.8703 36.2553 24.8782 36.9702 27.2303 36.9283C31.8706 36.8444 34.9398 33.8171 34.8692 29.3909C34.8648 29.1482 35.0589 28.9474 35.3039 28.943C35.5532 28.943 35.7474 29.1328 35.7518 29.3777Z" fill="#FD5200"/>
<path d="M32.6511 15.1435C32.5937 15.1479 32.5276 15.1612 32.4525 15.181C32.2716 15.0001 32.0907 14.8192 31.9119 14.6382C31.8987 14.6118 31.8877 14.5831 31.8744 14.5566C31.7443 14.272 31.6163 13.9873 31.5015 13.6983C31.3736 13.3805 31.2588 13.0584 31.1595 12.7274C31.0227 12.2618 30.9036 11.8183 31.2301 11.3925C31.2897 11.3153 31.3427 11.2358 31.389 11.1542C31.4795 10.9931 31.5413 10.8276 31.581 10.6599C31.6185 10.4967 31.6361 10.329 31.6383 10.1591C31.6383 10.1546 31.6383 10.1502 31.6383 10.1458C31.6383 9.88325 31.6052 9.61627 31.5545 9.34707C31.5413 9.25881 31.4927 9.16173 31.4662 9.06906C31.453 9.02272 31.4442 8.97859 31.4442 8.93667C31.4442 8.89474 31.4596 8.85503 31.4905 8.82193C31.5324 8.7778 31.603 8.74029 31.7222 8.71602C32.0024 8.66086 32.126 8.45345 32.2253 8.22397C32.7195 7.08984 33.4278 6.07926 34.0721 5.03118C34.3744 4.54134 34.6723 4.04047 34.7495 3.46016C34.8091 3.02548 34.6789 2.56874 34.2376 2.4518C33.8978 2.36133 33.4432 2.41208 33.2998 2.90854C33.0659 3.42265 32.821 3.93235 32.5827 4.44205C32.1833 5.29375 31.7994 6.15208 31.4883 7.0435C31.4486 7.25091 31.2765 7.4164 31.1948 7.61057C31.1463 7.72751 31.1286 7.85328 31.1904 8.00332C31.175 8.52847 30.9676 8.74029 30.4402 8.48654C30.3343 8.43579 30.2152 8.41594 30.0982 8.39387C30.0585 8.38725 30.0188 8.37843 29.9813 8.3696C29.9526 8.3343 29.9173 8.32106 29.8731 8.32988C29.5444 8.12468 29.2046 8.00112 28.8582 7.93713C28.3705 7.84887 27.8675 7.88417 27.3533 8.02097C27.3291 7.9945 27.3048 7.96802 27.2805 7.94375C27.2474 7.90844 27.2143 7.87314 27.1812 7.83784C27.2099 7.79371 27.2342 7.74737 27.2518 7.69883C27.2717 7.65249 27.2871 7.60395 27.3004 7.55541C27.3092 7.52231 27.3158 7.48921 27.3224 7.45832C27.3467 7.32593 27.3533 7.19133 27.3578 7.05453C27.4195 7.01481 27.4769 6.97289 27.5321 6.92876C27.5872 6.88463 27.638 6.8405 27.6865 6.79196C27.9778 6.50953 28.1388 6.1587 28.0947 5.69313C28.0947 5.60046 28.0947 5.50999 28.0947 5.41732C28.0947 5.23859 28.0947 5.06207 28.0947 4.88335C28.2359 4.09784 28.3948 3.31233 28.5228 2.52461C28.5647 2.26204 28.6044 1.99947 28.6397 1.73469C28.6993 1.28456 28.6397 0.710876 28.0418 0.644681C27.4813 0.582899 27.3909 1.08157 27.2761 1.52728C26.9981 2.59522 26.8194 3.67198 26.7267 4.75537C26.6804 5.29817 26.6539 5.84096 26.6495 6.38597C26.6451 6.93097 26.6583 7.47818 26.6914 8.02759C26.6142 8.23721 26.5259 8.44683 26.4928 8.66527C26.4729 8.79545 26.4729 8.93005 26.5083 9.07126C26.089 9.27867 25.7073 9.16394 25.3278 9.02934C25.0078 8.9146 24.6901 8.78663 24.3547 8.82414C24.3018 8.66748 24.2488 8.51302 24.1936 8.35636C24.1892 7.99008 24.0899 7.6547 23.8583 7.36565C23.7943 6.97951 23.7325 6.59117 23.6685 6.20503C23.6729 6.04175 23.6773 5.87847 23.6817 5.71519C23.7126 5.6512 23.7391 5.58501 23.7634 5.52102C23.7678 5.50999 23.77 5.49896 23.7744 5.48792C23.8362 5.30258 23.8671 5.11503 23.8759 4.92527C23.8781 4.85908 23.8803 4.79067 23.8759 4.72448C23.8759 4.65828 23.8693 4.58988 23.8627 4.52369C23.8494 4.38909 23.8296 4.2545 23.8053 4.1199C23.6972 3.51974 23.2537 3.42706 22.7484 3.53298C22.2431 3.63668 22.0026 3.96986 22.0975 4.48618C22.2541 5.3445 22.488 6.17635 22.9845 6.91111H22.9933C23.0043 7.10749 23.075 7.27959 23.1698 7.44287C23.225 7.53996 23.289 7.63484 23.3508 7.72972C23.3728 7.87755 23.4037 8.02097 23.439 8.1644C23.5339 8.54171 23.6685 8.90578 23.8252 9.26323C23.7656 9.61185 23.7126 9.96268 23.642 10.3091C23.5383 10.8166 23.3177 11.3881 23.6773 11.8051C23.8516 12.0081 23.9531 12.2111 24.0061 12.4163C24.0944 12.7605 24.0458 13.1136 23.9774 13.4864C23.8252 13.9123 23.6707 14.3404 23.5185 14.7662C23.7391 15.3774 23.492 15.843 23.0507 16.2446C23.3155 16.2335 23.3441 16.4255 23.3861 16.6197C23.578 17.4736 24.1694 17.8575 24.9792 18.0561C25.6279 18.215 26.3384 18.0274 26.9231 18.2922C28.3087 18.9188 29.5311 18.4797 30.7734 17.9149C31.1308 17.7516 31.4287 17.5442 31.656 17.2794C31.8281 17.0808 31.9605 16.8491 32.0487 16.5822C32.0796 16.4939 32.1039 16.399 32.1238 16.3019C32.1348 16.2887 32.1414 16.2732 32.1458 16.2578C32.1547 16.2335 32.1613 16.2093 32.1613 16.1806C32.479 16.0614 32.7151 15.8739 32.8166 15.523C32.9005 15.2252 32.8166 15.1413 32.6467 15.1501L32.6511 15.1435ZM28.6375 11.1101C28.8802 10.9115 29.1472 10.7967 29.4694 10.8387C29.6393 10.9843 29.8246 11.1233 29.9769 11.28C30.2284 11.5403 30.3851 11.847 30.2129 12.3214C30.1203 12.4229 30.0364 12.531 29.9371 12.6259C29.4032 13.1356 28.8471 13.1577 28.4411 12.6899C28.0043 12.1846 28.0815 11.5646 28.6375 11.1101ZM25.0431 10.8872C25.7978 10.7835 26.5656 10.6511 26.9782 11.5469C26.9628 11.5845 26.965 11.622 26.9871 11.6573C26.9253 11.8338 26.8944 12.0324 26.7951 12.1846C26.2016 13.1136 25.683 13.2658 25.0895 12.5972C24.8997 12.0324 24.935 11.4587 25.0409 10.885L25.0431 10.8872ZM30.6101 14.9251C29.7143 15.2185 28.9552 15.8209 27.9822 15.9798C27.3533 16.0835 26.7399 16.1916 26.1111 16.1078C25.3675 16.0063 24.6967 14.9604 24.8755 14.2499C24.913 14.0976 24.9637 14.005 25.1314 13.9939C25.3454 13.9807 25.4977 14.0645 25.6124 14.2433C25.8088 14.5566 25.9699 14.7927 26.1199 14.9648C26.2192 15.0773 26.3141 15.159 26.4134 15.2185C26.4399 15.234 26.4685 15.2494 26.4972 15.2627C26.5678 15.2936 26.6429 15.3134 26.7245 15.3222C27.0312 15.3531 27.4239 15.2252 28.0528 14.9824C28.995 14.7706 29.7893 14.1241 30.7822 14.0601C31.1 14.4242 30.8793 14.6802 30.6079 14.9251H30.6101Z" fill="#379CBC"/>
<path d="M29.2775 7.36567C29.7607 7.48262 30.0167 7.14282 30.1976 6.73682C30.3013 6.50294 30.3212 6.26684 30.3057 6.01971C30.4734 5.36659 30.6411 4.71127 30.8088 4.05815C30.9059 3.8728 30.9986 3.68745 31.0846 3.50211C31.1707 3.31456 31.2501 3.12701 31.3185 2.93725C31.5524 2.30178 31.6848 1.63983 31.634 0.927138C31.601 0.459362 31.345 0.117356 30.9214 0.0180641C30.447 -0.0922603 30.2793 0.32256 30.127 0.680011C29.988 1.00657 29.8887 1.33975 29.8115 1.67955C29.7607 1.90461 29.7188 2.13409 29.6835 2.36356C29.6659 2.4783 29.6504 2.59304 29.635 2.70777C29.6063 2.93725 29.5798 3.16893 29.5555 3.40061L29.507 4.06035C29.4165 4.2126 29.3547 4.37367 29.3525 4.54357C29.3525 4.60094 29.357 4.65831 29.3702 4.72009C29.3371 4.86572 29.3018 5.01135 29.2665 5.15698C29.1584 5.59386 29.0503 6.03075 28.9885 6.47425C28.9465 6.78316 28.7855 7.24652 29.2775 7.36567Z" fill="#379CBC"/>
<path d="M35.376 13.3298C35.5856 12.904 35.6099 12.4627 35.2392 12.1537C34.8574 11.836 34.4382 11.9309 34.1006 12.306C33.9197 12.3391 33.8005 12.4406 33.752 12.6193C33.2864 12.9724 33.0216 13.4379 33.2555 14.0006C33.485 14.5522 33.9903 14.411 34.4426 14.3117C34.4912 14.283 34.5331 14.2433 34.5728 14.2014C34.6743 14.0955 34.7648 13.9741 34.9192 13.9631C34.9501 13.9609 34.9832 13.9631 35.0207 13.9697C35.0649 13.8969 35.0847 13.7821 35.1686 13.7777C35.1818 13.7777 35.1995 13.7777 35.2171 13.7843C35.2281 13.7888 35.2414 13.7954 35.2546 13.802C35.2436 13.7843 35.2303 13.7667 35.2237 13.7512C35.2127 13.727 35.2083 13.7049 35.2061 13.6828C35.2039 13.6608 35.2061 13.6387 35.2105 13.6189C35.2348 13.5151 35.3274 13.4269 35.3738 13.332L35.376 13.3298Z" fill="#379CBC"/>
<path d="M25.8268 12.5708C26.2085 12.5906 26.2791 12.1758 26.3277 11.8669C26.3762 11.558 26.2262 11.3374 25.893 11.3109C25.4936 11.28 25.4804 11.5624 25.4826 11.8669C25.5201 12.1339 25.4561 12.5509 25.8268 12.5708Z" fill="#379CBC"/>
<path d="M29.2291 12.4384C29.4763 12.3281 29.6947 12.1494 29.7477 11.8757C29.8028 11.5911 29.5645 11.6198 29.3726 11.6176C29.0173 11.6132 28.907 11.8382 28.9246 12.1317C28.9335 12.2751 28.9908 12.4605 29.2291 12.4384Z" fill="#379CBC"/>
<path d="M35.2575 13.8022C35.2465 13.7845 35.2332 13.7668 35.2266 13.7513C35.2332 13.7668 35.2465 13.7845 35.2575 13.8022Z" fill="#CF3028"/>
<path d="M43.7786 16.2557C43.6373 15.8276 43.1762 15.9225 42.843 16.024C42.6908 16.0703 42.5407 16.1189 42.3907 16.1718C41.9406 16.3285 41.4971 16.505 41.0469 16.6683C41.0072 16.6771 40.9653 16.6837 40.9234 16.6903C40.8395 16.7014 40.7557 16.7124 40.6829 16.7367C40.6453 16.7499 40.6122 16.7654 40.5836 16.7874C39.6414 17.4957 39.5377 16.7918 39.4141 16.11C39.4097 16.0858 39.4185 16.0571 39.4252 15.9887C39.5487 15.9578 39.6877 15.9622 39.8245 15.9556C39.8488 15.9556 39.8753 15.9534 39.8996 15.9512C39.9613 15.9467 40.0209 15.9379 40.0783 15.9203C40.2107 15.8828 40.3276 15.8055 40.4093 15.6378C40.6034 15.5628 40.7976 15.4922 40.994 15.4194C41.1595 15.3576 41.3227 15.2958 41.486 15.2318C41.6052 15.1855 41.7221 15.137 41.8391 15.0862C42.1789 14.9384 42.5848 14.9362 42.8452 14.6096C43.1607 14.2169 43.2093 13.941 42.5849 13.9057C42.4282 13.6696 42.2473 13.7138 42.0575 13.8572C41.1683 14.2323 40.3276 14.689 39.5708 15.2936C39.4362 15.4547 39.2972 15.501 39.1582 15.4856C39.0876 15.479 39.017 15.4569 38.9486 15.426C38.8802 15.3951 38.8073 15.3576 38.7367 15.3157L38.7147 15.3091C38.6904 15.2605 38.6507 15.2341 38.5955 15.2318C38.5668 15.1965 38.5381 15.159 38.5095 15.1237C38.472 15.0774 38.4367 15.0311 38.3991 14.9847C38.6176 14.603 38.7941 14.186 39.0743 13.8638C39.1361 13.7932 39.2023 13.7248 39.2773 13.6652C39.4605 13.513 39.6855 13.4005 39.9724 13.3497C40.1224 13.3299 40.2614 13.2879 40.3872 13.2261C40.471 13.1842 40.5505 13.1357 40.6255 13.0783C40.7005 13.0209 40.7689 12.9592 40.8329 12.8908C40.866 12.8577 40.8947 12.8224 40.9256 12.7848C41.1175 12.5488 41.6228 12.3038 41.2433 11.9353C40.9123 11.6132 40.4225 11.6309 40.0672 11.9861C39.7628 12.2884 39.5156 12.6503 39.2442 12.9856C38.9618 13.3012 38.6816 13.6189 38.3991 13.9344C38.3418 13.9719 38.2998 14.0117 38.2734 14.0536C38.2314 14.1132 38.2226 14.1771 38.2403 14.2411C38.2579 14.3051 38.2998 14.3713 38.3638 14.4397C38.1895 14.4485 38.013 14.4596 37.8387 14.4684L37.821 14.4485C37.7416 14.4044 37.6622 14.3625 37.5827 14.3184H37.5761C37.4437 14.2169 37.3069 14.133 37.1701 14.0602C37.0377 13.9896 36.9053 13.93 36.7685 13.8859C36.4861 13.7954 36.1949 13.7579 35.8926 13.7645C35.7933 13.7645 35.6918 13.7734 35.5925 13.7844C35.491 13.7954 35.3895 13.8109 35.2858 13.8307C35.2725 13.9984 35.1402 13.9697 35.0276 13.9764C35.0718 13.9035 35.0916 13.7888 35.1755 13.7844C35.0894 13.7888 35.0718 13.9057 35.0276 13.9764C34.9901 13.9697 34.957 13.9675 34.9261 13.9697C34.8092 13.9786 34.7298 14.0492 34.6525 14.1286C34.6283 14.1551 34.6018 14.1816 34.5775 14.208C34.5378 14.25 34.4959 14.2897 34.4473 14.3184C34.22 14.6383 33.9928 14.9604 33.7633 15.2804C33.728 15.2892 33.6971 15.3047 33.6706 15.3223C33.5934 15.3797 33.5625 15.4724 33.5471 15.5738C33.1874 15.982 32.927 16.4564 32.7351 16.9551C32.6755 17.1096 32.6336 17.2508 32.6093 17.381C32.5939 17.467 32.585 17.5509 32.5872 17.6281C32.5917 18.0606 32.8476 18.3739 33.3816 18.6872L33.4191 18.6519L33.3882 18.6938C33.995 19.2344 34.6018 19.7772 35.2086 20.3178C35.2571 20.4414 35.3277 20.5385 35.4358 20.6002C35.4711 20.6201 35.5108 20.6377 35.555 20.6488C35.6565 20.8672 35.8396 20.9489 36.0669 20.9599C36.6295 21.1629 37.1944 21.3637 37.7571 21.5667C37.8188 21.6086 37.8828 21.6527 37.9446 21.6969C38.0262 21.7542 38.1101 21.8116 38.1917 21.869C38.3815 22.0014 38.569 22.1337 38.7632 22.2595C38.8757 22.3323 38.9905 22.4051 39.1074 22.4735C39.3413 22.6103 39.6855 22.8729 39.8973 22.5243C40.0672 22.2463 39.9393 21.869 39.7098 21.6285C39.3656 21.2688 38.8934 21.1033 38.4411 20.9158C38.3793 20.8275 38.3043 20.7569 38.2182 20.7017C38.1344 20.6466 38.0395 20.6069 37.9402 20.576C37.6445 19.7 38.1013 18.9741 38.4102 18.2194C38.8382 18.1907 39.2266 17.9679 39.6282 17.809C39.8025 17.7406 39.979 17.6833 40.1643 17.6612C40.3673 17.6369 40.5792 17.6546 40.8042 17.7428C40.8086 17.7428 40.8152 17.7428 40.8241 17.734C40.8483 17.7141 40.8836 17.6634 40.9101 17.6347C41.0513 17.5795 41.2014 17.5531 41.3514 17.5288C41.5522 17.4957 41.7552 17.467 41.9406 17.3788C41.9869 17.3567 42.0332 17.3302 42.0752 17.2993C42.1259 17.3015 42.1744 17.3037 42.223 17.2993C42.3686 17.2927 42.5098 17.264 42.6466 17.2221C42.8298 17.1669 43.0063 17.0897 43.1828 17.0169C43.516 16.8779 43.9198 16.6793 43.783 16.2645L43.7786 16.2557ZM34.9283 15.618C34.9283 15.618 34.9394 15.5959 34.9438 15.5849C34.957 15.5562 34.9614 15.5253 34.9548 15.49C35.2681 14.9582 35.7403 15.0796 36.2059 15.1811C36.2081 15.3267 36.2853 15.4304 36.3979 15.5143C36.3912 15.5363 36.3912 15.5562 36.3956 15.5738C36.4001 15.5937 36.4089 15.6114 36.4221 15.6268C36.431 15.682 36.4376 15.7371 36.4464 15.7923C36.464 16.3417 36.2324 16.7323 35.6521 16.6947C35.0144 16.6528 34.9129 16.152 34.9283 15.618ZM37.0179 18.8659C35.6631 19.6294 34.8224 19.3911 34.0259 18.0142C34.0347 17.9789 34.0259 17.9547 33.9928 17.937C33.984 17.7164 33.9773 17.4957 33.9685 17.2751C34.0193 17.1713 34.07 17.0676 34.1186 16.9661C34.2642 16.8955 34.3944 16.8514 34.5003 16.8514C34.5179 16.8514 34.5356 16.8514 34.551 16.8558C34.5841 16.8602 34.615 16.8713 34.6437 16.8889C34.7408 16.9485 34.807 17.0809 34.8335 17.3236C34.9482 18.3761 35.3696 18.6607 36.3405 18.3342C36.912 18.14 37.1194 18.2746 37.0179 18.8681V18.8659ZM38.066 17.7274C37.9093 17.9657 37.7394 18.0451 37.5585 17.9392C37.5276 17.9216 37.4989 17.8973 37.468 17.8708C37.4371 17.8421 37.4062 17.809 37.3753 17.7693C37.2672 17.8178 37.0532 17.4317 36.9318 17.2993C36.5744 16.9904 36.8127 16.7874 37.0664 16.6065C37.4812 16.3108 37.7615 16.5734 38.0439 16.8536C38.3329 17.1449 38.2623 17.4317 38.066 17.7274Z" fill="#CF3028"/>
<path d="M36.2083 12.8819C36.312 12.9569 36.4047 12.9591 36.4908 12.9194C36.5415 12.8951 36.5879 12.8554 36.632 12.8047C36.6607 12.7716 36.6894 12.7341 36.7158 12.6944C36.7467 12.648 36.7754 12.5995 36.8019 12.5487C36.8217 12.5112 36.8416 12.4737 36.8593 12.4384C36.8813 12.3943 36.9012 12.3523 36.921 12.3148C36.9784 12.2111 37.0424 12.1096 37.102 12.0081C37.1615 11.9044 37.2167 11.8007 37.2608 11.6926C37.3425 11.483 37.5124 11.216 37.2057 11.0571C37.038 10.9711 36.8747 10.9534 36.7467 11.0373C36.6717 11.088 36.6077 11.1741 36.5658 11.3021C36.4908 11.3947 36.4135 11.4852 36.3385 11.5779C36.1444 12.0081 35.681 12.5046 36.2061 12.8819H36.2083Z" fill="#CF3028"/>
<path d="M35.6875 16.3108C35.8849 16.3108 36.045 16.1508 36.045 15.9534C36.045 15.756 35.8849 15.5959 35.6875 15.5959C35.4901 15.5959 35.3301 15.756 35.3301 15.9534C35.3301 16.1508 35.4901 16.3108 35.6875 16.3108Z" fill="#CF3028"/>
<path d="M37.5605 16.9573C37.4104 16.9573 37.2891 17.0787 37.2891 17.2287C37.2891 17.3787 37.4104 17.5001 37.5605 17.5001C37.7105 17.5001 37.8319 17.3787 37.8319 17.2287C37.8319 17.0787 37.7105 16.9573 37.5605 16.9573Z" fill="#CF3028"/>
<path d="M13.8822 13.0077C14.2684 13.6299 14.6523 14.2566 15.0473 14.8722C15.151 15.0332 15.312 15.2031 15.5084 15.009C15.6629 14.8545 15.6474 14.6052 15.4555 14.5147C14.9259 14.2632 14.9656 13.7976 14.895 13.3364C14.8487 13.0253 14.8972 12.6701 14.6523 12.4031C14.4206 12.1494 14.3655 11.547 13.8293 11.8581C13.2887 12.1692 13.5667 12.5884 13.816 12.9613C13.8293 12.9812 13.8602 12.9922 13.8822 13.0077Z" fill="#009746"/>
<path d="M18.675 13.3497C18.9045 13.257 19.081 13.043 18.9839 12.7517C18.8317 12.295 18.8802 11.8272 18.8868 11.2623C18.9243 10.8078 18.8758 10.2628 18.739 9.72441C18.6794 9.48832 18.5448 9.30518 18.3043 9.28752C18.0241 9.26546 17.9469 9.48832 17.9094 9.72C17.7284 10.8277 18.1388 11.8934 18.1366 12.99C18.1366 13.2062 18.3793 13.4666 18.675 13.3475V13.3497Z" fill="#009746"/>
<path d="M16.7884 13.7711C16.9892 13.6586 17.1503 13.449 17.051 13.2217C16.6759 12.37 16.6472 11.4675 16.5788 10.5629C16.5545 10.2451 16.3736 9.93403 16.014 9.83694C15.8308 9.83915 15.6168 10.0311 15.5991 10.2981C15.5197 11.4477 16.1066 12.4538 16.3471 13.535C16.3824 13.6895 16.5545 13.9035 16.7906 13.7711H16.7884Z" fill="#009746"/>
<path d="M12.9383 14.8854C12.8258 15.0001 12.5169 15.1016 12.6603 15.3532C12.9494 15.854 13.3421 16.2821 13.9335 16.4388C14.0548 16.4697 14.2115 16.4608 14.26 16.2777C14.3461 15.9666 13.3333 14.8457 12.9361 14.8854H12.9383Z" fill="#009746"/>
<path d="M23.5207 14.7574C23.4214 14.828 23.2913 14.8479 23.1633 14.8721C23.0155 14.9008 22.872 14.9317 22.7794 15.0509C22.7727 15.0575 22.7683 15.0663 22.7617 15.0751C22.7441 15.0994 22.7308 15.1281 22.7176 15.1612C22.7065 15.1921 22.6955 15.2252 22.6889 15.2649C22.5499 15.3487 22.4351 15.4546 22.3314 15.5738C22.2961 15.6135 22.263 15.6532 22.2299 15.6952C22.177 15.7614 22.1262 15.8298 22.0755 15.8982C21.9983 16.0019 21.9232 16.1034 21.8394 16.2004C21.6739 16.3924 21.4819 16.5579 21.2172 16.6439C20.9568 16.655 20.7295 16.5844 20.5133 16.4829C20.2971 16.3814 20.0941 16.2446 19.8844 16.1276C19.7432 15.7724 19.2115 15.5628 19.4255 15.0818C19.6726 14.5279 19.324 14.347 18.9312 14.1683C18.3973 13.9233 17.881 13.9476 17.3823 14.2654L17.4154 14.294L17.4043 14.2852L17.3801 14.2676C16.8792 14.4728 16.3541 14.6471 15.9944 15.0156C15.9437 15.0685 15.8951 15.1259 15.851 15.1855C15.734 15.3487 15.6436 15.5451 15.5928 15.7878C15.4494 15.8871 15.3236 15.9908 15.2155 16.1012C15.1648 16.1541 15.1184 16.2093 15.0765 16.2644C15.0412 16.3108 15.0081 16.3593 14.9794 16.4079C14.964 16.4343 14.9485 16.4608 14.9331 16.4873C14.7146 16.8977 14.6882 17.3875 14.8404 17.9943C15.0831 18.963 15.584 19.7374 16.2614 20.3707C16.5681 20.6598 16.9123 20.9179 17.283 21.1562C17.7728 21.4695 18.2318 21.4056 18.6598 20.9312C19.0526 20.4987 19.3858 19.9978 19.9528 19.7286C20.8752 19.2917 21.5283 18.5901 21.9718 17.6545C22.0865 17.4118 22.241 17.1867 22.4065 16.9683C22.5719 16.7499 22.7485 16.5336 22.9051 16.313C22.9537 16.2865 23.0022 16.2622 23.0508 16.238C23.4921 15.8364 23.7392 15.3708 23.5185 14.7596L23.5207 14.7574ZM18.4105 15.3818C18.8319 15.3929 19.1519 15.7216 19.068 16.2534C19.1386 16.9109 18.6378 17.189 18.1634 17.1713C17.6912 17.1536 17.5191 16.5645 17.5103 16.1651C17.4992 15.6709 17.9758 15.3708 18.4105 15.3818ZM16.4004 18.4621C16.3585 18.4599 16.321 18.4533 16.2857 18.4466C16.2526 18.44 16.2217 18.4334 16.193 18.4224C16.1356 18.4025 16.0893 18.376 16.0496 18.3429C16.0098 18.3098 15.9768 18.2657 15.9503 18.2128C15.8819 18.0826 15.8466 17.8928 15.8113 17.628C15.9039 17.4515 15.9966 17.2728 16.0893 17.0963C16.204 17.1183 16.3232 17.1117 16.4445 17.1095C16.4842 17.1095 16.524 17.1073 16.5659 17.1073C16.6078 17.1073 16.6475 17.1073 16.6872 17.1117C16.7689 17.1183 16.8505 17.1338 16.93 17.1647C16.9697 17.1801 17.0116 17.2 17.0513 17.2243C17.2455 17.425 17.3029 18.0076 17.2345 18.4202C16.8638 18.4577 16.5968 18.4775 16.4026 18.4621H16.4004ZM19.5138 18.9321C19.4608 19.1549 19.377 19.3734 19.2534 19.5852C18.8386 20.2957 17.9692 20.5847 17.3933 20.1964C17.2124 20.075 17.005 19.9515 17.1065 19.6823C17.208 19.4131 17.3999 19.4418 17.6404 19.5168C17.6846 19.53 17.7287 19.5433 17.7728 19.5521C17.8192 19.5631 17.8633 19.5698 17.9074 19.5742C17.9913 19.583 18.0751 19.5808 18.1546 19.5653C18.1943 19.5565 18.234 19.5455 18.2737 19.53C18.3884 19.4837 18.4966 19.3976 18.587 19.2653C18.7569 19.2101 18.726 19.0623 18.7415 18.9365C18.993 18.7291 18.8959 18.4466 18.8805 18.1973C18.8408 17.6016 19.132 17.5949 19.5579 17.7781C19.602 18.173 19.602 18.5592 19.5138 18.9299V18.9321Z" fill="#009746"/>
<path d="M16.5349 18.1201C16.7213 18.1201 16.8725 17.969 16.8725 17.7825C16.8725 17.5961 16.7213 17.4449 16.5349 17.4449C16.3484 17.4449 16.1973 17.5961 16.1973 17.7825C16.1973 17.969 16.3484 18.1201 16.5349 18.1201Z" fill="#009746"/>
<path d="M18.2956 16.6153C18.4832 16.6153 18.6332 16.463 18.6332 16.2777C18.6332 16.0923 18.4809 15.9401 18.2956 15.9401C18.1103 15.9401 17.958 16.0923 17.958 16.2777C17.958 16.463 18.1103 16.6153 18.2956 16.6153Z" fill="#009746"/>
</svg>
