<svg width="1057" height="687" viewBox="0 0 1057 687" fill="none" xmlns="http://www.w3.org/2000/svg">

    <style type="text/css" media="screen">
        .area {
        -webkit-transition: all 350ms;
        }
        .area:hover {
        fill: #CC2229;
        }
        .filtered {
        -webkit-transition: all 350ms;
        fill:#CC2229;
        }
    </style>



    <path d="M90.4189 112.902H6.81897V357.988H90.4189V112.902Z" fill="#E4E4E4"></path>
    <path d="M111.796 366.521H6.81897V422.084H111.796V366.521Z" fill="#E4E4E4"></path>
    <path d="M60.1429 79.8298H6.81897V104.369H60.1429V79.8298Z" fill="#E4E4E4"></path>
    <path d="M90.4188 79.8298H68.6665V104.369H90.4188V79.8298Z" fill="#E4E4E4"></path>
    <path d="M90.4189 46.7579H6.81897V71.2973H90.4189V46.7579Z" fill="#E4E4E4"></path>
    <path d="M294.543 626.966H271.529V680.174H294.543V626.966Z" fill="#E4E4E4"></path>
    <path d="M134.299 479.798H65.2571V513.518H134.299V479.798Z" fill="#E4E4E4"></path>
    <path d="M65.2571 471.265H142.822V513.484H178.622V430.616H65.2571V471.265Z" fill="#E4E4E4"></path>
    <path d="M56.7334 430.616H6.81897V471.265H56.7334V430.616Z" fill="#E4E4E4"></path>
    <path d="M6.81897 678.331C6.81897 679.355 7.63724 680.174 8.66008 680.174H90.4189V522.016H6.81897V678.331Z" fill="#E4E4E4"></path>
    <path d="M178.656 522.016H98.9425V680.174H178.656V522.016Z" fill="#E4E4E4"></path>
    <path d="M843.875 6.82605H785.505V38.7033H843.875V6.82605Z" fill="#E4E4E4"></path>
    <path class="area openPop" data-pop_id="#pop_7" data-type="Продукты" d="M866.923 263.483H849.228V330.445H866.923V263.483Z" fill="#FFDDDE"></path>
    <path class="area openPop" data-pop_id="#pop_13" d="M938.999 436.282H931.668V445.429H938.999V436.282Z" fill="#FFDDDE"></path>
    <path class="area openPop filtered" data-pop_id="#pop_4" data-type="Услуги" d="M799.791 514.986H768.049V593.757H799.791V514.986Z" fill="#FFDDDE"></path>
    <path class="area openPop" data-pop_id="#pop_13" d="M934.43 497.647H928.838V503.245H934.43V497.647Z" fill="#FFDDDE"></path>
    <path class="area openPop" data-pop_id="#pop_2" data-type="Косметика" d="M799.791 220.888H768.049V254.984H799.791V220.888Z" fill="#FFDDDE"></path>
    <path class="area openPop" data-pop_id="#pop_9" d="M799.791 178.26H768.049V212.356H799.791V178.26Z" fill="#FFDDDE"></path>
    <path class="area openPop" data-pop_id="#pop_1" data-type="Спорт и отдых" d="M799.791 126.349L784.141 107.202H768.049V169.728H799.791V126.349Z" fill="#FFDDDE"></path>
    <path class="area openPop" data-pop_id="#pop_6" d="M1008.62 221.127H937.226V293.346H1008.62V221.127Z" fill="#FFDDDE"></path>
    <path class="area openPop" data-pop_id="#pop_5" d="M1008.62 353.073H937.226V427.75H1008.62V353.073Z" fill="#FFDDDE"></path>
    <path class="area openPop" data-pop_id="#pop_17" d="M857.547 680.174H1006.78C1007.8 680.174 1008.62 679.355 1008.62 678.331V514.986H857.547V680.208V680.174Z" fill="#FFCB05"></path>
    <path class="area openPop" data-pop_id="#pop_13" d="M954.853 436.282H947.522V445.429H954.853V436.282Z" fill="#FFDDDE"></path>
    <path class="area openPop" data-pop_id="#pop_10" data-type="Подарки" d="M866.923 339.012H849.228V365.019H866.923V339.012Z" fill="#FFDDDE"></path>
    <path class="area openPop" data-pop_id="#pop_15" data-type="Продукты" d="M1051.89 289.933H1033.13V337.203H1051.89V289.933Z" fill="#FFDDDE"></path>
    <path class="area openPop" data-pop_id="#pop_16" data-type="Продукты" d="M1051.89 5.97278H1033.13V64.6761H1051.89V5.97278Z" fill="#FFDDDE"></path>
    <path class="area openPop" data-pop_id="#pop_14" data-type="Продукты" d="M1046.23 372.118H1033.13V415.599H1046.23V372.118Z" fill="#FFDDDE"></path>
    <path d="M494.849 626.966H471.835V680.174H494.849V626.966Z" fill="#FFDDDE"></path>
    <path class="area openPop" data-pop_id="#pop_11" d="M433.069 626.966H404.941V680.174H433.069V626.966Z" fill="#FFDDDE"></path>
    <path d="M849.023 647.034H764.196V680.208H849.023V647.034Z" fill="#E4E4E4"></path>
    <path class="area openPop" data-pop_id="#pop_12" data-type="Спорт и отдых" d="M463.345 626.966H441.593V680.174H463.345V626.966Z" fill="#FFDDDE"></path>
    <path class="area openPop" data-pop_id="#pop_18" d="M396.384 626.966H358.47V680.174H396.384V626.966Z" fill="#FFDDDE"></path>
    <path d="M349.947 626.966H303.067V680.174H349.947V626.966Z" fill="#E4E4E4"></path>
    <path class="area openPop" data-pop_id="#pop_3" data-type="Продукты" d="M748.444 6.82605H98.9425V357.988H120.32V422.084H187.145V593.757H759.525V93.6866H748.444V6.82605Z" fill="#FFDDDE"></path>
    <path class="area openPop" data-pop_id="#pop_17" d="M902.074 47.2358H852.433V86.0074H902.074V47.2358Z" fill="#FFCB05"></path>
    <path class="area openPop" data-pop_id="#pop_17" d="M799.791 430.616H768.049V487.886H799.791V430.616Z" fill="#FFCB05"></path>
    <path class="area openPop" data-pop_id="#pop_17" d="M1008.62 178.26H937.226V212.595H1008.62V178.26Z" fill="#FFCB05"></path>
    <path class="area openPop" data-pop_id="#pop_17" d="M1008.62 301.879H937.226V344.541H1008.62V301.879Z" fill="#FFCB05"></path>
    <path class="area openPop" data-pop_id="#pop_17" d="M1006.74 6.82605H937.226V169.728H1008.62V8.66906C1008.62 7.64517 1007.8 6.82605 1006.78 6.82605H1006.74Z" fill="#FFCB05"></path>
    <path class="area openPop" data-pop_id="#pop_17" d="M755.706 626.966H727.135V638.502H755.706V626.966Z" fill="#FFCB05"></path>
    <path d="M718.577 626.966H701.564V638.501H718.577V626.966Z" fill="#FFDDDE"></path>
    <path class="area openPop" data-pop_id="#pop_19" d="M542.172 626.966H503.372V680.174H542.172V626.966Z" fill="#FFDDDE"></path>
    <path d="M65.0184 1.22864V42.9695" stroke="black" stroke-width="0.25" stroke-miterlimit="10"></path>
    <path d="M60.2111 1.22864V42.9695" stroke="black" stroke-width="0.25" stroke-miterlimit="10"></path>
    <path d="M55.4037 1.22864V42.9695" stroke="black" stroke-width="0.25" stroke-miterlimit="10"></path>
    <path d="M50.5964 1.22864V42.9695" stroke="black" stroke-width="0.25" stroke-miterlimit="10"></path>
    <path d="M45.7891 1.22864V42.9695" stroke="black" stroke-width="0.25" stroke-miterlimit="10"></path>
    <path d="M40.9817 1.22864V42.9695" stroke="black" stroke-width="0.25" stroke-miterlimit="10"></path>
    <path d="M36.1744 1.22864V42.9695" stroke="black" stroke-width="0.25" stroke-miterlimit="10"></path>
    <path d="M31.3671 1.22864V42.9695" stroke="black" stroke-width="0.25" stroke-miterlimit="10"></path>
    <path d="M65.0184 22.1161H31.3671" stroke="black" stroke-width="0.25" stroke-miterlimit="10"></path>
    <path d="M912.03 1.22864V42.9695" stroke="black" stroke-width="0.25" stroke-miterlimit="10"></path>
    <path d="M907.223 1.22864V42.9695" stroke="black" stroke-width="0.25" stroke-miterlimit="10"></path>
    <path d="M902.415 1.22864V42.9695" stroke="black" stroke-width="0.25" stroke-miterlimit="10"></path>
    <path d="M897.608 1.22864V42.9695" stroke="black" stroke-width="0.25" stroke-miterlimit="10"></path>
    <path d="M892.801 1.22864V42.9695" stroke="black" stroke-width="0.25" stroke-miterlimit="10"></path>
    <path d="M887.993 1.22864V42.9695" stroke="black" stroke-width="0.25" stroke-miterlimit="10"></path>
    <path d="M883.186 1.22864V42.9695" stroke="black" stroke-width="0.25" stroke-miterlimit="10"></path>
    <path d="M878.379 1.22864V42.9695" stroke="black" stroke-width="0.25" stroke-miterlimit="10"></path>
    <path d="M912.03 22.1161H878.379" stroke="black" stroke-width="0.25" stroke-miterlimit="10"></path>
    <path d="M848.171 86.8605H802.348" stroke="black" stroke-width="0.25" stroke-miterlimit="10"></path>
    <path d="M848.171 83.7546H802.348" stroke="black" stroke-width="0.25" stroke-miterlimit="10"></path>
    <path d="M848.171 80.6488H802.348" stroke="black" stroke-width="0.25" stroke-miterlimit="10"></path>
    <path d="M848.171 77.543H802.348" stroke="black" stroke-width="0.25" stroke-miterlimit="10"></path>
    <path d="M848.171 74.4373H802.348" stroke="black" stroke-width="0.25" stroke-miterlimit="10"></path>
    <path d="M848.171 71.3314H802.348" stroke="black" stroke-width="0.25" stroke-miterlimit="10"></path>
    <path d="M848.171 68.2256H802.348" stroke="black" stroke-width="0.25" stroke-miterlimit="10"></path>
    <path d="M848.171 65.1198H802.348" stroke="black" stroke-width="0.25" stroke-miterlimit="10"></path>
    <path d="M825.259 86.8605V65.1198" stroke="black" stroke-width="0.25" stroke-miterlimit="10"></path>
    <path d="M241.901 642.768V685.293" stroke="black" stroke-width="0.25" stroke-miterlimit="10"></path>
    <path d="M237.094 642.768V685.293" stroke="black" stroke-width="0.25" stroke-miterlimit="10"></path>
    <path d="M232.286 642.768V685.293" stroke="black" stroke-width="0.25" stroke-miterlimit="10"></path>
    <path d="M227.479 642.768V685.293" stroke="black" stroke-width="0.25" stroke-miterlimit="10"></path>
    <path d="M222.672 642.768V685.293" stroke="black" stroke-width="0.25" stroke-miterlimit="10"></path>
    <path d="M217.898 642.768V685.293" stroke="black" stroke-width="0.25" stroke-miterlimit="10"></path>
    <path d="M213.091 642.768V685.293" stroke="black" stroke-width="0.25" stroke-miterlimit="10"></path>
    <path d="M208.284 642.768V685.293" stroke="black" stroke-width="0.25" stroke-miterlimit="10"></path>
    <path d="M241.901 664.031H208.284" stroke="black" stroke-width="0.25" stroke-miterlimit="10"></path>
    <path d="M730.954 642.768V685.293" stroke="black" stroke-width="0.25" stroke-miterlimit="10"></path>
    <path d="M726.146 642.768V685.293" stroke="black" stroke-width="0.25" stroke-miterlimit="10"></path>
    <path d="M721.339 642.768V685.293" stroke="black" stroke-width="0.25" stroke-miterlimit="10"></path>
    <path d="M716.532 642.768V685.293" stroke="black" stroke-width="0.25" stroke-miterlimit="10"></path>
    <path d="M711.724 642.768V685.293" stroke="black" stroke-width="0.25" stroke-miterlimit="10"></path>
    <path d="M706.917 642.768V685.293" stroke="black" stroke-width="0.25" stroke-miterlimit="10"></path>
    <path d="M702.11 642.768V685.293" stroke="black" stroke-width="0.25" stroke-miterlimit="10"></path>
    <path d="M697.302 642.768V685.293" stroke="black" stroke-width="0.25" stroke-miterlimit="10"></path>
    <path d="M730.954 664.031H697.302" stroke="black" stroke-width="0.25" stroke-miterlimit="10"></path>
    <path d="M871.185 264.472H906.336" stroke="black" stroke-width="0.25" stroke-miterlimit="10"></path>
    <path d="M871.185 269.25H906.336" stroke="black" stroke-width="0.25" stroke-miterlimit="10"></path>
    <path d="M871.185 274.063H906.336" stroke="black" stroke-width="0.25" stroke-miterlimit="10"></path>
    <path d="M871.185 278.875H906.336" stroke="black" stroke-width="0.25" stroke-miterlimit="10"></path>
    <path d="M871.185 283.687H906.336" stroke="black" stroke-width="0.25" stroke-miterlimit="10"></path>
    <path d="M871.185 288.5H906.336" stroke="black" stroke-width="0.25" stroke-miterlimit="10"></path>
    <path d="M871.185 293.312H906.336" stroke="black" stroke-width="0.25" stroke-miterlimit="10"></path>
    <path d="M871.185 298.124H906.336" stroke="black" stroke-width="0.25" stroke-miterlimit="10"></path>
    <path d="M888.743 264.472V298.124" stroke="black" stroke-width="0.25" stroke-miterlimit="10"></path>
    <path d="M871.185 297.817H906.336" stroke="black" stroke-width="0.25" stroke-miterlimit="10"></path>
    <path d="M871.185 302.595H906.336" stroke="black" stroke-width="0.25" stroke-miterlimit="10"></path>
    <path d="M871.185 307.408H906.336" stroke="black" stroke-width="0.25" stroke-miterlimit="10"></path>
    <path d="M871.185 312.22H906.336" stroke="black" stroke-width="0.25" stroke-miterlimit="10"></path>
    <path d="M871.185 317.032H906.336" stroke="black" stroke-width="0.25" stroke-miterlimit="10"></path>
    <path d="M871.185 321.844H906.336" stroke="black" stroke-width="0.25" stroke-miterlimit="10"></path>
    <path d="M871.185 326.657H906.336" stroke="black" stroke-width="0.25" stroke-miterlimit="10"></path>
    <path d="M871.185 331.469H906.336" stroke="black" stroke-width="0.25" stroke-miterlimit="10"></path>
    <path d="M888.743 297.817V331.469" stroke="black" stroke-width="0.25" stroke-miterlimit="10"></path>
    <path d="M871.185 331.162H906.336" stroke="black" stroke-width="0.25" stroke-miterlimit="10"></path>
    <path d="M871.185 335.94H906.336" stroke="black" stroke-width="0.25" stroke-miterlimit="10"></path>
    <path d="M871.185 340.753H906.336" stroke="black" stroke-width="0.25" stroke-miterlimit="10"></path>
    <path d="M871.185 345.565H906.336" stroke="black" stroke-width="0.25" stroke-miterlimit="10"></path>
    <path d="M871.185 350.377H906.336" stroke="black" stroke-width="0.25" stroke-miterlimit="10"></path>
    <path d="M871.185 355.189H906.336" stroke="black" stroke-width="0.25" stroke-miterlimit="10"></path>
    <path d="M871.185 360.002H906.336" stroke="black" stroke-width="0.25" stroke-miterlimit="10"></path>
    <path d="M871.185 364.814H906.336" stroke="black" stroke-width="0.25" stroke-miterlimit="10"></path>
    <path d="M888.743 331.162V364.814" stroke="black" stroke-width="0.25" stroke-miterlimit="10"></path>
    <path d="M580.392 652.563H572.175C571.834 652.563 571.561 652.836 571.561 653.177V654.133H570.3V645.839C570.3 645.839 570.3 645.805 570.3 645.771C570.3 644.508 569.277 643.484 568.016 643.484H564.743C563.583 643.484 562.629 644.372 562.492 645.498C562.458 645.6 562.424 645.737 562.458 645.874L564.095 654.952C564.163 655.259 564.402 655.464 564.708 655.464H566.618C566.822 657.648 568.016 659.662 569.857 660.857V665.566C569.857 665.908 570.13 666.181 570.47 666.181H578.687C578.687 666.181 578.926 666.181 579.028 666.112C579.335 665.942 579.403 665.566 579.233 665.259L577.392 660.993C579.574 659.73 580.903 657.409 580.903 654.884V653.211C580.903 652.87 580.631 652.597 580.29 652.597L580.392 652.563ZM572.789 653.792H579.812V654.133H572.823V653.792H572.789ZM564.743 644.713H568.05C568.357 644.713 568.663 644.85 568.834 645.088H563.958C564.163 644.85 564.436 644.713 564.743 644.713ZM563.856 646.385H569.038V654.133H567.197C567.197 654.133 567.027 654.133 566.925 654.201H565.22L563.822 646.385H563.856ZM576.403 660.174C576.096 660.31 575.96 660.686 576.096 660.959L577.801 664.884H571.118V660.481C571.118 660.276 570.982 660.072 570.777 659.935C569.107 658.979 568.016 657.273 567.811 655.362H579.71C579.505 657.409 578.244 659.218 576.369 660.106L576.403 660.174Z" fill="black"></path>
    <path d="M582.881 643.484H581.858V642.461C581.858 642.119 581.585 641.846 581.244 641.846H575.482C575.141 641.846 574.869 642.119 574.869 642.461V643.484H573.846C573.505 643.484 573.232 643.757 573.232 644.099C573.232 644.44 573.505 644.713 573.846 644.713H574.869V645.771C574.869 646.112 575.141 646.385 575.482 646.385H575.687V649.867C575.687 650.208 575.96 650.481 576.301 650.481H580.426C580.767 650.481 581.04 650.208 581.04 649.867V646.385H581.278C581.619 646.385 581.892 646.078 581.858 645.737V644.713H582.881C583.222 644.713 583.495 644.44 583.495 644.099C583.495 643.757 583.222 643.484 582.881 643.484ZM576.096 643.075H580.665V643.962C580.665 643.962 580.665 644.031 580.665 644.099C580.665 644.167 580.665 644.201 580.665 644.235V645.123H576.096V643.075ZM579.812 649.252H576.914V646.385H579.812V649.252Z" fill="black"></path>
    <path d="M1006.74 0H8.66002C3.88678 0 0 3.8908 0 8.66899V678.331C0 683.109 3.88678 687 8.66002 687H1006.74C1011.52 687 1015.4 683.109 1015.4 678.331V8.66899C1015.4 3.8908 1011.52 0 1006.74 0ZM848.989 3.41299H932.112V42.1163H848.989V3.41299ZM942.374 432.869V448.842H928.225V432.869H942.374ZM849.023 43.8227H905.484V89.4202H849.023V43.8227ZM782.096 3.41299H847.284V42.1163H782.096V3.41299ZM95.533 109.489V3.41299H751.854V90.2735H762.934V597.17H183.736V425.497H116.876V361.401H95.4989V109.489H95.533ZM3.40946 8.66899C3.40946 5.76795 5.76198 3.41299 8.66002 3.41299H93.8283V41.6384H3.40946V8.66899ZM3.40946 43.3449H93.8283V74.7103H3.40946V43.3449ZM93.8283 76.4168V107.782H65.257V76.4168H93.8283ZM3.40946 76.4168H63.5523V107.782H3.40946V76.4168ZM3.40946 109.489H93.8283V361.401H3.40946V109.489ZM3.40946 363.108H115.206V425.497H3.40946V363.108ZM61.8476 476.385H137.708V516.931H61.8476V476.385ZM3.40946 427.203H60.1428V474.678H3.40946V427.203ZM3.40946 476.385H60.1428V516.931H3.40946V476.385ZM93.8283 683.621H8.66002C5.76198 683.621 3.40946 681.266 3.40946 678.365V518.637H93.8283V683.621ZM182.065 621.88V683.621H95.533V518.637H182.065V621.88ZM182.065 516.931H139.447V474.678H61.8476V427.203H182.031V516.897L182.065 516.931ZM266.449 683.621H183.77V643.621H266.449V683.621ZM266.449 641.914H183.77V623.553H266.449V641.914ZM297.987 683.621H268.154V623.587H297.987V683.621ZM353.39 683.621H299.691V623.587H353.39V683.621ZM399.827 683.621H355.095V623.587H399.827V683.621ZM436.479 683.621H401.532V623.587H436.479V683.621ZM466.755 683.621H438.184V623.587H466.755V683.621ZM498.292 683.621H468.459V623.587H498.292V683.621ZM545.615 683.621H499.997V623.587H545.615V683.621ZM601.019 683.621H547.32V623.587H601.019V683.621ZM672.209 641.914V683.621H602.724V623.587H672.209V641.949V641.914ZM759.15 683.621H673.913V643.621H759.15V683.621ZM698.223 641.914V623.553H722.055V641.914H698.223ZM759.15 641.914H723.76V623.553H759.15V641.914ZM852.501 683.621H760.855V643.621H852.501V683.621ZM1012.1 678.365C1012.1 681.266 1009.74 683.621 1006.85 683.621H854.206V511.573H1012.1V678.331V678.365ZM1012.1 509.9H852.501V641.949H760.855V621.88H696.518V641.949H673.913V621.88H183.736V598.911H804.905V509.9H764.639V493.04H804.905V425.531H764.639V260.104H804.905V124.506L786.562 102.082H764.639V88.567H753.558V3.41299H780.425V43.8227H847.318V91.1267H907.188V43.8227H932.112V431.163H926.52V450.548H959.933V432.869H1012V509.866L1012.1 509.9ZM764.707 597.204V511.607H803.268V597.204H764.707ZM764.707 491.334V427.238H803.268V491.334H764.707ZM803.268 174.881V215.803H764.707V174.881H803.268ZM764.707 173.175V103.789H785.812L803.268 125.12V173.141H764.707V173.175ZM803.268 217.51V258.431H764.707V217.51H803.268ZM944.181 448.876V432.903H958.33V448.876H944.181ZM1012.1 431.197H933.885V349.695H1012.1V431.197ZM1012.1 347.988H933.885V298.5H1012.1V347.988ZM1012.1 296.793H933.885V217.749H1012.1V296.793ZM1012.1 216.042H933.885V174.881H1012.1V216.042ZM1012.1 173.175H933.885V3.41299H1006.81C1009.71 3.41299 1012.06 5.76795 1012.06 8.66899V173.141L1012.1 173.175ZM1028.02 0.853247V69.7956H1057V0.853247H1028.02ZM1055.3 68.0891H1029.72V2.55974H1055.3V68.0891ZM1028.02 420.685H1051.34V366.964H1028.02V420.685ZM1029.72 368.671H1049.64V418.978H1029.72V368.671ZM923.724 508.33H939.544V492.494H923.724V508.33ZM925.429 494.2H937.84V506.624H925.429V494.2ZM844.114 333.858V370.104H872.037V258.329H844.114V333.824V333.858ZM845.818 260.07H870.332V333.858H845.818V260.07ZM845.818 335.565H870.332V368.398H845.818V335.565ZM1028.02 342.288H1057V284.78H1028.02V342.288ZM1029.72 286.486H1055.3V340.582H1029.72V286.486Z" fill="black"></path>





    <path d="M271.834 588H270.098L274.242 578.172H275.754L279.898 588H278.064L277.042 585.494H272.856L271.834 588ZM276.384 583.884L274.956 580.398L273.514 583.884H276.384ZM281.646 589.47H280.148V586.502H280.946C281.44 585.839 281.734 584.743 281.828 583.212L281.926 581.7H286.574V586.502H287.624V589.47H286.112V588H281.646V589.47ZM283.424 583.212L283.382 583.856C283.27 585.069 283.018 585.951 282.626 586.502H284.964V583.212H283.424ZM290.293 588H288.683V581.7H290.139L292.281 584.332L294.311 581.7H295.725V588H294.115V584.15L292.253 586.502H292.211L290.293 584.15V588ZM302.065 584.01L299.125 588H297.515V581.7H299.125V585.69L302.065 581.7H303.675V588H302.065V584.01ZM311.45 588H309.84V585.592H307.082V588H305.472V581.7H307.082V584.08H309.84V581.7H311.45V588ZM317.788 584.01L314.848 588H313.238V581.7H314.848V585.69L317.788 581.7H319.398V588H317.788V584.01ZM325.969 585.886L326.725 587.062C326.193 587.79 325.357 588.154 324.219 588.154C323.201 588.154 322.375 587.851 321.741 587.244C321.115 586.647 320.803 585.849 320.803 584.85C320.803 583.907 321.111 583.123 321.727 582.498C322.343 581.863 323.122 581.546 324.065 581.546C325.185 581.546 326.029 581.831 326.599 582.4L325.843 583.674C325.413 583.263 324.891 583.058 324.275 583.058C323.808 583.058 323.397 583.226 323.043 583.562C322.697 583.879 322.525 584.309 322.525 584.85C322.525 585.391 322.702 585.83 323.057 586.166C323.43 586.493 323.859 586.656 324.345 586.656C324.97 586.656 325.511 586.399 325.969 585.886ZM329.308 583.31H327.236V581.7H332.976V583.31H330.918V588H329.308V583.31ZM335.738 590.8H334.128V581.7H335.738V582.302C335.944 582.078 336.224 581.896 336.578 581.756C336.933 581.616 337.302 581.546 337.684 581.546C338.552 581.546 339.243 581.845 339.756 582.442C340.279 583.049 340.54 583.819 340.54 584.752C340.54 585.732 340.232 586.544 339.616 587.188C339 587.832 338.198 588.154 337.208 588.154C336.574 588.154 336.084 588.051 335.738 587.846V590.8ZM337.18 583.058C336.62 583.058 336.14 583.287 335.738 583.744V586.292C336.121 586.535 336.564 586.656 337.068 586.656C337.6 586.656 338.025 586.483 338.342 586.138C338.669 585.793 338.832 585.345 338.832 584.794C338.832 584.271 338.683 583.851 338.384 583.534C338.095 583.217 337.694 583.058 337.18 583.058ZM342.425 583.324L342.019 582.148C342.7 581.747 343.442 581.546 344.245 581.546C345.122 581.546 345.762 581.761 346.163 582.19C346.564 582.619 346.765 583.277 346.765 584.164V588H345.365V587.272C344.992 587.813 344.371 588.084 343.503 588.084C342.906 588.084 342.425 587.911 342.061 587.566C341.706 587.211 341.529 586.74 341.529 586.152C341.529 585.499 341.739 584.995 342.159 584.64C342.579 584.285 343.134 584.108 343.825 584.108C344.394 584.108 344.87 584.243 345.253 584.514C345.272 583.954 345.188 583.543 345.001 583.282C344.824 583.021 344.516 582.89 344.077 582.89C343.592 582.89 343.041 583.035 342.425 583.324ZM344.035 586.726C344.576 586.726 344.982 586.535 345.253 586.152V585.508C344.992 585.303 344.623 585.2 344.147 585.2C343.848 585.2 343.606 585.27 343.419 585.41C343.232 585.55 343.139 585.741 343.139 585.984C343.139 586.208 343.223 586.39 343.391 586.53C343.559 586.661 343.774 586.726 344.035 586.726ZM353.764 588H348.416V581.7H350.026V586.502H352.616V581.7H354.226V586.502H355.276V589.47H353.764V588ZM360.895 584.01L357.955 588H356.345V581.7H357.955V585.69L360.895 581.7H362.505V588H360.895V584.01ZM367.382 581.7H369.44V588H367.83V586.11H366.934L365.632 588H363.784L365.464 585.76C365.119 585.639 364.83 585.419 364.596 585.102C364.363 584.775 364.246 584.388 364.246 583.94C364.246 583.249 364.508 582.703 365.03 582.302C365.562 581.901 366.346 581.7 367.382 581.7ZM365.968 584.052C365.968 584.295 366.071 584.5 366.276 584.668C366.482 584.836 366.72 584.92 366.99 584.92H367.83V583.1H367.116C366.762 583.1 366.482 583.193 366.276 583.38C366.071 583.557 365.968 583.781 365.968 584.052Z" fill="black"></path>
    <line x1="348.441" y1="591.764" x2="370.441" y2="632.764" stroke="black"></line>
    <path d="M386.162 573.76L386.82 575.048C386.512 575.375 386.069 575.641 385.49 575.846C384.921 576.051 384.319 576.154 383.684 576.154C382.191 576.154 380.973 575.692 380.03 574.768C379.097 573.844 378.63 572.621 378.63 571.1C378.63 569.644 379.073 568.435 379.96 567.474C380.837 566.522 382.065 566.046 383.642 566.046C384.893 566.046 385.887 566.377 386.624 567.04L385.854 568.314C385.191 567.875 384.454 567.656 383.642 567.656C382.709 567.656 381.943 567.969 381.346 568.594C380.749 569.219 380.45 570.055 380.45 571.1C380.45 572.127 380.763 572.957 381.388 573.592C382.023 574.227 382.839 574.544 383.838 574.544C384.697 574.544 385.471 574.283 386.162 573.76ZM388.65 571.31H386.578V569.7H392.318V571.31H390.26V576H388.65V571.31ZM397.794 569.7H399.628L397.15 576C396.702 577.092 396.301 577.829 395.946 578.212C395.601 578.604 395.19 578.8 394.714 578.8C394.266 578.8 393.814 578.637 393.356 578.31L393.874 577.092C394.117 577.241 394.336 577.316 394.532 577.316C394.915 577.316 395.237 576.989 395.498 576.336L395.638 576L392.726 569.7H394.658L396.128 573.144C396.147 573.191 396.25 573.494 396.436 574.054C396.492 573.709 396.567 573.401 396.66 573.13L397.794 569.7ZM400.802 577.47H399.304V574.502H400.102C400.597 573.839 400.891 572.743 400.984 571.212L401.082 569.7H405.73V574.502H406.78V577.47H405.268V576H400.802V577.47ZM402.58 571.212L402.538 571.856C402.426 573.069 402.174 573.951 401.782 574.502H404.12V571.212H402.58ZM412.389 572.01L409.449 576H407.839V569.7H409.449V573.69L412.389 569.7H413.999V576H412.389V572.01ZM418.876 569.7H420.934V576H419.324V574.11H418.428L417.126 576H415.278L416.958 573.76C416.613 573.639 416.324 573.419 416.09 573.102C415.857 572.775 415.74 572.388 415.74 571.94C415.74 571.249 416.002 570.703 416.524 570.302C417.056 569.901 417.84 569.7 418.876 569.7ZM417.462 572.052C417.462 572.295 417.565 572.5 417.77 572.668C417.976 572.836 418.214 572.92 418.484 572.92H419.324V571.1H418.61C418.256 571.1 417.976 571.193 417.77 571.38C417.565 571.557 417.462 571.781 417.462 572.052ZM380.506 588H378.896V581.7H380.352L382.494 584.332L384.524 581.7H385.938V588H384.328V584.15L382.466 586.502H382.424L380.506 584.15V588ZM388.218 583.324L387.812 582.148C388.493 581.747 389.235 581.546 390.038 581.546C390.915 581.546 391.555 581.761 391.956 582.19C392.357 582.619 392.558 583.277 392.558 584.164V588H391.158V587.272C390.785 587.813 390.164 588.084 389.296 588.084C388.699 588.084 388.218 587.911 387.854 587.566C387.499 587.211 387.322 586.74 387.322 586.152C387.322 585.499 387.532 584.995 387.952 584.64C388.372 584.285 388.927 584.108 389.618 584.108C390.187 584.108 390.663 584.243 391.046 584.514C391.065 583.954 390.981 583.543 390.794 583.282C390.617 583.021 390.309 582.89 389.87 582.89C389.385 582.89 388.834 583.035 388.218 583.324ZM389.828 586.726C390.369 586.726 390.775 586.535 391.046 586.152V585.508C390.785 585.303 390.416 585.2 389.94 585.2C389.641 585.2 389.399 585.27 389.212 585.41C389.025 585.55 388.932 585.741 388.932 585.984C388.932 586.208 389.016 586.39 389.184 586.53C389.352 586.661 389.567 586.726 389.828 586.726ZM398.143 581.7H400.173L397.751 584.696L400.467 588H398.367L395.875 584.822L398.143 581.7ZM395.819 588H394.209V581.7H395.819V588ZM405.964 584.01L403.024 588H401.414V581.7H403.024V585.69L405.964 581.7H407.574V588H405.964V584.01ZM412.451 581.7H414.509V588H412.899V586.11H412.003L410.701 588H408.853L410.533 585.76C410.187 585.639 409.898 585.419 409.665 585.102C409.431 584.775 409.315 584.388 409.315 583.94C409.315 583.249 409.576 582.703 410.099 582.302C410.631 581.901 411.415 581.7 412.451 581.7ZM411.037 584.052C411.037 584.295 411.139 584.5 411.345 584.668C411.55 584.836 411.788 584.92 412.059 584.92H412.899V583.1H412.185C411.83 583.1 411.55 583.193 411.345 583.38C411.139 583.557 411.037 583.781 411.037 584.052ZM423.148 581.7H425.052L422.966 584.752L425.22 588H423.316L421.216 584.752L423.148 581.7ZM421.146 588H419.536V581.7H421.146V588ZM415.504 588L417.73 584.752L415.63 581.7H417.59L419.466 584.752L417.422 588H415.504ZM426.718 583.324L426.312 582.148C426.993 581.747 427.735 581.546 428.538 581.546C429.415 581.546 430.055 581.761 430.456 582.19C430.857 582.619 431.058 583.277 431.058 584.164V588H429.658V587.272C429.285 587.813 428.664 588.084 427.796 588.084C427.199 588.084 426.718 587.911 426.354 587.566C425.999 587.211 425.822 586.74 425.822 586.152C425.822 585.499 426.032 584.995 426.452 584.64C426.872 584.285 427.427 584.108 428.118 584.108C428.687 584.108 429.163 584.243 429.546 584.514C429.565 583.954 429.481 583.543 429.294 583.282C429.117 583.021 428.809 582.89 428.37 582.89C427.885 582.89 427.334 583.035 426.718 583.324ZM428.328 586.726C428.869 586.726 429.275 586.535 429.546 586.152V585.508C429.285 585.303 428.916 585.2 428.44 585.2C428.141 585.2 427.899 585.27 427.712 585.41C427.525 585.55 427.432 585.741 427.432 585.984C427.432 586.208 427.516 586.39 427.684 586.53C427.852 586.661 428.067 586.726 428.328 586.726Z" fill="black"></path>
    <line x1="398.441" y1="591.764" x2="420.441" y2="632.764" stroke="black"></line>
    <path d="M442.318 579.81H439.14V578.2H447.218V579.81H444.04V588H442.318V579.81ZM454.928 578.2H456.636V583.94C456.636 585.349 456.267 586.404 455.53 587.104C454.783 587.804 453.854 588.154 452.744 588.154C451.484 588.154 450.471 587.785 449.706 587.048C448.95 586.311 448.572 585.242 448.572 583.842V578.2H450.294V583.478C450.294 584.449 450.499 585.205 450.91 585.746C451.33 586.278 451.941 586.544 452.744 586.544C454.2 586.544 454.928 585.559 454.928 583.59V578.2ZM461.157 588H459.435V578.2H461.157V588Z" fill="black"></path>
    <line x1="450.5" y1="592" x2="450.5" y2="633" stroke="black"></line>
    <path d="M492.63 583.1C492.63 581.672 493.106 580.473 494.058 579.502C495.029 578.531 496.251 578.046 497.726 578.046C499.201 578.046 500.419 578.513 501.38 579.446C502.351 580.389 502.836 581.607 502.836 583.1C502.836 584.565 502.351 585.774 501.38 586.726C500.409 587.678 499.191 588.154 497.726 588.154C496.251 588.154 495.033 587.687 494.072 586.754C493.111 585.821 492.63 584.603 492.63 583.1ZM494.45 583.1C494.45 584.089 494.763 584.911 495.388 585.564C496.013 586.217 496.793 586.544 497.726 586.544C498.734 586.544 499.532 586.217 500.12 585.564C500.717 584.911 501.016 584.089 501.016 583.1C501.016 582.101 500.699 581.275 500.064 580.622C499.429 579.978 498.65 579.656 497.726 579.656C496.783 579.656 495.999 579.978 495.374 580.622C494.758 581.266 494.45 582.092 494.45 583.1ZM508.183 581.7H510.045L507.945 584.71L510.185 588H508.225L506.755 585.732L505.229 588H503.367L505.607 584.794L503.507 581.7H505.481L506.811 583.786L508.183 581.7ZM512.949 590.8H511.339V581.7H512.949V582.302C513.155 582.078 513.435 581.896 513.789 581.756C514.144 581.616 514.513 581.546 514.895 581.546C515.763 581.546 516.454 581.845 516.967 582.442C517.49 583.049 517.751 583.819 517.751 584.752C517.751 585.732 517.443 586.544 516.827 587.188C516.211 587.832 515.409 588.154 514.419 588.154C513.785 588.154 513.295 588.051 512.949 587.846V590.8ZM514.391 583.058C513.831 583.058 513.351 583.287 512.949 583.744V586.292C513.332 586.535 513.775 586.656 514.279 586.656C514.811 586.656 515.236 586.483 515.553 586.138C515.88 585.793 516.043 585.345 516.043 584.794C516.043 584.271 515.894 583.851 515.595 583.534C515.306 583.217 514.905 583.058 514.391 583.058ZM519.636 583.324L519.23 582.148C519.911 581.747 520.653 581.546 521.456 581.546C522.333 581.546 522.973 581.761 523.374 582.19C523.775 582.619 523.976 583.277 523.976 584.164V588H522.576V587.272C522.203 587.813 521.582 588.084 520.714 588.084C520.117 588.084 519.636 587.911 519.272 587.566C518.917 587.211 518.74 586.74 518.74 586.152C518.74 585.499 518.95 584.995 519.37 584.64C519.79 584.285 520.345 584.108 521.036 584.108C521.605 584.108 522.081 584.243 522.464 584.514C522.483 583.954 522.399 583.543 522.212 583.282C522.035 583.021 521.727 582.89 521.288 582.89C520.803 582.89 520.252 583.035 519.636 583.324ZM521.246 586.726C521.787 586.726 522.193 586.535 522.464 586.152V585.508C522.203 585.303 521.834 585.2 521.358 585.2C521.059 585.2 520.817 585.27 520.63 585.41C520.443 585.55 520.35 585.741 520.35 585.984C520.35 586.208 520.434 586.39 520.602 586.53C520.77 586.661 520.985 586.726 521.246 586.726ZM531.604 588H529.994V585.592H527.236V588H525.626V581.7H527.236V584.08H529.994V581.7H531.604V588ZM533.882 583.324L533.476 582.148C534.157 581.747 534.899 581.546 535.702 581.546C536.579 581.546 537.219 581.761 537.62 582.19C538.021 582.619 538.222 583.277 538.222 584.164V588H536.822V587.272C536.449 587.813 535.828 588.084 534.96 588.084C534.363 588.084 533.882 587.911 533.518 587.566C533.163 587.211 532.986 586.74 532.986 586.152C532.986 585.499 533.196 584.995 533.616 584.64C534.036 584.285 534.591 584.108 535.282 584.108C535.851 584.108 536.327 584.243 536.71 584.514C536.729 583.954 536.645 583.543 536.458 583.282C536.281 583.021 535.973 582.89 535.534 582.89C535.049 582.89 534.498 583.035 533.882 583.324ZM535.492 586.726C536.033 586.726 536.439 586.535 536.71 586.152V585.508C536.449 585.303 536.08 585.2 535.604 585.2C535.305 585.2 535.063 585.27 534.876 585.41C534.689 585.55 534.596 585.741 534.596 585.984C534.596 586.208 534.68 586.39 534.848 586.53C535.016 586.661 535.231 586.726 535.492 586.726Z" fill="black"></path>
    <line x1="517.5" y1="592" x2="517.5" y2="633" stroke="black"></line>
    <line x1="1035.5" y1="411" x2="1035.5" y2="430" stroke="black"></line>
    <line x1="937.413" y1="452.282" x2="932.575" y2="459.382" stroke="black"></line>
    <line x1="925.5" y1="483" x2="925.5" y2="490" stroke="black"></line>
    <line x1="1037.5" y1="277" x2="1037.5" y2="296" stroke="black"></line>
    <path d="M792.258 496.2H793.98V506H792.258V501.982C791.642 502.43 790.863 502.654 789.92 502.654C789.071 502.654 788.361 502.402 787.792 501.898C787.223 501.394 786.938 500.601 786.938 499.518V496.2H788.66V499.028C788.66 500.372 789.234 501.044 790.382 501.044C791.017 501.044 791.642 500.834 792.258 500.414V496.2ZM800.784 502.01L797.844 506H796.234V499.7H797.844V503.69L800.784 499.7H802.394V506H800.784V502.01ZM804.737 505.23C804.112 504.605 803.799 503.811 803.799 502.85C803.799 501.889 804.112 501.1 804.737 500.484C805.362 499.859 806.193 499.546 807.229 499.546C808.256 499.546 809.082 499.859 809.707 500.484C810.342 501.1 810.659 501.889 810.659 502.85C810.659 503.802 810.342 504.595 809.707 505.23C809.072 505.846 808.246 506.154 807.229 506.154C806.193 506.154 805.362 505.846 804.737 505.23ZM806.011 501.562C805.684 501.898 805.521 502.327 805.521 502.85C805.521 503.373 805.68 503.807 805.997 504.152C806.324 504.488 806.734 504.656 807.229 504.656C807.733 504.656 808.144 504.488 808.461 504.152C808.788 503.816 808.951 503.382 808.951 502.85C808.951 502.327 808.788 501.898 808.461 501.562C808.134 501.226 807.724 501.058 807.229 501.058C806.744 501.058 806.338 501.226 806.011 501.562ZM820.381 496.2H822.103V506H820.381V501.982C819.765 502.43 818.986 502.654 818.043 502.654C817.194 502.654 816.484 502.402 815.915 501.898C815.346 501.394 815.061 500.601 815.061 499.518V496.2H816.783V499.028C816.783 500.372 817.357 501.044 818.505 501.044C819.14 501.044 819.765 500.834 820.381 500.414V496.2ZM828.907 502.01L825.967 506H824.357V499.7H825.967V503.69L828.907 499.7H830.517V506H828.907V502.01ZM832.86 505.23C832.235 504.605 831.922 503.811 831.922 502.85C831.922 501.889 832.235 501.1 832.86 500.484C833.485 499.859 834.316 499.546 835.352 499.546C836.379 499.546 837.205 499.859 837.83 500.484C838.465 501.1 838.782 501.889 838.782 502.85C838.782 503.802 838.465 504.595 837.83 505.23C837.195 505.846 836.369 506.154 835.352 506.154C834.316 506.154 833.485 505.846 832.86 505.23ZM834.134 501.562C833.807 501.898 833.644 502.327 833.644 502.85C833.644 503.373 833.803 503.807 834.12 504.152C834.447 504.488 834.857 504.656 835.352 504.656C835.856 504.656 836.267 504.488 836.584 504.152C836.911 503.816 837.074 503.382 837.074 502.85C837.074 502.327 836.911 501.898 836.584 501.562C836.257 501.226 835.847 501.058 835.352 501.058C834.867 501.058 834.461 501.226 834.134 501.562Z" fill="black"></path>
    <path d="M811.5 509L785 545.5" stroke="black"></path>
    <path d="M851.5 354L829 354" stroke="black"></path>
    <path d="M805.5 146L783 146" stroke="black"></path>
    <path d="M805.5 194L783 194" stroke="black"></path>
    <path d="M805.5 234L783 234" stroke="black"></path>
    <path d="M851.5 301L829 301" stroke="black"></path>
    <path d="M943.834 396H942.098L946.242 386.172H947.754L951.898 396H950.064L949.042 393.494H944.856L943.834 396ZM948.384 391.884L946.956 388.398L945.514 391.884H948.384ZM958.812 396H957.202V391.212H954.514V396H952.904V389.7H958.812V396ZM962.015 391.31H959.943V389.7H965.683V391.31H963.625V396H962.015V391.31ZM971.586 394.236L972.048 395.37C971.423 395.893 970.62 396.154 969.64 396.154C968.632 396.154 967.811 395.851 967.176 395.244C966.56 394.647 966.252 393.849 966.252 392.85C966.252 391.917 966.555 391.133 967.162 390.498C967.769 389.863 968.576 389.546 969.584 389.546C970.415 389.546 971.119 389.821 971.698 390.372C972.277 390.923 972.566 391.623 972.566 392.472C972.566 392.845 972.533 393.135 972.468 393.34H967.918C967.983 393.797 968.184 394.157 968.52 394.418C968.865 394.679 969.295 394.81 969.808 394.81C970.508 394.81 971.101 394.619 971.586 394.236ZM969.514 390.89C968.599 390.89 968.049 391.347 967.862 392.262H970.956C970.965 391.861 970.835 391.534 970.564 391.282C970.303 391.021 969.953 390.89 969.514 390.89ZM977.797 389.7H979.827L977.405 392.696L980.121 396H978.021L975.529 392.822L977.797 389.7ZM975.473 396H973.863V389.7H975.473V396ZM981.558 391.324L981.152 390.148C981.833 389.747 982.575 389.546 983.378 389.546C984.255 389.546 984.895 389.761 985.296 390.19C985.697 390.619 985.898 391.277 985.898 392.164V396H984.498V395.272C984.125 395.813 983.504 396.084 982.636 396.084C982.039 396.084 981.558 395.911 981.194 395.566C980.839 395.211 980.662 394.74 980.662 394.152C980.662 393.499 980.872 392.995 981.292 392.64C981.712 392.285 982.267 392.108 982.958 392.108C983.527 392.108 984.003 392.243 984.386 392.514C984.405 391.954 984.321 391.543 984.134 391.282C983.957 391.021 983.649 390.89 983.21 390.89C982.725 390.89 982.174 391.035 981.558 391.324ZM983.168 394.726C983.709 394.726 984.115 394.535 984.386 394.152V393.508C984.125 393.303 983.756 393.2 983.28 393.2C982.981 393.2 982.739 393.27 982.552 393.41C982.365 393.55 982.272 393.741 982.272 393.984C982.272 394.208 982.356 394.39 982.524 394.53C982.692 394.661 982.907 394.726 983.168 394.726Z" fill="black"></path>
    <path d="M868.834 468H867.098L871.242 458.172H872.754L876.898 468H875.064L874.042 465.494H869.856L868.834 468ZM873.384 463.884L871.956 460.398L870.514 463.884H873.384ZM877.904 468V461.7C877.988 461.7 878.342 461.691 878.968 461.672C879.602 461.644 880.074 461.63 880.382 461.63C882.286 461.63 883.238 462.181 883.238 463.282C883.238 463.637 883.126 463.949 882.902 464.22C882.678 464.481 882.398 464.635 882.062 464.682V464.71C882.958 464.925 883.406 465.41 883.406 466.166C883.406 467.435 882.407 468.07 880.41 468.07C880.12 468.07 879.677 468.056 879.08 468.028C878.93 468.028 878.758 468.023 878.562 468.014C878.375 468.014 878.23 468.009 878.128 468C878.034 468 877.96 468 877.904 468ZM880.522 465.326H879.514V466.726C880.074 466.763 880.428 466.782 880.578 466.782C880.932 466.782 881.208 466.717 881.404 466.586C881.609 466.455 881.712 466.278 881.712 466.054C881.712 465.569 881.315 465.326 880.522 465.326ZM880.522 462.932C880.148 462.932 879.812 462.941 879.514 462.96V464.346H880.564C880.853 464.346 881.086 464.281 881.264 464.15C881.441 464.019 881.53 463.842 881.53 463.618C881.53 463.161 881.194 462.932 880.522 462.932ZM886.345 463.31H884.273V461.7H890.013V463.31H887.955V468H886.345V463.31ZM891.52 467.23C890.895 466.605 890.582 465.811 890.582 464.85C890.582 463.889 890.895 463.1 891.52 462.484C892.145 461.859 892.976 461.546 894.012 461.546C895.039 461.546 895.865 461.859 896.49 462.484C897.125 463.1 897.442 463.889 897.442 464.85C897.442 465.802 897.125 466.595 896.49 467.23C895.855 467.846 895.029 468.154 894.012 468.154C892.976 468.154 892.145 467.846 891.52 467.23ZM892.794 463.562C892.467 463.898 892.304 464.327 892.304 464.85C892.304 465.373 892.463 465.807 892.78 466.152C893.107 466.488 893.517 466.656 894.012 466.656C894.516 466.656 894.927 466.488 895.244 466.152C895.571 465.816 895.734 465.382 895.734 464.85C895.734 464.327 895.571 463.898 895.244 463.562C894.917 463.226 894.507 463.058 894.012 463.058C893.527 463.058 893.121 463.226 892.794 463.562ZM900.445 468H898.835V461.7H900.291L902.433 464.332L904.463 461.7H905.877V468H904.267V464.15L902.405 466.502H902.363L900.445 464.15V468ZM908.157 463.324L907.751 462.148C908.433 461.747 909.175 461.546 909.977 461.546C910.855 461.546 911.494 461.761 911.895 462.19C912.297 462.619 912.497 463.277 912.497 464.164V468H911.097V467.272C910.724 467.813 910.103 468.084 909.235 468.084C908.638 468.084 908.157 467.911 907.793 467.566C907.439 467.211 907.261 466.74 907.261 466.152C907.261 465.499 907.471 464.995 907.891 464.64C908.311 464.285 908.867 464.108 909.557 464.108C910.127 464.108 910.603 464.243 910.985 464.514C911.004 463.954 910.92 463.543 910.733 463.282C910.556 463.021 910.248 462.89 909.809 462.89C909.324 462.89 908.773 463.035 908.157 463.324ZM909.767 466.726C910.309 466.726 910.715 466.535 910.985 466.152V465.508C910.724 465.303 910.355 465.2 909.879 465.2C909.581 465.2 909.338 465.27 909.151 465.41C908.965 465.55 908.871 465.741 908.871 465.984C908.871 466.208 908.955 466.39 909.123 466.53C909.291 466.661 909.506 466.726 909.767 466.726ZM915.562 463.31H913.49V461.7H919.23V463.31H917.172V468H915.562V463.31ZM922.65 468H920.382V461.7H921.992V463.422H922.776C923.719 463.422 924.414 463.618 924.862 464.01C925.32 464.402 925.548 464.934 925.548 465.606C925.548 466.325 925.306 466.903 924.82 467.342C924.335 467.781 923.612 468 922.65 468ZM928.054 468H926.444V461.7H928.054V468ZM922.636 464.71H921.992V466.6H922.622C923.434 466.6 923.84 466.287 923.84 465.662C923.84 465.027 923.439 464.71 922.636 464.71ZM939.656 461.7H941.56L939.474 464.752L941.728 468H939.824L937.724 464.752L939.656 461.7ZM937.654 468H936.044V461.7H937.654V468ZM932.012 468L934.238 464.752L932.138 461.7H934.098L935.974 464.752L933.93 468H932.012ZM947.295 466.236L947.757 467.37C947.132 467.893 946.329 468.154 945.349 468.154C944.341 468.154 943.52 467.851 942.885 467.244C942.269 466.647 941.961 465.849 941.961 464.85C941.961 463.917 942.264 463.133 942.871 462.498C943.478 461.863 944.285 461.546 945.293 461.546C946.124 461.546 946.828 461.821 947.407 462.372C947.986 462.923 948.275 463.623 948.275 464.472C948.275 464.845 948.242 465.135 948.177 465.34H943.627C943.692 465.797 943.893 466.157 944.229 466.418C944.574 466.679 945.004 466.81 945.517 466.81C946.217 466.81 946.81 466.619 947.295 466.236ZM945.223 462.89C944.308 462.89 943.758 463.347 943.571 464.262H946.665C946.674 463.861 946.544 463.534 946.273 463.282C946.012 463.021 945.662 462.89 945.223 462.89ZM949.572 468V461.7C949.656 461.7 950.01 461.691 950.636 461.672C951.27 461.644 951.742 461.63 952.05 461.63C953.954 461.63 954.906 462.181 954.906 463.282C954.906 463.637 954.794 463.949 954.57 464.22C954.346 464.481 954.066 464.635 953.73 464.682V464.71C954.626 464.925 955.074 465.41 955.074 466.166C955.074 467.435 954.075 468.07 952.078 468.07C951.788 468.07 951.345 468.056 950.748 468.028C950.598 468.028 950.426 468.023 950.23 468.014C950.043 468.014 949.898 468.009 949.796 468C949.702 468 949.628 468 949.572 468ZM952.19 465.326H951.182V466.726C951.742 466.763 952.096 466.782 952.246 466.782C952.6 466.782 952.876 466.717 953.072 466.586C953.277 466.455 953.38 466.278 953.38 466.054C953.38 465.569 952.983 465.326 952.19 465.326ZM952.19 462.932C951.816 462.932 951.48 462.941 951.182 462.96V464.346H952.232C952.521 464.346 952.754 464.281 952.932 464.15C953.109 464.019 953.198 463.842 953.198 463.618C953.198 463.161 952.862 462.932 952.19 462.932ZM957.089 463.324L956.683 462.148C957.364 461.747 958.106 461.546 958.909 461.546C959.786 461.546 960.426 461.761 960.827 462.19C961.228 462.619 961.429 463.277 961.429 464.164V468H960.029V467.272C959.656 467.813 959.035 468.084 958.167 468.084C957.57 468.084 957.089 467.911 956.725 467.566C956.37 467.211 956.193 466.74 956.193 466.152C956.193 465.499 956.403 464.995 956.823 464.64C957.243 464.285 957.798 464.108 958.489 464.108C959.058 464.108 959.534 464.243 959.917 464.514C959.936 463.954 959.852 463.543 959.665 463.282C959.488 463.021 959.18 462.89 958.741 462.89C958.256 462.89 957.705 463.035 957.089 463.324ZM958.699 466.726C959.24 466.726 959.646 466.535 959.917 466.152V465.508C959.656 465.303 959.287 465.2 958.811 465.2C958.512 465.2 958.27 465.27 958.083 465.41C957.896 465.55 957.803 465.741 957.803 465.984C957.803 466.208 957.887 466.39 958.055 466.53C958.223 466.661 958.438 466.726 958.699 466.726ZM966.552 461.7H968.162V468H966.552V465.83C966.085 466.073 965.562 466.194 964.984 466.194C964.2 466.194 963.621 465.989 963.248 465.578C962.884 465.167 962.702 464.547 962.702 463.716V461.7H964.424V463.52C964.424 464.295 964.764 464.682 965.446 464.682C965.884 464.682 966.253 464.598 966.552 464.43V461.7ZM974.899 466.236L975.361 467.37C974.735 467.893 973.933 468.154 972.953 468.154C971.945 468.154 971.123 467.851 970.489 467.244C969.873 466.647 969.565 465.849 969.565 464.85C969.565 463.917 969.868 463.133 970.475 462.498C971.081 461.863 971.889 461.546 972.897 461.546C973.727 461.546 974.432 461.821 975.011 462.372C975.589 462.923 975.879 463.623 975.879 464.472C975.879 464.845 975.846 465.135 975.781 465.34H971.231C971.296 465.797 971.497 466.157 971.833 466.418C972.178 466.679 972.607 466.81 973.121 466.81C973.821 466.81 974.413 466.619 974.899 466.236ZM972.827 462.89C971.912 462.89 971.361 463.347 971.175 464.262H974.269C974.278 463.861 974.147 463.534 973.877 463.282C973.615 463.021 973.265 462.89 972.827 462.89ZM981.109 461.7H983.139L980.717 464.696L983.433 468H981.333L978.841 464.822L981.109 461.7ZM978.785 468H977.175V461.7H978.785V468ZM984.306 467.104C984.306 466.796 984.4 466.549 984.586 466.362C984.782 466.175 985.048 466.082 985.384 466.082C985.748 466.082 986.042 466.231 986.266 466.53C986.5 466.819 986.616 467.193 986.616 467.65C986.616 468.238 986.458 468.742 986.14 469.162C985.832 469.582 985.398 469.871 984.838 470.03L984.404 469.274C984.824 469.115 985.109 468.868 985.258 468.532C985.398 468.243 985.44 468.028 985.384 467.888C985.328 467.963 985.207 468 985.02 468C984.824 468 984.656 467.916 984.516 467.748C984.376 467.571 984.306 467.356 984.306 467.104ZM872.446 476.01L869.506 480H867.896V473.7H869.506V477.69L872.446 473.7H874.056V480H872.446V476.01ZM877.463 480H875.853V473.7H880.081V475.212H877.463V480ZM882.699 482.8H881.089V473.7H882.699V474.302C882.905 474.078 883.185 473.896 883.539 473.756C883.894 473.616 884.263 473.546 884.645 473.546C885.513 473.546 886.204 473.845 886.717 474.442C887.24 475.049 887.501 475.819 887.501 476.752C887.501 477.732 887.193 478.544 886.577 479.188C885.961 479.832 885.159 480.154 884.169 480.154C883.535 480.154 883.045 480.051 882.699 479.846V482.8ZM884.141 475.058C883.581 475.058 883.101 475.287 882.699 475.744V478.292C883.082 478.535 883.525 478.656 884.029 478.656C884.561 478.656 884.986 478.483 885.303 478.138C885.63 477.793 885.793 477.345 885.793 476.794C885.793 476.271 885.644 475.851 885.345 475.534C885.056 475.217 884.655 475.058 884.141 475.058ZM892.892 473.7H894.726L892.248 480C891.8 481.092 891.399 481.829 891.044 482.212C890.699 482.604 890.288 482.8 889.812 482.8C889.364 482.8 888.911 482.637 888.454 482.31L888.972 481.092C889.215 481.241 889.434 481.316 889.63 481.316C890.013 481.316 890.335 480.989 890.596 480.336L890.736 480L887.824 473.7H889.756L891.226 477.144C891.245 477.191 891.347 477.494 891.534 478.054C891.59 477.709 891.665 477.401 891.758 477.13L892.892 473.7ZM904.091 480H895.691V473.7H897.301V478.502H899.079V473.7H900.689V478.502H902.481V473.7H904.091V480ZM910.818 478.236L911.28 479.37C910.655 479.893 909.852 480.154 908.872 480.154C907.864 480.154 907.043 479.851 906.408 479.244C905.792 478.647 905.484 477.849 905.484 476.85C905.484 475.917 905.788 475.133 906.394 474.498C907.001 473.863 907.808 473.546 908.816 473.546C909.647 473.546 910.352 473.821 910.93 474.372C911.509 474.923 911.798 475.623 911.798 476.472C911.798 476.845 911.766 477.135 911.7 477.34H907.15C907.216 477.797 907.416 478.157 907.752 478.418C908.098 478.679 908.527 478.81 909.04 478.81C909.74 478.81 910.333 478.619 910.818 478.236ZM908.746 474.89C907.832 474.89 907.281 475.347 907.094 476.262H910.188C910.198 475.861 910.067 475.534 909.796 475.282C909.535 475.021 909.185 474.89 908.746 474.89ZM917.029 473.7H919.059L916.637 476.696L919.353 480H917.253L914.761 476.822L917.029 473.7ZM914.705 480H913.095V473.7H914.705V480ZM920.226 479.104C920.226 478.796 920.32 478.549 920.506 478.362C920.702 478.175 920.968 478.082 921.304 478.082C921.668 478.082 921.962 478.231 922.186 478.53C922.42 478.819 922.536 479.193 922.536 479.65C922.536 480.238 922.378 480.742 922.06 481.162C921.752 481.582 921.318 481.871 920.758 482.03L920.324 481.274C920.744 481.115 921.029 480.868 921.178 480.532C921.318 480.243 921.36 480.028 921.304 479.888C921.248 479.963 921.127 480 920.94 480C920.744 480 920.576 479.916 920.436 479.748C920.296 479.571 920.226 479.356 920.226 479.104ZM930.318 473.7H932.348L929.926 476.696L932.642 480H930.542L928.05 476.822L930.318 473.7ZM927.994 480H926.384V473.7H927.994V480ZM933.753 479.23C933.127 478.605 932.815 477.811 932.815 476.85C932.815 475.889 933.127 475.1 933.753 474.484C934.378 473.859 935.209 473.546 936.245 473.546C937.271 473.546 938.097 473.859 938.723 474.484C939.357 475.1 939.675 475.889 939.675 476.85C939.675 477.802 939.357 478.595 938.723 479.23C938.088 479.846 937.262 480.154 936.245 480.154C935.209 480.154 934.378 479.846 933.753 479.23ZM935.027 475.562C934.7 475.898 934.537 476.327 934.537 476.85C934.537 477.373 934.695 477.807 935.013 478.152C935.339 478.488 935.75 478.656 936.245 478.656C936.749 478.656 937.159 478.488 937.477 478.152C937.803 477.816 937.967 477.382 937.967 476.85C937.967 476.327 937.803 475.898 937.477 475.562C937.15 475.226 936.739 475.058 936.245 475.058C935.759 475.058 935.353 475.226 935.027 475.562ZM945.786 482.8H944.176V480.154H944.092C943.009 480.154 942.169 479.846 941.572 479.23C940.975 478.623 940.676 477.83 940.676 476.85C940.676 475.954 940.979 475.179 941.586 474.526C942.202 473.873 943.033 473.546 944.078 473.546H944.176V470.2H945.786V473.546H945.898C946.953 473.546 947.779 473.859 948.376 474.484C948.983 475.109 949.286 475.898 949.286 476.85C949.286 477.849 948.987 478.651 948.39 479.258C947.802 479.855 946.971 480.154 945.898 480.154H945.786V482.8ZM945.898 475.058H945.786V478.656H945.842C946.393 478.656 946.817 478.497 947.116 478.18C947.415 477.853 947.564 477.41 947.564 476.85C947.564 476.327 947.415 475.898 947.116 475.562C946.827 475.226 946.421 475.058 945.898 475.058ZM942.398 476.85C942.398 477.401 942.547 477.839 942.846 478.166C943.154 478.493 943.583 478.656 944.134 478.656H944.176V475.058H944.064C943.523 475.058 943.107 475.221 942.818 475.548C942.538 475.875 942.398 476.309 942.398 476.85ZM955.621 478.236L956.083 479.37C955.458 479.893 954.655 480.154 953.675 480.154C952.667 480.154 951.846 479.851 951.211 479.244C950.595 478.647 950.287 477.849 950.287 476.85C950.287 475.917 950.591 475.133 951.197 474.498C951.804 473.863 952.611 473.546 953.619 473.546C954.45 473.546 955.155 473.821 955.733 474.372C956.312 474.923 956.601 475.623 956.601 476.472C956.601 476.845 956.569 477.135 956.503 477.34H951.953C952.019 477.797 952.219 478.157 952.555 478.418C952.901 478.679 953.33 478.81 953.843 478.81C954.543 478.81 955.136 478.619 955.621 478.236ZM953.549 474.89C952.635 474.89 952.084 475.347 951.897 476.262H954.991C955.001 475.861 954.87 475.534 954.599 475.282C954.338 475.021 953.988 474.89 953.549 474.89Z" fill="black"></path>
    <path d="M942.318 253.81H939.14V252.2H947.218V253.81H944.04V262H942.318V253.81ZM951.346 260.236L951.808 261.37C951.182 261.893 950.38 262.154 949.4 262.154C948.392 262.154 947.57 261.851 946.936 261.244C946.32 260.647 946.012 259.849 946.012 258.85C946.012 257.917 946.315 257.133 946.922 256.498C947.528 255.863 948.336 255.546 949.344 255.546C950.174 255.546 950.879 255.821 951.458 256.372C952.036 256.923 952.326 257.623 952.326 258.472C952.326 258.845 952.293 259.135 952.228 259.34H947.678C947.743 259.797 947.944 260.157 948.28 260.418C948.625 260.679 949.054 260.81 949.568 260.81C950.268 260.81 950.86 260.619 951.346 260.236ZM949.274 256.89C948.359 256.89 947.808 257.347 947.622 258.262H950.716C950.725 257.861 950.594 257.534 950.324 257.282C950.062 257.021 949.712 256.89 949.274 256.89ZM957.557 255.7H959.587L957.165 258.696L959.881 262H957.781L955.289 258.822L957.557 255.7ZM955.233 262H953.623V255.7H955.233V262ZM965.219 259.886L965.975 261.062C965.443 261.79 964.607 262.154 963.469 262.154C962.451 262.154 961.625 261.851 960.991 261.244C960.365 260.647 960.053 259.849 960.053 258.85C960.053 257.907 960.361 257.123 960.977 256.498C961.593 255.863 962.372 255.546 963.315 255.546C964.435 255.546 965.279 255.831 965.849 256.4L965.093 257.674C964.663 257.263 964.141 257.058 963.525 257.058C963.058 257.058 962.647 257.226 962.293 257.562C961.947 257.879 961.775 258.309 961.775 258.85C961.775 259.391 961.952 259.83 962.307 260.166C962.68 260.493 963.109 260.656 963.595 260.656C964.22 260.656 964.761 260.399 965.219 259.886ZM968.558 257.31H966.486V255.7H972.226V257.31H970.168V262H968.558V257.31ZM977.928 258.01L974.988 262H973.378V255.7H974.988V259.69L977.928 255.7H979.538V262H977.928V258.01ZM987.089 262H985.479V257.31H983.813L983.771 257.982C983.65 259.121 983.473 259.989 983.239 260.586C983.015 261.183 982.726 261.589 982.371 261.804C982.026 262.009 981.545 262.117 980.929 262.126L980.789 260.558C980.995 260.567 981.186 260.511 981.363 260.39C981.569 260.241 981.751 259.928 981.909 259.452C982.068 258.976 982.171 258.379 982.217 257.66L982.315 255.7H987.089V262ZM991.234 262H988.882V255.7H990.492V257.422H991.36C992.303 257.422 992.998 257.618 993.446 258.01C993.904 258.402 994.132 258.934 994.132 259.606C994.132 260.325 993.89 260.903 993.404 261.342C992.919 261.781 992.196 262 991.234 262ZM991.22 258.71H990.492V260.6H991.206C992.018 260.6 992.424 260.287 992.424 259.662C992.424 259.027 992.023 258.71 991.22 258.71Z" fill="black"></path>
    <path d="M1041 48.4V59.642H1031.2V57.92H1039.39V54.882H1031.2V53.16H1039.39V50.122H1031.2V48.4H1041ZM1036.32 45.655L1035.15 46.061C1034.75 45.3797 1034.55 44.6377 1034.55 43.835C1034.55 42.9577 1034.76 42.3183 1035.19 41.917C1035.62 41.5157 1036.28 41.315 1037.16 41.315H1041V42.715H1040.27C1040.81 43.0883 1041.08 43.709 1041.08 44.577C1041.08 45.1743 1040.91 45.655 1040.57 46.019C1040.21 46.3737 1039.74 46.551 1039.15 46.551C1038.5 46.551 1037.99 46.341 1037.64 45.921C1037.29 45.501 1037.11 44.9457 1037.11 44.255C1037.11 43.6857 1037.24 43.2097 1037.51 42.827C1036.95 42.8083 1036.54 42.8923 1036.28 43.079C1036.02 43.2563 1035.89 43.5643 1035.89 44.003C1035.89 44.4883 1036.03 45.039 1036.32 45.655ZM1039.73 44.045C1039.73 43.5037 1039.53 43.0977 1039.15 42.827H1038.51C1038.3 43.0883 1038.2 43.457 1038.2 43.933C1038.2 44.2317 1038.27 44.4743 1038.41 44.661C1038.55 44.8477 1038.74 44.941 1038.98 44.941C1039.21 44.941 1039.39 44.857 1039.53 44.689C1039.66 44.521 1039.73 44.3063 1039.73 44.045ZM1034.7 35.4225V33.5885L1041 36.0665C1042.09 36.5145 1042.83 36.9159 1043.21 37.2705C1043.6 37.6159 1043.8 38.0265 1043.8 38.5025C1043.8 38.9505 1043.64 39.4032 1043.31 39.8605L1042.09 39.3425C1042.24 39.0999 1042.32 38.8805 1042.32 38.6845C1042.32 38.3019 1041.99 37.9799 1041.34 37.7185L1041 37.5785L1034.7 40.4905V38.5585L1038.14 37.0885C1038.19 37.0699 1038.49 36.9672 1039.05 36.7805C1038.71 36.7245 1038.4 36.6499 1038.13 36.5565L1034.7 35.4225ZM1043.8 31.0135V32.6235H1034.7V31.0135H1035.3C1035.08 30.8082 1034.9 30.5282 1034.76 30.1735C1034.62 29.8189 1034.55 29.4502 1034.55 29.0675C1034.55 28.1995 1034.84 27.5089 1035.44 26.9955C1036.05 26.4729 1036.82 26.2115 1037.75 26.2115C1038.73 26.2115 1039.54 26.5195 1040.19 27.1355C1040.83 27.7515 1041.15 28.5542 1041.15 29.5435C1041.15 30.1782 1041.05 30.6682 1040.85 31.0135L1043.8 31.0135ZM1036.06 29.5715C1036.06 30.1315 1036.29 30.6122 1036.74 31.0135H1039.29C1039.53 30.6309 1039.66 30.1875 1039.66 29.6835C1039.66 29.1515 1039.48 28.7269 1039.14 28.4095C1038.79 28.0829 1038.34 27.9195 1037.79 27.9195C1037.27 27.9195 1036.85 28.0689 1036.53 28.3675C1036.22 28.6569 1036.06 29.0582 1036.06 29.5715ZM1041 23.2069V24.8169H1034.7V23.3609L1037.33 21.2189L1034.7 19.1889V17.7749H1041V19.3849H1037.15L1039.5 21.2469V21.2889L1037.15 23.2069H1041ZM1036.32 15.4949L1035.15 15.9009C1034.75 15.2195 1034.55 14.4775 1034.55 13.6749C1034.55 12.7975 1034.76 12.1582 1035.19 11.7569C1035.62 11.3555 1036.28 11.1549 1037.16 11.1549H1041V12.5549H1040.27C1040.81 12.9282 1041.08 13.5489 1041.08 14.4169C1041.08 15.0142 1040.91 15.4949 1040.57 15.8589C1040.21 16.2135 1039.74 16.3909 1039.15 16.3909C1038.5 16.3909 1037.99 16.1809 1037.64 15.7609C1037.29 15.3409 1037.11 14.7855 1037.11 14.0949C1037.11 13.5255 1037.24 13.0495 1037.51 12.6669C1036.95 12.6482 1036.54 12.7322 1036.28 12.9189C1036.02 13.0962 1035.89 13.4042 1035.89 13.8429C1035.89 14.3282 1036.03 14.8789 1036.32 15.4949ZM1039.73 13.8849C1039.73 13.3435 1039.53 12.9375 1039.15 12.6669H1038.51C1038.3 12.9282 1038.2 13.2969 1038.2 13.7729C1038.2 14.0715 1038.27 14.3142 1038.41 14.5009C1038.55 14.6875 1038.74 14.7809 1038.98 14.7809C1039.21 14.7809 1039.39 14.6969 1039.53 14.5289C1039.66 14.3609 1039.73 14.1462 1039.73 13.8849Z" fill="black"></path>
    <path d="M1036.1 270.37C1034.67 270.37 1033.47 269.894 1032.5 268.942C1031.53 267.971 1031.05 266.749 1031.05 265.274C1031.05 263.799 1031.51 262.581 1032.45 261.62C1033.39 260.649 1034.61 260.164 1036.1 260.164C1037.57 260.164 1038.77 260.649 1039.73 261.62C1040.68 262.591 1041.15 263.809 1041.15 265.274C1041.15 266.749 1040.69 267.967 1039.75 268.928C1038.82 269.889 1037.6 270.37 1036.1 270.37ZM1036.1 268.55C1037.09 268.55 1037.91 268.237 1038.56 267.612C1039.22 266.987 1039.54 266.207 1039.54 265.274C1039.54 264.266 1039.22 263.468 1038.56 262.88C1037.91 262.283 1037.09 261.984 1036.1 261.984C1035.1 261.984 1034.28 262.301 1033.62 262.936C1032.98 263.571 1032.66 264.35 1032.66 265.274C1032.66 266.217 1032.98 267.001 1033.62 267.626C1034.27 268.242 1035.09 268.55 1036.1 268.55ZM1041 258.633H1034.7C1034.7 258.549 1034.69 258.195 1034.67 257.569C1034.64 256.935 1034.63 256.463 1034.63 256.155C1034.63 254.251 1035.18 253.299 1036.28 253.299C1036.64 253.299 1036.95 253.411 1037.22 253.635C1037.48 253.859 1037.64 254.139 1037.68 254.475H1037.71C1037.92 253.579 1038.41 253.131 1039.17 253.131C1040.44 253.131 1041.07 254.13 1041.07 256.127C1041.07 256.417 1041.06 256.86 1041.03 257.457C1041.03 257.607 1041.02 257.779 1041.01 257.975C1041.01 258.162 1041.01 258.307 1041 258.409C1041 258.503 1041 258.577 1041 258.633ZM1038.33 256.015V257.023H1039.73C1039.76 256.463 1039.78 256.109 1039.78 255.959C1039.78 255.605 1039.72 255.329 1039.59 255.133C1039.46 254.928 1039.28 254.825 1039.05 254.825C1038.57 254.825 1038.33 255.222 1038.33 256.015ZM1035.93 256.015C1035.93 256.389 1035.94 256.725 1035.96 257.023H1037.35V255.973C1037.35 255.684 1037.28 255.451 1037.15 255.273C1037.02 255.096 1036.84 255.007 1036.62 255.007C1036.16 255.007 1035.93 255.343 1035.93 256.015ZM1040.23 251.06C1039.6 251.685 1038.81 251.998 1037.85 251.998C1036.89 251.998 1036.1 251.685 1035.48 251.06C1034.86 250.435 1034.55 249.604 1034.55 248.568C1034.55 247.541 1034.86 246.715 1035.48 246.09C1036.1 245.455 1036.89 245.138 1037.85 245.138C1038.8 245.138 1039.6 245.455 1040.23 246.09C1040.85 246.725 1041.15 247.551 1041.15 248.568C1041.15 249.604 1040.85 250.435 1040.23 251.06ZM1036.56 249.786C1036.9 250.113 1037.33 250.276 1037.85 250.276C1038.37 250.276 1038.81 250.117 1039.15 249.8C1039.49 249.473 1039.66 249.063 1039.66 248.568C1039.66 248.064 1039.49 247.653 1039.15 247.336C1038.82 247.009 1038.38 246.846 1037.85 246.846C1037.33 246.846 1036.9 247.009 1036.56 247.336C1036.23 247.663 1036.06 248.073 1036.06 248.568C1036.06 249.053 1036.23 249.459 1036.56 249.786ZM1041 235.807V243.745H1034.7V242.135H1039.5V240.357H1034.7V238.747H1039.5V236.955H1034.7V235.345H1039.5V234.295H1042.47V235.807H1041ZM1037.01 228.681L1041 231.621V233.231H1034.7V231.621H1038.69L1034.7 228.681V227.071H1041V228.681H1037.01ZM1037.01 217.757L1041 220.697V222.307H1034.7V220.697H1038.69L1034.7 217.757V216.147H1041V217.757H1037.01ZM1043.8 206.665V208.275H1041.15V208.359C1041.15 209.442 1040.85 210.282 1040.23 210.879C1039.62 211.477 1038.83 211.775 1037.85 211.775C1036.95 211.775 1036.18 211.472 1035.53 210.865C1034.87 210.249 1034.55 209.419 1034.55 208.373V208.275H1031.2V206.665H1034.55V206.553C1034.55 205.499 1034.86 204.673 1035.48 204.075C1036.11 203.469 1036.9 203.165 1037.85 203.165C1038.85 203.165 1039.65 203.464 1040.26 204.061C1040.86 204.649 1041.15 205.48 1041.15 206.553V206.665H1043.8ZM1036.06 206.553V206.665H1039.66V206.609C1039.66 206.059 1039.5 205.634 1039.18 205.335C1038.85 205.037 1038.41 204.887 1037.85 204.887C1037.33 204.887 1036.9 205.037 1036.56 205.335C1036.23 205.625 1036.06 206.031 1036.06 206.553ZM1037.85 210.053C1038.4 210.053 1038.84 209.904 1039.17 209.605C1039.49 209.297 1039.66 208.868 1039.66 208.317V208.275H1036.06V208.387C1036.06 208.929 1036.22 209.344 1036.55 209.633C1036.87 209.913 1037.31 210.053 1037.85 210.053ZM1043.8 200.162V201.772H1034.7V200.162H1035.3C1035.08 199.957 1034.9 199.677 1034.76 199.322C1034.62 198.967 1034.55 198.599 1034.55 198.216C1034.55 197.348 1034.84 196.657 1035.44 196.144C1036.05 195.621 1036.82 195.36 1037.75 195.36C1038.73 195.36 1039.54 195.668 1040.19 196.284C1040.83 196.9 1041.15 197.703 1041.15 198.692C1041.15 199.327 1041.05 199.817 1040.85 200.162H1043.8ZM1036.06 198.72C1036.06 199.28 1036.29 199.761 1036.74 200.162H1039.29C1039.53 199.779 1039.66 199.336 1039.66 198.832C1039.66 198.3 1039.48 197.875 1039.14 197.558C1038.79 197.231 1038.34 197.068 1037.79 197.068C1037.27 197.068 1036.85 197.217 1036.53 197.516C1036.22 197.805 1036.06 198.207 1036.06 198.72ZM1034.7 189.969V188.135L1041 190.613C1042.09 191.061 1042.83 191.463 1043.21 191.817C1043.6 192.163 1043.8 192.573 1043.8 193.049C1043.8 193.497 1043.64 193.95 1043.31 194.407L1042.09 193.889C1042.24 193.647 1042.32 193.427 1042.32 193.231C1042.32 192.849 1041.99 192.527 1041.34 192.265L1041 192.125L1034.7 195.037V193.105L1038.14 191.635C1038.19 191.617 1038.49 191.514 1039.05 191.327C1038.71 191.271 1038.4 191.197 1038.13 191.103L1034.7 189.969ZM1034.7 183.236V181.206L1037.7 183.628L1041 180.912V183.012L1037.82 185.504L1034.7 183.236ZM1041 185.56V187.17H1034.7V185.56H1041ZM1036.31 178.551V180.623H1034.7V174.883H1036.31V176.941H1041V178.551H1036.31ZM1041 171.463V173.731H1034.7V172.121H1036.42V171.337C1036.42 170.394 1036.62 169.699 1037.01 169.251C1037.4 168.794 1037.93 168.565 1038.61 168.565C1039.32 168.565 1039.9 168.808 1040.34 169.293C1040.78 169.778 1041 170.502 1041 171.463ZM1041 166.059V167.669H1034.7V166.059H1041ZM1037.71 171.477V172.121H1039.6V171.491C1039.6 170.679 1039.29 170.273 1038.66 170.273C1038.03 170.273 1037.71 170.674 1037.71 171.477Z" fill="black"></path>
    <path d="M1039 554.92V556.642H1029.2V554.906L1033.78 551.56L1029.2 548.368V546.744H1039V548.452H1031.92L1036.27 551.546V551.798L1031.96 554.92H1039ZM1032.7 541.405V539.347H1039V540.957H1037.11V541.853L1039 543.155V545.003L1036.76 543.323C1036.64 543.668 1036.42 543.958 1036.1 544.191C1035.78 544.424 1035.39 544.541 1034.94 544.541C1034.25 544.541 1033.7 544.28 1033.3 543.757C1032.9 543.225 1032.7 542.441 1032.7 541.405ZM1035.05 542.819C1035.29 542.819 1035.5 542.716 1035.67 542.511C1035.84 542.306 1035.92 542.068 1035.92 541.797V540.957H1034.1V541.671C1034.1 542.026 1034.19 542.306 1034.38 542.511C1034.56 542.716 1034.78 542.819 1035.05 542.819ZM1039 535.943V537.553H1032.7V533.325H1034.21V535.943H1039ZM1032.7 528.383V526.353L1035.7 528.775L1039 526.059V528.159L1035.82 530.651L1032.7 528.383ZM1039 530.707V532.317H1032.7V530.707H1039ZM1038.23 524.949C1037.6 525.574 1036.81 525.887 1035.85 525.887C1034.89 525.887 1034.1 525.574 1033.48 524.949C1032.86 524.323 1032.55 523.493 1032.55 522.457C1032.55 521.43 1032.86 520.604 1033.48 519.979C1034.1 519.344 1034.89 519.027 1035.85 519.027C1036.8 519.027 1037.6 519.344 1038.23 519.979C1038.85 520.613 1039.15 521.439 1039.15 522.457C1039.15 523.493 1038.85 524.323 1038.23 524.949ZM1034.56 523.675C1034.9 524.001 1035.33 524.165 1035.85 524.165C1036.37 524.165 1036.81 524.006 1037.15 523.689C1037.49 523.362 1037.66 522.951 1037.66 522.457C1037.66 521.953 1037.49 521.542 1037.15 521.225C1036.82 520.898 1036.38 520.735 1035.85 520.735C1035.33 520.735 1034.9 520.898 1034.56 521.225C1034.23 521.551 1034.06 521.962 1034.06 522.457C1034.06 522.942 1034.23 523.348 1034.56 523.675ZM1037.24 512.691L1038.37 512.229C1038.89 512.855 1039.15 513.657 1039.15 514.637C1039.15 515.645 1038.85 516.467 1038.24 517.101C1037.65 517.717 1036.85 518.025 1035.85 518.025C1034.92 518.025 1034.13 517.722 1033.5 517.115C1032.86 516.509 1032.55 515.701 1032.55 514.693C1032.55 513.863 1032.82 513.158 1033.37 512.579C1033.92 512.001 1034.62 511.711 1035.47 511.711C1035.85 511.711 1036.13 511.744 1036.34 511.809V516.359C1036.8 516.294 1037.16 516.093 1037.42 515.757C1037.68 515.412 1037.81 514.983 1037.81 514.469C1037.81 513.769 1037.62 513.177 1037.24 512.691ZM1033.89 514.763C1033.89 515.678 1034.35 516.229 1035.26 516.415V513.321C1034.86 513.312 1034.53 513.443 1034.28 513.713C1034.02 513.975 1033.89 514.325 1033.89 514.763ZM1039 505.838V507.448H1032.7V505.992L1035.33 503.85L1032.7 501.82V500.406H1039V502.016H1035.15L1037.5 503.878V503.92L1035.15 505.838H1039ZM1038.23 498.07C1037.6 498.695 1036.81 499.008 1035.85 499.008C1034.89 499.008 1034.1 498.695 1033.48 498.07C1032.86 497.444 1032.55 496.614 1032.55 495.578C1032.55 494.551 1032.86 493.725 1033.48 493.1C1034.1 492.465 1034.89 492.148 1035.85 492.148C1036.8 492.148 1037.6 492.465 1038.23 493.1C1038.85 493.734 1039.15 494.56 1039.15 495.578C1039.15 496.614 1038.85 497.444 1038.23 498.07ZM1034.56 496.796C1034.9 497.122 1035.33 497.286 1035.85 497.286C1036.37 497.286 1036.81 497.127 1037.15 496.81C1037.49 496.483 1037.66 496.072 1037.66 495.578C1037.66 495.074 1037.49 494.663 1037.15 494.346C1036.82 494.019 1036.38 493.856 1035.85 493.856C1035.33 493.856 1034.9 494.019 1034.56 494.346C1034.23 494.672 1034.06 495.083 1034.06 495.578C1034.06 496.063 1034.23 496.469 1034.56 496.796ZM1041.8 489.144V490.754H1032.7V489.144H1033.3C1033.08 488.939 1032.9 488.659 1032.76 488.304C1032.62 487.95 1032.55 487.581 1032.55 487.198C1032.55 486.33 1032.84 485.64 1033.44 485.126C1034.05 484.604 1034.82 484.342 1035.75 484.342C1036.73 484.342 1037.54 484.65 1038.19 485.266C1038.83 485.882 1039.15 486.685 1039.15 487.674C1039.15 488.309 1039.05 488.799 1038.85 489.144H1041.8ZM1034.06 487.702C1034.06 488.262 1034.29 488.743 1034.74 489.144H1037.29C1037.53 488.762 1037.66 488.318 1037.66 487.814C1037.66 487.282 1037.48 486.858 1037.14 486.54C1036.79 486.214 1036.34 486.05 1035.79 486.05C1035.27 486.05 1034.85 486.2 1034.53 486.498C1034.22 486.788 1034.06 487.189 1034.06 487.702ZM1038.23 482.402C1037.6 483.027 1036.81 483.34 1035.85 483.34C1034.89 483.34 1034.1 483.027 1033.48 482.402C1032.86 481.776 1032.55 480.946 1032.55 479.91C1032.55 478.883 1032.86 478.057 1033.48 477.432C1034.1 476.797 1034.89 476.48 1035.85 476.48C1036.8 476.48 1037.6 476.797 1038.23 477.432C1038.85 478.066 1039.15 478.892 1039.15 479.91C1039.15 480.946 1038.85 481.776 1038.23 482.402ZM1034.56 481.128C1034.9 481.454 1035.33 481.618 1035.85 481.618C1036.37 481.618 1036.81 481.459 1037.15 481.142C1037.49 480.815 1037.66 480.404 1037.66 479.91C1037.66 479.406 1037.49 478.995 1037.15 478.678C1036.82 478.351 1036.38 478.188 1035.85 478.188C1035.33 478.188 1034.9 478.351 1034.56 478.678C1034.23 479.004 1034.06 479.415 1034.06 479.91C1034.06 480.395 1034.23 480.801 1034.56 481.128ZM1032.7 468.623V466.719L1035.75 468.805L1039 466.551V468.455L1035.75 470.555L1032.7 468.623ZM1039 470.625V472.235H1032.7V470.625H1039ZM1039 476.267L1035.75 474.041L1032.7 476.141V474.181L1035.75 472.305L1039 474.349V476.267ZM1037.24 460.984L1038.37 460.522C1038.89 461.148 1039.15 461.95 1039.15 462.93C1039.15 463.938 1038.85 464.76 1038.24 465.394C1037.65 466.01 1036.85 466.318 1035.85 466.318C1034.92 466.318 1034.13 466.015 1033.5 465.408C1032.86 464.802 1032.55 463.994 1032.55 462.986C1032.55 462.156 1032.82 461.451 1033.37 460.872C1033.92 460.294 1034.62 460.004 1035.47 460.004C1035.85 460.004 1036.13 460.037 1036.34 460.102V464.652C1036.8 464.587 1037.16 464.386 1037.42 464.05C1037.68 463.705 1037.81 463.276 1037.81 462.762C1037.81 462.062 1037.62 461.47 1037.24 460.984ZM1033.89 463.056C1033.89 463.971 1034.35 464.522 1035.26 464.708V461.614C1034.86 461.605 1034.53 461.736 1034.28 462.006C1034.02 462.268 1033.89 462.618 1033.89 463.056ZM1039 452.73V454.34H1036.59V457.098H1039V458.708H1032.7V457.098H1035.08V454.34H1032.7V452.73H1039ZM1038.23 450.396C1037.6 451.021 1036.81 451.334 1035.85 451.334C1034.89 451.334 1034.1 451.021 1033.48 450.396C1032.86 449.771 1032.55 448.94 1032.55 447.904C1032.55 446.877 1032.86 446.051 1033.48 445.426C1034.1 444.791 1034.89 444.474 1035.85 444.474C1036.8 444.474 1037.6 444.791 1038.23 445.426C1038.85 446.061 1039.15 446.887 1039.15 447.904C1039.15 448.94 1038.85 449.771 1038.23 450.396ZM1034.56 449.122C1034.9 449.449 1035.33 449.612 1035.85 449.612C1036.37 449.612 1036.81 449.453 1037.15 449.136C1037.49 448.809 1037.66 448.399 1037.66 447.904C1037.66 447.4 1037.49 446.989 1037.15 446.672C1036.82 446.345 1036.38 446.182 1035.85 446.182C1035.33 446.182 1034.9 446.345 1034.56 446.672C1034.23 446.999 1034.06 447.409 1034.06 447.904C1034.06 448.389 1034.23 448.795 1034.56 449.122ZM1037.24 438.139L1038.37 437.677C1038.89 438.302 1039.15 439.105 1039.15 440.085C1039.15 441.093 1038.85 441.914 1038.24 442.549C1037.65 443.165 1036.85 443.473 1035.85 443.473C1034.92 443.473 1034.13 443.169 1033.5 442.563C1032.86 441.956 1032.55 441.149 1032.55 440.141C1032.55 439.31 1032.82 438.605 1033.37 438.027C1033.92 437.448 1034.62 437.159 1035.47 437.159C1035.85 437.159 1036.13 437.191 1036.34 437.257V441.807C1036.8 441.741 1037.16 441.541 1037.42 441.205C1037.68 440.859 1037.81 440.43 1037.81 439.917C1037.81 439.217 1037.62 438.624 1037.24 438.139ZM1033.89 440.211C1033.89 441.125 1034.35 441.676 1035.26 441.863V438.769C1034.86 438.759 1034.53 438.89 1034.28 439.161C1034.02 439.422 1033.89 439.772 1033.89 440.211Z" fill="black"></path>
    <path d="M772.08 297H770.358V287.2H772.08V291.848L775.944 287.2H778.016L773.984 291.764L778.268 297H776.084L772.08 291.946V297ZM779.219 296.23C778.594 295.605 778.281 294.811 778.281 293.85C778.281 292.889 778.594 292.1 779.219 291.484C779.845 290.859 780.675 290.546 781.711 290.546C782.738 290.546 783.564 290.859 784.189 291.484C784.824 292.1 785.141 292.889 785.141 293.85C785.141 294.802 784.824 295.595 784.189 296.23C783.555 296.846 782.729 297.154 781.711 297.154C780.675 297.154 779.845 296.846 779.219 296.23ZM780.493 292.562C780.167 292.898 780.003 293.327 780.003 293.85C780.003 294.373 780.162 294.807 780.479 295.152C780.806 295.488 781.217 295.656 781.711 295.656C782.215 295.656 782.626 295.488 782.943 295.152C783.27 294.816 783.433 294.382 783.433 293.85C783.433 293.327 783.27 292.898 782.943 292.562C782.617 292.226 782.206 292.058 781.711 292.058C781.226 292.058 780.82 292.226 780.493 292.562ZM792.513 297H790.903V294.592H788.145V297H786.535V290.7H788.145V293.08H790.903V290.7H792.513V297ZM795.042 298.47H793.544V295.502H794.342C794.837 294.839 795.131 293.743 795.224 292.212L795.322 290.7H799.97V295.502H801.02V298.47H799.508V297H795.042V298.47ZM796.82 292.212L796.778 292.856C796.666 294.069 796.414 294.951 796.022 295.502H798.36V292.212H796.82ZM806.63 293.01L803.69 297H802.08V290.7H803.69V294.69L806.63 290.7H808.24V297H806.63V293.01ZM811.451 292.31H809.379V290.7H815.119V292.31H813.061V297H811.451V292.31ZM821.022 295.236L821.484 296.37C820.858 296.893 820.056 297.154 819.076 297.154C818.068 297.154 817.246 296.851 816.612 296.244C815.996 295.647 815.688 294.849 815.688 293.85C815.688 292.917 815.991 292.133 816.598 291.498C817.204 290.863 818.012 290.546 819.02 290.546C819.85 290.546 820.555 290.821 821.134 291.372C821.712 291.923 822.002 292.623 822.002 293.472C822.002 293.845 821.969 294.135 821.904 294.34H817.354C817.419 294.797 817.62 295.157 817.956 295.418C818.301 295.679 818.73 295.81 819.244 295.81C819.944 295.81 820.536 295.619 821.022 295.236ZM818.95 291.89C818.035 291.89 817.484 292.347 817.298 293.262H820.392C820.401 292.861 820.27 292.534 820 292.282C819.738 292.021 819.388 291.89 818.95 291.89ZM824.908 299.8H823.298V290.7H824.908V291.302C825.114 291.078 825.394 290.896 825.748 290.756C826.103 290.616 826.472 290.546 826.854 290.546C827.722 290.546 828.413 290.845 828.926 291.442C829.449 292.049 829.71 292.819 829.71 293.752C829.71 294.732 829.402 295.544 828.786 296.188C828.17 296.832 827.368 297.154 826.378 297.154C825.744 297.154 825.254 297.051 824.908 296.846V299.8ZM826.35 292.058C825.79 292.058 825.31 292.287 824.908 292.744V295.292C825.291 295.535 825.734 295.656 826.238 295.656C826.77 295.656 827.195 295.483 827.512 295.138C827.839 294.793 828.002 294.345 828.002 293.794C828.002 293.271 827.853 292.851 827.554 292.534C827.265 292.217 826.864 292.058 826.35 292.058ZM834.851 293.92H831.323V292.422H834.851V293.92ZM774.67 306.886L775.426 308.062C774.894 308.79 774.059 309.154 772.92 309.154C771.903 309.154 771.077 308.851 770.442 308.244C769.817 307.647 769.504 306.849 769.504 305.85C769.504 304.907 769.812 304.123 770.428 303.498C771.044 302.863 771.823 302.546 772.766 302.546C773.886 302.546 774.731 302.831 775.3 303.4L774.544 304.674C774.115 304.263 773.592 304.058 772.976 304.058C772.509 304.058 772.099 304.226 771.744 304.562C771.399 304.879 771.226 305.309 771.226 305.85C771.226 306.391 771.403 306.83 771.758 307.166C772.131 307.493 772.561 307.656 773.046 307.656C773.671 307.656 774.213 307.399 774.67 306.886ZM780.652 302.7H782.682L780.26 305.696L782.976 309H780.876L778.384 305.822L780.652 302.7ZM778.328 309H776.718V302.7H778.328V309ZM784.413 304.324L784.007 303.148C784.689 302.747 785.431 302.546 786.233 302.546C787.111 302.546 787.75 302.761 788.151 303.19C788.553 303.619 788.753 304.277 788.753 305.164V309H787.353V308.272C786.98 308.813 786.359 309.084 785.491 309.084C784.894 309.084 784.413 308.911 784.049 308.566C783.695 308.211 783.517 307.74 783.517 307.152C783.517 306.499 783.727 305.995 784.147 305.64C784.567 305.285 785.123 305.108 785.813 305.108C786.383 305.108 786.859 305.243 787.241 305.514C787.26 304.954 787.176 304.543 786.989 304.282C786.812 304.021 786.504 303.89 786.065 303.89C785.58 303.89 785.029 304.035 784.413 304.324ZM786.023 307.726C786.565 307.726 786.971 307.535 787.241 307.152V306.508C786.98 306.303 786.611 306.2 786.135 306.2C785.837 306.2 785.594 306.27 785.407 306.41C785.221 306.55 785.127 306.741 785.127 306.984C785.127 307.208 785.211 307.39 785.379 307.53C785.547 307.661 785.762 307.726 786.023 307.726ZM793.484 302.7H795.542V309H793.932V307.11H793.036L791.734 309H789.886L791.566 306.76C791.22 306.639 790.931 306.419 790.698 306.102C790.464 305.775 790.348 305.388 790.348 304.94C790.348 304.249 790.609 303.703 791.132 303.302C791.664 302.901 792.448 302.7 793.484 302.7ZM792.07 305.052C792.07 305.295 792.172 305.5 792.378 305.668C792.583 305.836 792.821 305.92 793.092 305.92H793.932V304.1H793.218C792.863 304.1 792.583 304.193 792.378 304.38C792.172 304.557 792.07 304.781 792.07 305.052Z" fill="black"></path>
    <path d="M811.358 143.986V134.228C812.366 134.181 813.309 134.158 814.186 134.158C815.269 134.158 816.076 134.373 816.608 134.802C817.14 135.231 817.406 135.824 817.406 136.58C817.406 137.635 816.939 138.377 816.006 138.806V138.834C816.538 138.974 816.958 139.24 817.266 139.632C817.574 140.015 817.728 140.509 817.728 141.116C817.728 142.068 817.401 142.796 816.748 143.3C816.095 143.804 815.208 144.056 814.088 144.056C812.968 144.056 812.058 144.033 811.358 143.986ZM814.298 139.786H813.08V142.376C813.519 142.423 813.897 142.446 814.214 142.446C815.409 142.446 816.006 141.975 816.006 141.032C816.006 140.621 815.857 140.313 815.558 140.108C815.259 139.893 814.839 139.786 814.298 139.786ZM814.158 135.768C813.747 135.768 813.388 135.782 813.08 135.81V138.288H814.242C814.681 138.288 815.031 138.176 815.292 137.952C815.563 137.728 815.698 137.406 815.698 136.986C815.698 136.594 815.563 136.295 815.292 136.09C815.021 135.875 814.643 135.768 814.158 135.768ZM824.311 141.886L825.067 143.062C824.535 143.79 823.699 144.154 822.561 144.154C821.543 144.154 820.717 143.851 820.083 143.244C819.457 142.647 819.145 141.849 819.145 140.85C819.145 139.907 819.453 139.123 820.069 138.498C820.685 137.863 821.464 137.546 822.407 137.546C823.527 137.546 824.371 137.831 824.941 138.4L824.185 139.674C823.755 139.263 823.233 139.058 822.617 139.058C822.15 139.058 821.739 139.226 821.385 139.562C821.039 139.879 820.867 140.309 820.867 140.85C820.867 141.391 821.044 141.83 821.399 142.166C821.772 142.493 822.201 142.656 822.687 142.656C823.312 142.656 823.853 142.399 824.311 141.886ZM830.959 142.236L831.421 143.37C830.796 143.893 829.993 144.154 829.013 144.154C828.005 144.154 827.184 143.851 826.549 143.244C825.933 142.647 825.625 141.849 825.625 140.85C825.625 139.917 825.928 139.133 826.535 138.498C827.142 137.863 827.949 137.546 828.957 137.546C829.788 137.546 830.492 137.821 831.071 138.372C831.65 138.923 831.939 139.623 831.939 140.472C831.939 140.845 831.906 141.135 831.841 141.34H827.291C827.356 141.797 827.557 142.157 827.893 142.418C828.238 142.679 828.668 142.81 829.181 142.81C829.881 142.81 830.474 142.619 830.959 142.236ZM828.887 138.89C827.972 138.89 827.422 139.347 827.235 140.262H830.329C830.338 139.861 830.208 139.534 829.937 139.282C829.676 139.021 829.326 138.89 828.887 138.89ZM826.647 135.614C826.647 135.343 826.731 135.129 826.899 134.97C827.076 134.802 827.296 134.718 827.557 134.718C827.79 134.718 827.986 134.802 828.145 134.97C828.313 135.138 828.397 135.353 828.397 135.614C828.397 135.894 828.313 136.123 828.145 136.3C827.986 136.468 827.79 136.552 827.557 136.552C827.296 136.552 827.076 136.468 826.899 136.3C826.731 136.123 826.647 135.894 826.647 135.614ZM829.433 135.614C829.433 135.343 829.517 135.129 829.685 134.97C829.853 134.802 830.068 134.718 830.329 134.718C830.562 134.718 830.758 134.802 830.917 134.97C831.085 135.138 831.169 135.353 831.169 135.614C831.169 135.894 831.085 136.123 830.917 136.3C830.758 136.468 830.562 136.552 830.329 136.552C830.068 136.552 829.853 136.468 829.685 136.3C829.517 136.123 829.433 135.894 829.433 135.614ZM836.945 145.47H835.447V142.502H836.245C836.739 141.839 837.033 140.743 837.127 139.212L837.225 137.7H841.873V142.502H842.923V145.47H841.411V144H836.945V145.47ZM838.723 139.212L838.681 139.856C838.569 141.069 838.317 141.951 837.925 142.502H840.263V139.212H838.723ZM849.736 144H848.126V139.31H846.46L846.418 139.982C846.297 141.121 846.119 141.989 845.886 142.586C845.662 143.183 845.373 143.589 845.018 143.804C844.673 144.009 844.192 144.117 843.576 144.126L843.436 142.558C843.641 142.567 843.833 142.511 844.01 142.39C844.215 142.241 844.397 141.928 844.556 141.452C844.715 140.976 844.817 140.379 844.864 139.66L844.962 137.7H849.736V144ZM854.609 137.7H856.667V144H855.057V142.11H854.161L852.859 144H851.011L852.691 141.76C852.345 141.639 852.056 141.419 851.823 141.102C851.589 140.775 851.473 140.388 851.473 139.94C851.473 139.249 851.734 138.703 852.257 138.302C852.789 137.901 853.573 137.7 854.609 137.7ZM853.195 140.052C853.195 140.295 853.297 140.5 853.503 140.668C853.708 140.836 853.946 140.92 854.217 140.92H855.057V139.1H854.343C853.988 139.1 853.708 139.193 853.503 139.38C853.297 139.557 853.195 139.781 853.195 140.052ZM812.506 158.8H810.896V149.7H812.506V150.302C812.711 150.078 812.991 149.896 813.346 149.756C813.701 149.616 814.069 149.546 814.452 149.546C815.32 149.546 816.011 149.845 816.524 150.442C817.047 151.049 817.308 151.819 817.308 152.752C817.308 153.732 817 154.544 816.384 155.188C815.768 155.832 814.965 156.154 813.976 156.154C813.341 156.154 812.851 156.051 812.506 155.846V158.8ZM813.948 151.058C813.388 151.058 812.907 151.287 812.506 151.744V154.292C812.889 154.535 813.332 154.656 813.836 154.656C814.368 154.656 814.793 154.483 815.11 154.138C815.437 153.793 815.6 153.345 815.6 152.794C815.6 152.271 815.451 151.851 815.152 151.534C814.863 151.217 814.461 151.058 813.948 151.058ZM820.971 156H818.703V149.7H820.313V151.422H821.097C822.039 151.422 822.735 151.618 823.183 152.01C823.64 152.402 823.869 152.934 823.869 153.606C823.869 154.325 823.626 154.903 823.141 155.342C822.655 155.781 821.932 156 820.971 156ZM826.375 156H824.765V149.7H826.375V156ZM820.957 152.71H820.313V154.6H820.943C821.755 154.6 822.161 154.287 822.161 153.662C822.161 153.027 821.759 152.71 820.957 152.71ZM832.896 146.046L833.736 147.362C833.512 147.642 833.232 147.847 832.896 147.978C832.597 148.081 832.224 148.183 831.776 148.286C831.337 148.37 830.973 148.487 830.684 148.636C829.909 149 829.456 149.784 829.326 150.988H829.354C829.55 150.643 829.853 150.363 830.264 150.148C830.674 149.924 831.108 149.812 831.566 149.812C832.434 149.812 833.129 150.092 833.652 150.652C834.174 151.221 834.436 151.973 834.436 152.906C834.436 153.811 834.128 154.581 833.512 155.216C832.896 155.841 832.102 156.154 831.132 156.154C830.077 156.154 829.242 155.795 828.626 155.076C828.019 154.357 827.716 153.387 827.716 152.164C827.716 149.476 828.509 147.787 830.096 147.096C830.441 146.947 830.824 146.835 831.244 146.76C831.72 146.667 832.07 146.578 832.294 146.494C832.518 146.401 832.718 146.251 832.896 146.046ZM829.438 152.5C829.447 153.135 829.601 153.653 829.9 154.054C830.198 154.455 830.595 154.656 831.09 154.656C831.575 154.656 831.967 154.497 832.266 154.18C832.564 153.863 832.714 153.461 832.714 152.976C832.714 152.481 832.574 152.08 832.294 151.772C832.023 151.464 831.645 151.31 831.16 151.31C830.74 151.31 830.376 151.422 830.068 151.646C829.76 151.861 829.55 152.145 829.438 152.5ZM836.324 151.324L835.918 150.148C836.599 149.747 837.341 149.546 838.144 149.546C839.021 149.546 839.66 149.761 840.062 150.19C840.463 150.619 840.664 151.277 840.664 152.164V156H839.264V155.272C838.89 155.813 838.27 156.084 837.402 156.084C836.804 156.084 836.324 155.911 835.96 155.566C835.605 155.211 835.428 154.74 835.428 154.152C835.428 153.499 835.638 152.995 836.058 152.64C836.478 152.285 837.033 152.108 837.724 152.108C838.293 152.108 838.769 152.243 839.152 152.514C839.17 151.954 839.086 151.543 838.9 151.282C838.722 151.021 838.414 150.89 837.976 150.89C837.49 150.89 836.94 151.035 836.324 151.324ZM837.934 154.726C838.475 154.726 838.881 154.535 839.152 154.152V153.508C838.89 153.303 838.522 153.2 838.046 153.2C837.747 153.2 837.504 153.27 837.318 153.41C837.131 153.55 837.038 153.741 837.038 153.984C837.038 154.208 837.122 154.39 837.29 154.53C837.458 154.661 837.672 154.726 837.934 154.726ZM848.068 156H846.458V151.31H844.792L844.75 151.982C844.629 153.121 844.451 153.989 844.218 154.586C843.994 155.183 843.705 155.589 843.35 155.804C843.005 156.009 842.524 156.117 841.908 156.126L841.768 154.558C841.973 154.567 842.165 154.511 842.342 154.39C842.547 154.241 842.729 153.928 842.888 153.452C843.047 152.976 843.149 152.379 843.196 151.66L843.294 149.7H848.068V156ZM853.795 149.7H855.825L853.403 152.696L856.119 156H854.019L851.527 152.822L853.795 149.7ZM851.471 156H849.861V149.7H851.471V156ZM861.616 152.01L858.676 156H857.066V149.7H858.676V153.69L861.616 149.7H863.226V156H861.616V152.01Z" fill="black"></path>
    <path d="M778.17 358H776.448V349.81H772.08V358H770.358V348.2H778.17V358ZM780.969 357.23C780.344 356.605 780.031 355.811 780.031 354.85C780.031 353.889 780.344 353.1 780.969 352.484C781.595 351.859 782.425 351.546 783.461 351.546C784.488 351.546 785.314 351.859 785.939 352.484C786.574 353.1 786.891 353.889 786.891 354.85C786.891 355.802 786.574 356.595 785.939 357.23C785.305 357.846 784.479 358.154 783.461 358.154C782.425 358.154 781.595 357.846 780.969 357.23ZM782.243 353.562C781.917 353.898 781.753 354.327 781.753 354.85C781.753 355.373 781.912 355.807 782.229 356.152C782.556 356.488 782.967 356.656 783.461 356.656C783.965 356.656 784.376 356.488 784.693 356.152C785.02 355.816 785.183 355.382 785.183 354.85C785.183 354.327 785.02 353.898 784.693 353.562C784.367 353.226 783.956 353.058 783.461 353.058C782.976 353.058 782.57 353.226 782.243 353.562ZM788.822 359.47H787.324V356.502H788.122C788.616 355.839 788.91 354.743 789.004 353.212L789.102 351.7H793.75V356.502H794.8V359.47H793.288V358H788.822V359.47ZM790.6 353.212L790.558 353.856C790.446 355.069 790.194 355.951 789.802 356.502H792.14V353.212H790.6ZM796.349 353.324L795.943 352.148C796.624 351.747 797.366 351.546 798.169 351.546C799.046 351.546 799.686 351.761 800.087 352.19C800.488 352.619 800.689 353.277 800.689 354.164V358H799.289V357.272C798.916 357.813 798.295 358.084 797.427 358.084C796.83 358.084 796.349 357.911 795.985 357.566C795.63 357.211 795.453 356.74 795.453 356.152C795.453 355.499 795.663 354.995 796.083 354.64C796.503 354.285 797.058 354.108 797.749 354.108C798.318 354.108 798.794 354.243 799.177 354.514C799.196 353.954 799.112 353.543 798.925 353.282C798.748 353.021 798.44 352.89 798.001 352.89C797.516 352.89 796.965 353.035 796.349 353.324ZM797.959 356.726C798.5 356.726 798.906 356.535 799.177 356.152V355.508C798.916 355.303 798.547 355.2 798.071 355.2C797.772 355.2 797.53 355.27 797.343 355.41C797.156 355.55 797.063 355.741 797.063 355.984C797.063 356.208 797.147 356.39 797.315 356.53C797.483 356.661 797.698 356.726 797.959 356.726ZM803.949 360.8H802.339V351.7H803.949V352.302C804.155 352.078 804.435 351.896 804.789 351.756C805.144 351.616 805.513 351.546 805.895 351.546C806.763 351.546 807.454 351.845 807.967 352.442C808.49 353.049 808.751 353.819 808.751 354.752C808.751 355.732 808.443 356.544 807.827 357.188C807.211 357.832 806.409 358.154 805.419 358.154C804.785 358.154 804.295 358.051 803.949 357.846V360.8ZM805.391 353.058C804.831 353.058 804.351 353.287 803.949 353.744V356.292C804.332 356.535 804.775 356.656 805.279 356.656C805.811 356.656 806.236 356.483 806.553 356.138C806.88 355.793 807.043 355.345 807.043 354.794C807.043 354.271 806.894 353.851 806.595 353.534C806.306 353.217 805.905 353.058 805.391 353.058ZM814.08 351.7H816.11L813.688 354.696L816.404 358H814.304L811.812 354.822L814.08 351.7ZM811.756 358H810.146V351.7H811.756V358ZM821.901 354.01L818.961 358H817.351V351.7H818.961V355.69L821.901 351.7H823.511V358H821.901V354.01Z" fill="black"></path>
    <path d="M817.848 198H816.14V189.81H813.284L813.088 191.658C812.976 192.778 812.831 193.735 812.654 194.528C812.477 195.321 812.281 195.956 812.066 196.432C811.851 196.908 811.595 197.272 811.296 197.524C811.007 197.776 810.703 197.935 810.386 198C810.078 198.056 809.719 198.056 809.308 198L809.35 196.292C809.555 196.32 809.723 196.311 809.854 196.264C809.985 196.217 810.139 196.087 810.316 195.872C810.512 195.629 810.671 195.307 810.792 194.906C811.128 193.907 811.375 192.325 811.534 190.16L811.674 188.2H817.848V198ZM824.337 191.7H826.171L823.693 198C823.245 199.092 822.844 199.829 822.489 200.212C822.144 200.604 821.733 200.8 821.257 200.8C820.809 200.8 820.357 200.637 819.899 200.31L820.417 199.092C820.66 199.241 820.879 199.316 821.075 199.316C821.458 199.316 821.78 198.989 822.041 198.336L822.181 198L819.269 191.7H821.201L822.671 195.144C822.69 195.191 822.793 195.494 822.979 196.054C823.035 195.709 823.11 195.401 823.203 195.13L824.337 191.7ZM830.608 191.7H832.218V198H830.608V195.83C830.142 196.073 829.619 196.194 829.04 196.194C828.256 196.194 827.678 195.989 827.304 195.578C826.94 195.167 826.758 194.547 826.758 193.716V191.7H828.48V193.52C828.48 194.295 828.821 194.682 829.502 194.682C829.941 194.682 830.31 194.598 830.608 194.43V191.7ZM838.563 194.01L835.623 198H834.013V191.7H835.623V195.69L838.563 191.7H840.173V198H838.563V194.01ZM845.904 191.7H847.934L845.512 194.696L848.228 198H846.128L843.636 194.822L845.904 191.7ZM843.58 198H841.97V191.7H843.58V198Z" fill="black"></path>
    <path d="M810.834 240H809.098L813.242 230.172H814.754L818.898 240H817.064L816.042 237.494H811.856L810.834 240ZM815.384 235.884L813.956 232.398L812.514 235.884H815.384ZM819.904 238.264V230.2H821.514V237.606C821.514 238.287 821.696 238.628 822.06 238.628C822.265 238.628 822.484 238.544 822.718 238.376L823.054 239.608C822.615 239.963 822.06 240.14 821.388 240.14C820.398 240.14 819.904 239.515 819.904 238.264ZM824.087 238.264V230.2H825.697V237.606C825.697 238.287 825.879 238.628 826.243 238.628C826.449 238.628 826.668 238.544 826.901 238.376L827.237 239.608C826.799 239.963 826.243 240.14 825.571 240.14C824.582 240.14 824.087 239.515 824.087 238.264ZM832.359 233.7H833.969V240H832.359V239.23C831.855 239.846 831.183 240.154 830.343 240.154C829.671 240.154 829.134 239.93 828.733 239.482C828.332 239.034 828.131 238.39 828.131 237.55V233.7H829.741V237.214C829.741 238.175 830.142 238.656 830.945 238.656C831.496 238.656 831.967 238.399 832.359 237.886V233.7ZM837.373 240H835.763V233.7H837.373V234.316C837.719 233.831 838.199 233.588 838.815 233.588C839.254 233.588 839.581 233.667 839.795 233.826L839.221 235.338C838.951 235.179 838.68 235.1 838.409 235.1C837.943 235.1 837.597 235.324 837.373 235.772V240ZM845.654 238.236L846.116 239.37C845.491 239.893 844.688 240.154 843.708 240.154C842.7 240.154 841.879 239.851 841.244 239.244C840.628 238.647 840.32 237.849 840.32 236.85C840.32 235.917 840.624 235.133 841.23 234.498C841.837 233.863 842.644 233.546 843.652 233.546C844.483 233.546 845.188 233.821 845.766 234.372C846.345 234.923 846.634 235.623 846.634 236.472C846.634 236.845 846.602 237.135 846.536 237.34H841.986C842.052 237.797 842.252 238.157 842.588 238.418C842.934 238.679 843.363 238.81 843.876 238.81C844.576 238.81 845.169 238.619 845.654 238.236ZM843.582 234.89C842.668 234.89 842.117 235.347 841.93 236.262H845.024C845.034 235.861 844.903 235.534 844.632 235.282C844.371 235.021 844.021 234.89 843.582 234.89Z" fill="black"></path>
    <path d="M298.28 288H295.328V271.2H304.808V273.96H298.28V288ZM311.477 281.16L306.437 288H303.677V277.2H306.437V284.04L311.477 277.2H314.237V288H311.477V281.16ZM327.445 288H324.685V279.792H320.077V288H317.317V277.2H327.445V288ZM338.985 284.976L339.777 286.92C338.705 287.816 337.329 288.264 335.649 288.264C333.921 288.264 332.513 287.744 331.425 286.704C330.369 285.68 329.841 284.312 329.841 282.6C329.841 281 330.361 279.656 331.401 278.568C332.441 277.48 333.825 276.936 335.553 276.936C336.977 276.936 338.185 277.408 339.177 278.352C340.169 279.296 340.665 280.496 340.665 281.952C340.665 282.592 340.609 283.088 340.497 283.44H332.697C332.809 284.224 333.153 284.84 333.729 285.288C334.321 285.736 335.057 285.96 335.937 285.96C337.137 285.96 338.153 285.632 338.985 284.976ZM335.433 279.24C333.865 279.24 332.921 280.024 332.601 281.592H337.905C337.921 280.904 337.697 280.344 337.233 279.912C336.785 279.464 336.185 279.24 335.433 279.24ZM345.648 292.8H342.888V277.2H345.648V278.232C346 277.848 346.48 277.536 347.088 277.296C347.696 277.056 348.328 276.936 348.984 276.936C350.472 276.936 351.656 277.448 352.536 278.472C353.432 279.512 353.88 280.832 353.88 282.432C353.88 284.112 353.352 285.504 352.296 286.608C351.24 287.712 349.864 288.264 348.168 288.264C347.08 288.264 346.24 288.088 345.648 287.736V292.8ZM348.12 279.528C347.16 279.528 346.336 279.92 345.648 280.704V285.072C346.304 285.488 347.064 285.696 347.928 285.696C348.84 285.696 349.568 285.4 350.112 284.808C350.672 284.216 350.952 283.448 350.952 282.504C350.952 281.608 350.696 280.888 350.184 280.344C349.688 279.8 349 279.528 348.12 279.528ZM359.03 288H356.27V277.2H358.766L362.438 281.712L365.918 277.2H368.342V288H365.582V281.4L362.39 285.432H362.318L359.03 281.4V288ZM372.251 279.984L371.555 277.968C372.723 277.28 373.995 276.936 375.371 276.936C376.875 276.936 377.971 277.304 378.659 278.04C379.347 278.776 379.691 279.904 379.691 281.424V288H377.291V286.752C376.651 287.68 375.587 288.144 374.099 288.144C373.075 288.144 372.251 287.848 371.627 287.256C371.019 286.648 370.715 285.84 370.715 284.832C370.715 283.712 371.075 282.848 371.795 282.24C372.515 281.632 373.467 281.328 374.651 281.328C375.627 281.328 376.443 281.56 377.099 282.024C377.131 281.064 376.987 280.36 376.667 279.912C376.363 279.464 375.835 279.24 375.083 279.24C374.251 279.24 373.307 279.488 372.251 279.984ZM375.011 285.816C375.939 285.816 376.635 285.488 377.099 284.832V283.728C376.651 283.376 376.019 283.2 375.203 283.2C374.691 283.2 374.275 283.32 373.955 283.56C373.635 283.8 373.475 284.128 373.475 284.544C373.475 284.928 373.619 285.24 373.907 285.48C374.195 285.704 374.563 285.816 375.011 285.816ZM385.28 292.8H382.52V277.2H385.28V278.232C385.632 277.848 386.112 277.536 386.72 277.296C387.328 277.056 387.96 276.936 388.616 276.936C390.104 276.936 391.288 277.448 392.168 278.472C393.064 279.512 393.512 280.832 393.512 282.432C393.512 284.112 392.984 285.504 391.928 286.608C390.872 287.712 389.496 288.264 387.8 288.264C386.712 288.264 385.872 288.088 385.28 287.736V292.8ZM387.752 279.528C386.792 279.528 385.968 279.92 385.28 280.704V285.072C385.936 285.488 386.696 285.696 387.56 285.696C388.472 285.696 389.2 285.4 389.744 284.808C390.304 284.216 390.584 283.448 390.584 282.504C390.584 281.608 390.328 280.888 389.816 280.344C389.32 279.8 388.632 279.528 387.752 279.528ZM402.647 277.2H406.127L401.975 282.336L406.631 288H403.031L398.759 282.552L402.647 277.2ZM398.663 288H395.903V277.2H398.663V288ZM416.071 284.976L416.863 286.92C415.791 287.816 414.415 288.264 412.735 288.264C411.007 288.264 409.599 287.744 408.511 286.704C407.455 285.68 406.927 284.312 406.927 282.6C406.927 281 407.447 279.656 408.487 278.568C409.527 277.48 410.911 276.936 412.639 276.936C414.063 276.936 415.271 277.408 416.263 278.352C417.255 279.296 417.751 280.496 417.751 281.952C417.751 282.592 417.695 283.088 417.583 283.44H409.783C409.895 284.224 410.239 284.84 410.815 285.288C411.407 285.736 412.143 285.96 413.023 285.96C414.223 285.96 415.239 285.632 416.071 284.976ZM412.519 279.24C410.951 279.24 410.007 280.024 409.687 281.592H414.991C415.007 280.904 414.783 280.344 414.319 279.912C413.871 279.464 413.271 279.24 412.519 279.24ZM422.28 279.96H418.728V277.2H428.568V279.96H425.04V288H422.28V279.96ZM446.526 285.912L444.654 287.472L440.022 282.048V281.952L444.75 276.528L446.55 278.136L443.214 282L446.526 285.912ZM441.486 285.912L439.614 287.472L434.982 282.048V281.952L439.71 276.528L441.51 278.136L438.174 282L441.486 285.912ZM452.827 288H449.875V271.2H452.851L458.587 279.048L464.059 271.2H466.843V288H463.915V275.856L458.611 283.32H458.179L452.827 275.928V288ZM472.324 288H469.348L476.452 271.152H479.044L486.148 288H483.004L481.252 283.704H474.076L472.324 288ZM480.124 280.944L477.676 274.968L475.204 280.944H480.124ZM499.176 288H496.248V282.192H493.824L490.056 288H486.744L491.04 281.592C490.144 281.144 489.424 280.52 488.88 279.72C488.352 278.92 488.088 277.992 488.088 276.936C488.088 275.256 488.664 273.872 489.816 272.784C490.968 271.68 492.696 271.128 495 271.128C495.032 271.128 495.736 271.144 497.112 271.176C497.816 271.192 498.504 271.2 499.176 271.2V288ZM493.56 279.432H496.248V273.96C495.432 273.912 494.816 273.888 494.4 273.888C493.44 273.888 492.664 274.152 492.072 274.68C491.496 275.208 491.208 275.896 491.208 276.744C491.208 277.448 491.424 278.04 491.856 278.52C492.304 278.984 492.872 279.288 493.56 279.432ZM506.78 288H503.828V271.2H506.78V279.168L513.404 271.2H516.956L510.044 279.024L517.388 288H513.644L506.78 279.336V288ZM530.201 281.952V282.048L525.569 287.472L523.697 285.912L527.009 282L523.673 278.136L525.473 276.528L530.201 281.952ZM525.161 281.952V282.048L520.529 287.472L518.657 285.912L521.969 282L518.633 278.136L520.433 276.528L525.161 281.952Z" fill="black"></path>


</svg>