<svg width="20" height="20" viewBox="0 0 20 20" fill="none" xmlns="http://www.w3.org/2000/svg">
<path d="M17.7273 16.4286H1.36364C1.00198 16.4286 0.655131 16.5791 0.3994 16.847C0.143668 17.1149 0 17.4783 0 17.8571V18.5714C0 18.9503 0.143668 19.3137 0.3994 19.5816C0.655131 19.8495 1.00198 20 1.36364 20H17.7273C18.0889 20 18.4358 19.8495 18.6915 19.5816C18.9472 19.3137 19.0909 18.9503 19.0909 18.5714V17.8571C19.0909 17.4783 18.9472 17.1149 18.6915 16.847C18.4358 16.5791 18.0889 16.4286 17.7273 16.4286ZM17.7273 18.5714H1.36364V17.8571H17.7273V18.5714ZM2.72727 13.2143C2.72727 12.5512 2.97869 11.9154 3.42622 11.4465C3.87375 10.9777 4.48073 10.7143 5.11364 10.7143H6.13636C6.31719 10.7143 6.49062 10.7895 6.61848 10.9235C6.74635 11.0574 6.81818 11.2391 6.81818 11.4286C6.81818 11.618 6.74635 11.7997 6.61848 11.9336C6.49062 12.0676 6.31719 12.1429 6.13636 12.1429H5.11364C4.84239 12.1429 4.58226 12.2557 4.39046 12.4567C4.19866 12.6576 4.09091 12.9301 4.09091 13.2143C4.09091 13.4984 4.19866 13.771 4.39046 13.9719C4.58226 14.1728 4.84239 14.2857 5.11364 14.2857H13.9773C14.2485 14.2857 14.5087 14.1728 14.7004 13.9719C14.8922 13.771 15 13.4984 15 13.2143C15 12.9301 14.8922 12.6576 14.7004 12.4567C14.5087 12.2557 14.2485 12.1429 13.9773 12.1429H8.18182C8.00099 12.1429 7.82757 12.0676 7.6997 11.9336C7.57183 11.7997 7.5 11.618 7.5 11.4286C7.5 11.2391 7.57183 11.0574 7.6997 10.9235C7.82757 10.7895 8.00099 10.7143 8.18182 10.7143H13.9773C14.6102 10.7143 15.2172 10.9777 15.6647 11.4465C16.1122 11.9154 16.3636 12.5512 16.3636 13.2143C16.3636 13.8773 16.1122 14.5132 15.6647 14.9821C15.2172 15.4509 14.6102 15.7143 13.9773 15.7143H5.11364C4.48073 15.7143 3.87375 15.4509 3.42622 14.9821C2.97869 14.5132 2.72727 13.8773 2.72727 13.2143ZM7.15909 10H11.9318C12.5647 10 13.1717 9.73661 13.6192 9.26777C14.0668 8.79893 14.3182 8.16304 14.3182 7.5C14.3182 6.83696 14.0668 6.20107 13.6192 5.73223C13.1717 5.26339 12.5647 5 11.9318 5H7.15909C6.52619 5 5.91921 5.26339 5.47168 5.73223C5.02415 6.20107 4.77273 6.83696 4.77273 7.5C4.77273 8.16304 5.02415 8.79893 5.47168 9.26777C5.91921 9.73661 6.52619 10 7.15909 10ZM7.15909 6.42857H11.9318C12.2031 6.42857 12.4632 6.54145 12.655 6.74239C12.8468 6.94332 12.9545 7.21584 12.9545 7.5C12.9545 7.78416 12.8468 8.05668 12.655 8.25762C12.4632 8.45855 12.2031 8.57143 11.9318 8.57143H7.15909C6.88785 8.57143 6.62771 8.45855 6.43591 8.25762C6.24411 8.05668 6.13636 7.78416 6.13636 7.5C6.13636 7.21584 6.24411 6.94332 6.43591 6.74239C6.62771 6.54145 6.88785 6.42857 7.15909 6.42857ZM8.86364 4.28571H10.2273C10.5889 4.28571 10.9358 4.1352 11.1915 3.8673C11.4472 3.59939 11.5909 3.23602 11.5909 2.85714V1.42857C11.5909 1.04969 11.4472 0.686328 11.1915 0.418419C10.9358 0.15051 10.5889 0 10.2273 0H8.86364C8.50198 0 8.15513 0.15051 7.8994 0.418419C7.64367 0.686328 7.5 1.04969 7.5 1.42857V2.85714C7.5 3.23602 7.64367 3.59939 7.8994 3.8673C8.15513 4.1352 8.50198 4.28571 8.86364 4.28571ZM8.86364 1.42857H10.2273V2.85714H8.86364V1.42857Z" fill="white"/>
</svg>
