<svg width="20" height="20" viewBox="0 0 20 20" fill="none" xmlns="http://www.w3.org/2000/svg">
<path d="M19.6521 3.01111C19.8736 2.80189 19.998 2.51811 19.998 2.22222C19.998 1.92633 19.8736 1.64256 19.6521 1.43333C19.4307 1.22411 19.1303 1.10657 18.8171 1.10657C18.5039 1.10657 18.2036 1.22411 17.9821 1.43333L10.5964 8.44444L6.71536 4.76667C6.94046 4.3188 7.05697 3.82913 7.05642 3.33333C7.05642 2.67406 6.84949 2.0296 6.46181 1.48143C6.07412 0.93327 5.52309 0.506028 4.8784 0.253736C4.2337 0.00144429 3.5243 -0.0645668 2.83989 0.0640506C2.15549 0.192668 1.52682 0.510137 1.03339 0.976312C0.539961 1.44249 0.203932 2.03643 0.0677951 2.68303C-0.0683416 3.32964 0.00152873 3.99986 0.26857 4.60895C0.535612 5.21803 0.987831 5.73863 1.56804 6.1049C2.14825 6.47117 2.8304 6.66667 3.52821 6.66667C4.05389 6.66372 4.57223 6.54984 5.04534 6.33333L8.93813 10L5.06886 13.6667C4.5886 13.4469 4.06183 13.3329 3.52821 13.3333C2.8304 13.3333 2.14825 13.5288 1.56804 13.8951C0.987831 14.2614 0.535612 14.782 0.26857 15.3911C0.00152873 16.0001 -0.0683416 16.6704 0.0677951 17.317C0.203932 17.9636 0.539961 18.5575 1.03339 19.0237C1.52682 19.4899 2.15549 19.8073 2.83989 19.9359C3.5243 20.0646 4.2337 19.9986 4.8784 19.7463C5.52309 19.494 6.07412 19.0667 6.46181 18.5186C6.84949 17.9704 7.05642 17.3259 7.05642 16.6667C7.05179 16.1821 6.9354 15.7044 6.71536 15.2667L19.6521 3.01111ZM3.52821 4.44445C3.29561 4.44445 3.06822 4.37928 2.87482 4.25719C2.68142 4.1351 2.53068 3.96157 2.44166 3.75854C2.35265 3.55551 2.32936 3.3321 2.37474 3.11657C2.42012 2.90103 2.53213 2.70305 2.6966 2.54766C2.86108 2.39227 3.07063 2.28645 3.29877 2.24357C3.52691 2.2007 3.76337 2.2227 3.97827 2.3068C4.19317 2.3909 4.37685 2.53331 4.50608 2.71603C4.6353 2.89876 4.70428 3.11358 4.70428 3.33333C4.70428 3.62802 4.58037 3.91063 4.35982 4.11901C4.13926 4.32738 3.84012 4.44445 3.52821 4.44445ZM3.52821 17.7778C3.29561 17.7778 3.06822 17.7126 2.87482 17.5905C2.68142 17.4684 2.53068 17.2949 2.44166 17.0919C2.35265 16.8888 2.32936 16.6654 2.37474 16.4499C2.42012 16.2344 2.53213 16.0364 2.6966 15.881C2.86108 15.7256 3.07063 15.6198 3.29877 15.5769C3.52691 15.534 3.76337 15.556 3.97827 15.6401C4.19317 15.7242 4.37685 15.8666 4.50608 16.0494C4.6353 16.2321 4.70428 16.4469 4.70428 16.6667C4.70428 16.9613 4.58037 17.244 4.35982 17.4523C4.13926 17.6607 3.84012 17.7778 3.52821 17.7778Z" fill="white"/>
<path d="M13.7718 11.4333C13.5503 11.2241 13.25 11.1066 12.9368 11.1066C12.6236 11.1066 12.3232 11.2241 12.1018 11.4333C11.8803 11.6426 11.7559 11.9263 11.7559 12.2222C11.7559 12.5181 11.8803 12.8019 12.1018 13.0111L17.9821 18.5667C18.0914 18.6708 18.2215 18.7535 18.3648 18.8099C18.5081 18.8663 18.6619 18.8953 18.8171 18.8953C18.9724 18.8953 19.1261 18.8663 19.2694 18.8099C19.4127 18.7535 19.5428 18.6708 19.6521 18.5667C19.7624 18.4634 19.8498 18.3405 19.9096 18.2051C19.9693 18.0697 20 17.9245 20 17.7778C20 17.6311 19.9693 17.4859 19.9096 17.3505C19.8498 17.2151 19.7624 17.0922 19.6521 16.9889L13.7718 11.4333Z" fill="white"/>
</svg>
