<svg width="22" height="20" viewBox="0 0 22 20" fill="none" xmlns="http://www.w3.org/2000/svg">
<path d="M10 5.55556C10.6136 5.55556 11.1111 5.05809 11.1111 4.44444C11.1111 3.83079 10.6136 3.33333 10 3.33333C9.38635 3.33333 8.88889 3.83079 8.88889 4.44444C8.88889 5.05809 9.38635 5.55556 10 5.55556Z" fill="white"/>
<path d="M5.55556 14.4444C6.16921 14.4444 6.66667 13.947 6.66667 13.3333C6.66667 12.7197 6.16921 12.2222 5.55556 12.2222C4.94191 12.2222 4.44444 12.7197 4.44444 13.3333C4.44444 13.947 4.94191 14.4444 5.55556 14.4444Z" fill="white"/>
<path d="M5.55556 8.88889C6.16921 8.88889 6.66667 8.39143 6.66667 7.77778C6.66667 7.16413 6.16921 6.66667 5.55556 6.66667C4.94191 6.66667 4.44444 7.16413 4.44444 7.77778C4.44444 8.39143 4.94191 8.88889 5.55556 8.88889Z" fill="white"/>
<path d="M14.4444 8.88889C15.0581 8.88889 15.5556 8.39143 15.5556 7.77778C15.5556 7.16413 15.0581 6.66667 14.4444 6.66667C13.8308 6.66667 13.3333 7.16413 13.3333 7.77778C13.3333 8.39143 13.8308 8.88889 14.4444 8.88889Z" fill="white"/>
<path d="M14.4444 14.4444C15.0581 14.4444 15.5556 13.947 15.5556 13.3333C15.5556 12.7197 15.0581 12.2222 14.4444 12.2222C13.8308 12.2222 13.3333 12.7197 13.3333 13.3333C13.3333 13.947 13.8308 14.4444 14.4444 14.4444Z" fill="white"/>
<path d="M10 16.6667C10.6136 16.6667 11.1111 16.1692 11.1111 15.5556C11.1111 14.9419 10.6136 14.4444 10 14.4444C9.38635 14.4444 8.88889 14.9419 8.88889 15.5556C8.88889 16.1692 9.38635 16.6667 10 16.6667Z" fill="white"/>
<path d="M10 12.2222C11.2273 12.2222 12.2222 11.2273 12.2222 10C12.2222 8.7727 11.2273 7.77778 10 7.77778C8.7727 7.77778 7.77778 8.7727 7.77778 10C7.77778 11.2273 8.7727 12.2222 10 12.2222Z" fill="white"/>
<path d="M20 17.7778H16.2719C18.5427 15.9431 20 13.1401 20 10C20 4.48567 15.5143 0 10 0C4.48567 0 0 4.48567 0 10C0 15.5143 4.48567 20 10 20H20C20.6141 20 21.1111 19.503 21.1111 18.8889C21.1111 18.2748 20.6141 17.7778 20 17.7778ZM10 17.7778C5.71178 17.7778 2.22222 14.2882 2.22222 10C2.22222 5.71178 5.71178 2.22222 10 2.22222C14.2882 2.22222 17.7778 5.71178 17.7778 10C17.7778 14.2882 14.2882 17.7778 10 17.7778Z" fill="white"/>
</svg>
