<svg width="20" height="20" viewBox="0 0 20 20" fill="none" xmlns="http://www.w3.org/2000/svg">
<path d="M19.993 5.82174C19.9978 5.75851 19.9978 5.695 19.993 5.63176L17.9937 0.632376C17.9156 0.434756 17.7766 0.267157 17.5969 0.15389C17.4171 0.0406236 17.206 -0.0124204 16.994 0.0024531H2.99895C2.79874 0.00225924 2.60308 0.0622005 2.43733 0.174513C2.27157 0.286825 2.14335 0.446333 2.06927 0.632376L0.0699753 5.63176C0.0651567 5.695 0.0651567 5.75851 0.0699753 5.82174C0.0367579 5.8774 0.013105 5.93823 0 6.00172C0.0111267 6.69287 0.201155 7.36935 0.551551 7.96516C0.901947 8.56096 1.40075 9.05577 1.9993 9.4013V19.0001C1.9993 19.2653 2.10462 19.5196 2.29209 19.7071C2.47956 19.8947 2.73382 20 2.99895 20H16.994C17.2592 20 17.5134 19.8947 17.7009 19.7071C17.8884 19.5196 17.9937 19.2653 17.9937 19.0001V9.4413C18.598 9.09232 19.1005 8.59122 19.4513 7.98781C19.802 7.3844 19.9888 6.69969 19.993 6.00172C20.0023 5.94209 20.0023 5.88137 19.993 5.82174ZM10.9961 18.0002H8.99684V14.0007H10.9961V18.0002ZM15.9944 18.0002H12.9954V13.0009C12.9954 12.7357 12.8901 12.4814 12.7026 12.2938C12.5152 12.1063 12.2609 12.001 11.9958 12.001H7.99719C7.73207 12.001 7.4778 12.1063 7.29033 12.2938C7.10286 12.4814 6.99754 12.7357 6.99754 13.0009V18.0002H3.9986V10.0012C4.56786 9.99801 5.12988 9.87326 5.64707 9.6353C6.16425 9.39734 6.62467 9.05167 6.99754 8.6214C7.37278 9.04697 7.83425 9.38781 8.35132 9.62127C8.86838 9.85474 9.42919 9.97548 9.99649 9.97548C10.5638 9.97548 11.1246 9.85474 11.6417 9.62127C12.1587 9.38781 12.6202 9.04697 12.9954 8.6214C13.3683 9.05167 13.8287 9.39734 14.3459 9.6353C14.8631 9.87326 15.4251 9.99801 15.9944 10.0012V18.0002ZM15.9944 8.00147C15.4641 8.00147 14.9556 7.79078 14.5807 7.41576C14.2057 7.04073 13.9951 6.53209 13.9951 6.00172C13.9951 5.73653 13.8898 5.48221 13.7023 5.2947C13.5148 5.10718 13.2606 5.00184 12.9954 5.00184C12.7303 5.00184 12.476 5.10718 12.2886 5.2947C12.1011 5.48221 11.9958 5.73653 11.9958 6.00172C11.9958 6.53209 11.7851 7.04073 11.4102 7.41576C11.0353 7.79078 10.5267 8.00147 9.99649 8.00147C9.46624 8.00147 8.95771 7.79078 8.58277 7.41576C8.20783 7.04073 7.99719 6.53209 7.99719 6.00172C7.99719 5.73653 7.89187 5.48221 7.7044 5.2947C7.51693 5.10718 7.26267 5.00184 6.99754 5.00184C6.73242 5.00184 6.47815 5.10718 6.29068 5.2947C6.10321 5.48221 5.99789 5.73653 5.99789 6.00172C6.00774 6.26433 5.96578 6.52631 5.8744 6.7727C5.78302 7.01909 5.64402 7.24506 5.46533 7.43772C5.28664 7.63038 5.07176 7.78595 4.83296 7.89554C4.59416 8.00514 4.33612 8.06662 4.07357 8.07646C3.54332 8.09635 3.02689 7.90474 2.63789 7.54378C2.44528 7.36504 2.28975 7.15012 2.18018 6.91126C2.07061 6.67241 2.00914 6.41431 1.9993 6.1517L3.67871 2.00221H16.3143L17.9937 6.1517C17.9558 6.65565 17.7285 7.12657 17.3576 7.46974C16.9867 7.81292 16.4996 8.0029 15.9944 8.00147Z" fill="white"/>
</svg>
