<svg width="16" height="20" viewBox="0 0 16 20" fill="none" xmlns="http://www.w3.org/2000/svg">
<path d="M14.8438 0C14.5813 0 14.3296 0.105357 14.144 0.292893C13.9584 0.48043 13.8542 0.734784 13.8542 1V6.46L12.8646 7.13V1C12.8646 0.734784 12.7603 0.48043 12.5747 0.292893C12.3892 0.105357 12.1375 0 11.875 0C11.6125 0 11.3608 0.105357 11.1753 0.292893C10.9897 0.48043 10.8854 0.734784 10.8854 1V7.13L9.89583 6.46V1C9.89583 0.734784 9.79157 0.48043 9.60599 0.292893C9.42041 0.105357 9.1687 0 8.90625 0C8.6438 0 8.39209 0.105357 8.20651 0.292893C8.02093 0.48043 7.91667 0.734784 7.91667 1V7C7.91751 7.16471 7.9586 7.32665 8.03629 7.47145C8.11397 7.61625 8.22585 7.73941 8.36198 7.83L10.8854 9.54V19C10.8854 19.2652 10.9897 19.5196 11.1753 19.7071C11.3608 19.8946 11.6125 20 11.875 20C12.1375 20 12.3892 19.8946 12.5747 19.7071C12.7603 19.5196 12.8646 19.2652 12.8646 19V9.54L15.388 7.83C15.5241 7.73941 15.636 7.61625 15.7137 7.47145C15.7914 7.32665 15.8325 7.16471 15.8333 7V1C15.8333 0.734784 15.7291 0.48043 15.5435 0.292893C15.3579 0.105357 15.1062 0 14.8438 0ZM4.94792 0C3.63565 0 2.37713 0.526784 1.44921 1.46447C0.521297 2.40215 0 3.67392 0 5V11C0 11.2652 0.10426 11.5196 0.289842 11.7071C0.475425 11.8946 0.72713 12 0.989583 12H3.95833V19C3.95833 19.2652 4.06259 19.5196 4.24818 19.7071C4.43376 19.8946 4.68546 20 4.94792 20C5.21037 20 5.46207 19.8946 5.64766 19.7071C5.83324 19.5196 5.9375 19.2652 5.9375 19V1C5.9375 0.734784 5.83324 0.48043 5.64766 0.292893C5.46207 0.105357 5.21037 0 4.94792 0ZM3.95833 10H1.97917V5C1.97884 4.37935 2.16902 3.77387 2.52349 3.26702C2.87796 2.76016 3.37927 2.37688 3.95833 2.17V10Z" fill="white"/>
</svg>
